<svg width="101" height="82" viewBox="0 0 101 82" fill="none" xmlns="http://www.w3.org/2000/svg">
<path d="M83.3518 0.0456061C83.5905 0.0524224 83.8291 0.0592388 84.0749 0.0662617C88.4522 0.230328 88.4522 0.230328 89.6761 1.36449C90.4712 2.4957 90.5723 3.32788 90.5405 4.69174C90.5394 4.87364 90.5383 5.05554 90.5371 5.24295C90.5327 5.81968 90.5229 6.39617 90.5128 6.97283C90.5089 7.36558 90.5053 7.75835 90.502 8.15111C90.4934 9.1102 90.4798 10.0691 90.4636 11.0281C90.7807 11.0234 90.7807 11.0234 91.1041 11.0187C91.8955 11.0079 92.6869 11.0012 93.4783 10.9956C93.8195 10.9926 94.1607 10.9886 94.5019 10.9834C94.995 10.9762 95.488 10.9729 95.9812 10.9703C96.1314 10.9673 96.2816 10.9642 96.4363 10.9611C97.6801 10.9607 98.9563 11.1609 99.9439 11.9656C100.031 12.0833 100.118 12.201 100.208 12.3223C100.345 12.4996 100.345 12.4996 100.485 12.6805C100.909 13.3102 100.923 13.7187 100.924 14.4748C100.925 14.7057 100.926 14.9365 100.927 15.1744C100.926 15.5582 100.926 15.5582 100.926 15.9498C100.927 16.2226 100.928 16.4955 100.929 16.7683C100.931 17.5206 100.931 18.273 100.932 19.0253C100.933 19.8357 100.934 20.6461 100.936 21.4565C100.94 23.4149 100.942 25.3734 100.944 27.3318C100.945 28.2534 100.946 29.1751 100.947 30.0968C100.95 33.1596 100.953 36.2224 100.954 39.2853C100.955 40.0804 100.955 40.8756 100.956 41.6707C100.956 41.8684 100.956 42.066 100.956 42.2696C100.957 45.4724 100.962 48.6751 100.969 51.8779C100.975 55.1641 100.979 58.4504 100.98 61.7367C100.98 63.5826 100.982 65.4284 100.987 67.2743C100.991 68.8462 100.993 70.418 100.991 71.9898C100.99 72.792 100.99 73.5941 100.994 74.3963C100.997 75.1306 100.997 75.8649 100.994 76.5992C100.993 76.9908 100.997 77.3824 101 77.7741C100.988 79.4098 100.817 80.1144 99.6793 81.2863C98.8246 81.8191 97.9133 82.0928 96.8995 81.9716C96.4002 81.8516 95.9129 81.7089 95.4221 81.5575C95.0226 81.4443 94.6227 81.3325 94.2225 81.2216C94.0022 81.1605 93.7819 81.0994 93.555 81.0364C90.0895 80.1153 86.5497 79.3482 83.0073 78.7965C82.8269 78.7682 82.6466 78.74 82.4607 78.7109C78.9168 78.1973 75.3759 78.0063 71.7983 78.02C71.6012 78.0203 71.404 78.0207 71.2009 78.021C68.2003 78.0302 65.2704 78.1279 62.3119 78.6732C62.1266 78.706 61.9413 78.7388 61.7503 78.7726C58.5195 79.3601 55.2915 80.2547 52.2756 81.5698C50.3474 82.4095 48.8432 81.6261 47.0014 80.9384C44.6027 80.0434 42.2415 79.3172 39.7216 78.8458C39.5555 78.8145 39.3893 78.7832 39.2181 78.7509C35.9667 78.1726 32.7569 78.0011 29.4601 78.0076C29.2546 78.0077 29.0491 78.0078 28.8374 78.008C20.8169 78.0271 12.9221 79.3163 5.24643 81.6669C4.00455 81.9931 2.74665 82.0598 1.57905 81.4959C0.129016 80.1522 0.129013 80.1522 0.0772068 79.1868C0.0768547 78.9863 0.0765062 78.7858 0.0761434 78.5792C0.0752658 78.3483 0.0743861 78.1174 0.0734819 77.8796C0.0735182 77.6237 0.0735587 77.3678 0.0735961 77.1042C0.0729469 76.8314 0.072208 76.5585 0.0713972 76.2857C0.069421 75.5334 0.0686926 74.781 0.068171 74.0287C0.0674037 73.2183 0.0655232 72.4079 0.0638033 71.5975C0.0599094 69.6391 0.0579245 67.6806 0.0561733 65.7222C0.055311 64.8006 0.0542552 63.8789 0.0532235 62.9572C0.0498741 59.8944 0.0470248 56.8316 0.0455995 53.7687C0.0452235 52.9736 0.044843 52.1784 0.044458 51.3833C0.0443628 51.1856 0.0442678 50.988 0.0441697 50.7843C0.0425351 47.5816 0.037549 44.3789 0.0311567 41.1761C0.0246509 37.8899 0.0210982 34.6036 0.0204687 31.3173C0.020042 29.4714 0.0183119 27.6256 0.0132893 25.7797C0.00902243 24.2078 0.00743067 22.636 0.0093482 21.0642C0.0102448 20.262 0.00986023 19.4599 0.0060499 18.6577C0.00259199 17.9234 0.00275924 17.1891 0.00582761 16.4548C0.00652002 16.0632 0.0033279 15.6715 0 15.2799C0.0153424 13.1643 0.0153441 13.1643 0.890026 12.2114C2.06684 11.0643 3.42047 10.9687 4.98036 10.9896C5.14008 10.9901 5.29981 10.9907 5.46437 10.9913C5.96979 10.9934 6.47514 10.9984 6.98054 11.0034C7.32518 11.0054 7.66982 11.0072 8.01446 11.0088C8.85514 11.0132 9.69576 11.0199 10.5364 11.0281C10.5313 10.7854 10.5261 10.5428 10.5208 10.2928C10.5029 9.38715 10.4916 8.48157 10.4823 7.57584C10.4774 7.18484 10.4707 6.79387 10.4622 6.40294C10.4501 5.83891 10.4446 5.27513 10.4403 4.711C10.4352 4.53796 10.4301 4.36492 10.4249 4.18664C10.4243 2.94906 10.7048 2.1102 11.5207 1.16727C13.4166 -0.292528 16.4839 0.114083 18.7501 0.118936C19.3496 0.119553 19.9489 0.114943 20.5485 0.109932C24.1539 0.0980828 27.7081 0.460118 31.2195 1.30286C31.4312 1.35313 31.6429 1.4034 31.861 1.4552C39.153 3.25592 45.3446 6.95147 50.3031 12.6058C51.0117 12.3127 51.3866 11.919 51.8781 11.3362C58.1196 4.24575 67.6902 0.955705 76.8799 0.181192C77.0095 0.169021 77.1391 0.15685 77.2726 0.14431C79.3013 -0.0404501 81.3168 -0.016926 83.3518 0.0456061ZM17.4267 7.08376C17.4267 24.3303 17.4267 41.5769 17.4267 59.3461C19.3107 59.4111 21.1947 59.4762 23.1358 59.5433C31.5919 60.335 39.3349 62.4989 46.0613 67.8325C46.5263 68.2184 46.5263 68.2184 46.9564 68.418C47.0014 62.2845 47.0362 56.151 47.057 50.0173C47.0594 49.2921 47.062 48.5669 47.0646 47.8417C47.0651 47.6974 47.0656 47.553 47.0661 47.4043C47.0747 45.071 47.0902 42.7378 47.1083 40.4046C47.1268 38.008 47.1377 35.6115 47.1417 33.2148C47.1444 31.7375 47.1528 30.2605 47.1689 28.7833C47.1806 27.6479 47.1817 26.5127 47.1791 25.3772C47.1796 24.9134 47.1835 24.4496 47.1911 23.9858C47.2361 21.0885 47.0059 19.2815 44.9878 17.1418C44.6961 16.793 44.4048 16.4438 44.1142 16.0941C43.177 15.0859 42.1398 14.2322 41.0505 13.3947C40.8805 13.2607 40.7104 13.1267 40.5352 12.9887C33.8574 7.89696 25.5484 7.08376 17.4267 7.08376ZM76.154 7.31795C75.9336 7.3442 75.7132 7.37045 75.4861 7.39749C69.2405 8.19338 63.0619 10.393 58.4177 14.7667C57.9809 15.1696 57.9809 15.1696 57.5018 15.5309C56.8724 16.0636 56.4006 16.6611 55.9015 17.3143C55.8092 17.4326 55.717 17.5508 55.6219 17.6726C55.3539 18.0189 55.0884 18.3651 54.831 18.7195C54.6974 18.8816 54.5638 19.0436 54.4262 19.2106C53.8724 20.0532 53.9367 20.907 53.9489 21.8869C53.9482 22.0861 53.9475 22.2852 53.9468 22.4903C53.9455 23.1572 53.9499 23.8239 53.9542 24.4907C53.9544 24.9688 53.9543 25.447 53.9538 25.9251C53.9536 26.9544 53.9559 27.9835 53.9603 29.0127C53.9667 30.5008 53.9688 31.9888 53.9697 33.4769C53.9715 35.8912 53.9767 38.3056 53.9842 40.72C53.9914 43.065 53.997 45.41 54.0003 47.7551C54.0005 47.8997 54.0007 48.0443 54.0009 48.1933C54.002 48.9187 54.003 49.6442 54.0039 50.3696C54.0121 56.3858 54.026 62.4019 54.0436 68.418C54.1503 68.3377 54.257 68.2574 54.3669 68.1747C54.5076 68.0688 54.6484 67.963 54.7934 67.8539C54.9325 67.7492 55.0717 67.6445 55.2151 67.5367C63.7698 61.1331 73.0455 59.7097 83.5733 59.3461C83.5733 42.0995 83.5733 24.8529 83.5733 7.08376C79.8409 7.04712 79.8409 7.04712 76.154 7.31795ZM6.99284 18.1279C6.99284 36.4808 6.99284 54.8337 6.99284 73.7428C8.23328 73.5169 9.4509 73.2879 10.6779 73.0131C20.1125 70.9315 29.6849 70.5203 39.2787 71.5735C35.2891 68.1466 29.0028 66.907 23.9232 66.4458C23.6885 66.424 23.4538 66.4021 23.2119 66.3796C20.8182 66.189 18.3949 66.1482 15.9986 66.3141C15.8315 66.3254 15.6643 66.3368 15.4921 66.3485C15.1756 66.3716 14.8594 66.3978 14.5435 66.4276C13.4944 66.5065 12.8433 66.3617 11.9145 65.8542C11.411 65.4098 11.0343 64.8796 10.7333 64.2765C10.7119 63.6752 10.7028 63.0784 10.7021 62.477C10.7007 62.1939 10.7007 62.1939 10.6992 61.905C10.6961 61.2684 10.6945 60.6319 10.6929 59.9954C10.691 59.5407 10.689 59.0859 10.6869 58.6312C10.6816 57.3934 10.6775 56.1556 10.6736 54.9177C10.6693 53.6254 10.6639 52.333 10.6586 51.0406C10.6498 48.8704 10.6418 46.7001 10.6343 44.5299C10.6266 42.2943 10.6184 40.0586 10.6097 37.823C10.6092 37.6853 10.6086 37.5475 10.6081 37.4056C10.6054 36.7146 10.6027 36.0236 10.6 35.3326C10.5775 29.5977 10.5566 23.8628 10.5364 18.1279C9.36703 18.1279 8.19765 18.1279 6.99284 18.1279ZM90.4636 18.1279C90.4629 18.7034 90.4622 19.2789 90.4614 19.8719C90.4545 25.1495 90.4436 30.427 90.4286 35.7046C90.4266 36.3963 90.4247 37.088 90.4227 37.7797C90.4222 37.9862 90.4222 37.9862 90.4216 38.1969C90.4155 40.4267 90.4121 42.6564 90.4098 44.8861C90.4074 47.1739 90.4019 49.4618 90.3938 51.7496C90.3893 53.0347 90.3862 54.3197 90.3864 55.6048C90.3866 56.814 90.3831 58.0232 90.3767 59.2323C90.3751 59.6764 90.3747 60.1205 90.3758 60.5646C90.3771 61.1706 90.3736 61.7763 90.3689 62.3822C90.3704 62.5583 90.372 62.7344 90.3735 62.9159C90.3586 63.9944 90.1844 64.5967 89.4793 65.4598C89.3899 65.5736 89.3006 65.6875 89.2086 65.8049C88.228 66.5605 87.1672 66.4675 86.0095 66.3719C85.6738 66.3498 85.338 66.3285 85.0021 66.3079C84.8304 66.2974 84.6586 66.2869 84.4817 66.2761C76.5809 65.8547 68.5297 67.2147 61.7213 71.3762C62.4528 71.6205 63.0312 71.5059 63.7761 71.4009C73.1851 70.1949 82.8847 71.2704 92.076 73.4303C92.7144 73.5634 93.3616 73.6505 94.0072 73.7428C94.0072 55.3899 94.0072 37.037 94.0072 18.1279C92.8378 18.1279 91.6684 18.1279 90.4636 18.1279Z" fill="#94B071"/>
</svg>
