<svg width="85" height="39" viewBox="0 0 85 39" fill="none" xmlns="http://www.w3.org/2000/svg">
<path d="M5.73566 0.376358C6.70624 0.934046 7.30623 1.76302 7.95476 2.65299C8.12136 2.8779 8.28809 3.10271 8.45493 3.32745C8.83556 3.84156 9.21414 4.35713 9.59209 4.8732C10.2139 5.71922 10.8503 6.55361 11.4892 7.38677C12.3976 8.57202 13.291 9.76682 14.174 10.971C14.8748 11.9243 15.5893 12.8663 16.309 13.8055C17.2173 14.9907 18.1107 16.1855 18.9938 17.3897C19.6945 18.343 20.4091 19.285 21.1288 20.2242C22.0367 21.409 22.9298 22.6032 23.8125 23.8069C24.6206 24.9064 25.4467 25.9918 26.2789 27.0732C26.3776 27.2017 26.4763 27.3303 26.578 27.4627C26.6837 27.5948 26.7895 27.7269 26.8984 27.8629C27.1629 28.2295 27.3627 28.5633 27.5689 28.9609C28.0232 29.7797 28.4621 30.568 29.4016 30.8587C30.5613 31.0353 31.7211 30.9542 32.887 30.8852C33.2427 30.8731 33.5984 30.8621 33.9542 30.8523C34.821 30.8259 35.6863 30.7858 36.552 30.7348C35.6635 29.4881 34.7728 28.2437 33.861 27.0139C33.6677 26.7526 33.4744 26.4912 33.2811 26.2298C33.1843 26.099 33.0874 25.9682 32.9877 25.8334C32.515 25.1944 32.0433 24.5546 31.5716 23.9149C31.3841 23.6608 31.1967 23.4068 31.0093 23.1527C29.8847 21.6283 28.7601 20.1038 27.6354 18.5794C27.5426 18.4536 27.4499 18.3278 27.3542 18.1982C27.1669 17.9443 26.9796 17.6904 26.7923 17.4364C26.3222 16.7989 25.8517 16.1616 25.3806 15.5249C24.3681 14.1556 23.3608 12.783 22.3667 11.4004C21.9509 10.8227 21.5321 10.248 21.1043 9.67908C21.0238 9.57146 20.9432 9.46385 20.8603 9.35297C20.7104 9.15323 20.5597 8.95415 20.4079 8.75592C19.4971 7.53882 19.1606 6.41412 19.3615 4.89953C19.7218 3.71173 20.3708 2.93639 21.4501 2.33205C22.4623 1.85541 23.5372 1.83532 24.6131 2.12896C25.8083 2.64378 26.4903 3.54873 27.2338 4.5786C27.3132 4.68748 27.3925 4.79636 27.4743 4.90854C27.9194 5.51961 28.3613 6.13285 28.8015 6.74741C29.4872 7.70072 30.2047 8.6288 30.9289 9.55308C31.7637 8.48305 32.585 7.40493 33.3879 6.31079C33.7691 5.79146 34.1526 5.27388 34.5361 4.75622C34.746 4.47086 34.9524 4.1835 35.1575 3.89473C35.9611 2.80777 36.7893 2.1518 38.1511 1.9359C39.3221 1.87592 40.2632 2.11389 41.2111 2.81346C41.8061 3.41379 42.2813 4.02968 42.3357 4.89953C42.4417 4.89953 42.5478 4.89953 42.657 4.89953C42.6637 4.79362 42.6703 4.68771 42.6771 4.5786C42.9742 3.56123 43.6069 2.85169 44.5247 2.33205C45.5922 1.86138 46.6232 1.81757 47.7448 2.13084C48.9464 2.63882 49.6196 3.55217 50.3686 4.5786C50.5484 4.82045 50.7283 5.06218 50.9084 5.30383C51.2981 5.82875 51.6858 6.35514 52.0719 6.88281C52.7278 7.77903 53.3944 8.66691 54.0638 9.55308C55.6569 7.53472 55.6569 7.53472 57.1766 5.46117C57.3049 5.28079 57.4334 5.10047 57.5619 4.92022C57.7915 4.59799 58.02 4.27503 58.2472 3.95114C59.0687 2.8413 59.8932 2.1567 61.2859 1.9359C62.4564 1.87595 63.3989 2.11328 64.3459 2.81346C65.1866 3.67746 65.6738 4.59514 65.7015 5.81219C65.6546 7.64929 64.5067 8.9041 63.4322 10.3003C62.8917 11.0035 62.3725 11.7208 61.8557 12.4415C61.1195 13.4654 60.3701 14.478 59.6097 15.4841C59.0089 16.281 58.422 17.0872 57.8393 17.8974C57.1029 18.9212 56.3537 19.9339 55.5932 20.94C54.9924 21.7369 54.4055 22.5431 53.8228 23.3533C53.1632 24.2703 52.4957 25.1801 51.8146 26.0812C51.1006 27.0261 50.3995 27.9796 49.7059 28.9395C49.5717 29.1252 49.5717 29.1252 49.4348 29.3147C49.0965 29.7842 48.7621 30.2534 48.4407 30.7348C52.5919 31.2562 52.5919 31.2562 56.5654 30.4532C57.4065 29.731 57.8786 28.821 58.3364 27.8253C58.6951 27.0941 59.1884 26.481 59.6868 25.8405C59.8716 25.5903 60.0557 25.3395 60.2391 25.0883C60.9553 24.1175 61.6905 23.1613 62.4243 22.2037C63.1283 21.2834 63.8215 20.3561 64.5066 19.4218C65.4041 18.1979 66.3209 16.9897 67.2441 15.785C67.948 14.8647 68.6412 13.9374 69.3264 13.0031C70.2239 11.7792 71.1406 10.571 72.0638 9.36629C72.7678 8.44602 73.461 7.51873 74.1461 6.58444C74.9716 5.45914 75.8097 4.34412 76.6564 3.23468C76.7649 3.09247 76.8735 2.95026 76.9853 2.80374C77.1851 2.54255 77.3854 2.28175 77.5863 2.02142C77.7904 1.7563 77.9914 1.48887 78.1915 1.22069C78.8147 0.511319 79.6445 0.15878 80.5674 0.00715771C81.7376 -0.0455586 82.6777 0.187461 83.625 0.887848C84.4656 1.75185 84.9529 2.66953 84.9805 3.88658C84.987 4.03944 84.9934 4.19231 85 4.34981C84.7772 5.71454 83.9281 6.81012 83.0727 7.85815C82.8713 8.1107 82.6703 8.36352 82.4696 8.61661C82.3677 8.74491 82.2658 8.87321 82.1608 9.0054C81.6778 9.62254 81.2154 10.2542 80.7532 10.887C79.9556 11.9765 79.1447 13.0547 78.3232 14.1264C77.5093 15.1886 76.7047 16.2566 75.9134 17.3358C75.0158 18.5597 74.0991 19.7679 73.1759 20.9726C72.472 21.8929 71.7787 22.8201 71.0936 23.7544C70.1961 24.9784 69.2793 26.1866 68.3561 27.3913C67.6522 28.3116 66.959 29.2388 66.2738 30.1731C65.4825 31.2523 64.6779 32.3203 63.864 33.3825C63.0038 34.5052 62.1528 35.634 61.3135 36.7724C61.2189 36.9007 61.1242 37.0291 61.0267 37.1613C60.6783 37.6354 60.3349 38.1082 60.0082 38.5977C59.5463 38.6516 59.118 38.6737 58.655 38.6761C58.5133 38.6786 58.3716 38.6812 58.2256 38.6838C57.7479 38.6918 57.2701 38.6963 56.7923 38.7007C56.4509 38.7056 56.1094 38.7106 55.768 38.7158C54.6435 38.7317 53.519 38.7423 52.3944 38.7519C52.2031 38.7536 52.0117 38.7553 51.8146 38.757C50.0093 38.7727 48.2041 38.7863 46.3988 38.7952C44.0906 38.8066 41.783 38.8282 39.475 38.8638C37.8519 38.8879 36.2289 38.9003 34.6056 38.9041C33.6364 38.9067 32.6678 38.9144 31.6988 38.9347C30.7854 38.9537 29.8732 38.9579 28.9597 38.9513C28.6258 38.9514 28.292 38.9566 27.9583 38.9676C25.5091 39.0438 25.5091 39.0438 24.6304 38.2965C23.9652 37.5641 23.4436 36.7568 22.9472 35.904C22.6739 35.4458 22.3643 35.0384 22.0325 34.6211C21.9353 34.4946 21.8382 34.3681 21.7381 34.2378C21.6431 34.1144 21.548 33.991 21.4501 33.8639C20.5415 32.6788 19.6483 31.4838 18.7653 30.2797C18.0646 29.3264 17.35 28.3843 16.6303 27.4452C15.722 26.2599 14.8286 25.0651 13.9456 23.861C13.2448 22.9077 12.5302 21.9656 11.8106 21.0265C10.9023 19.8412 10.0088 18.6465 9.12581 17.4423C8.42504 16.489 7.71047 15.5469 6.9908 14.6078C6.08343 13.4237 5.18958 12.2311 4.30922 11.0268C3.80616 10.3408 3.29504 9.66247 2.77289 8.99082C2.65764 8.84209 2.54239 8.69337 2.42364 8.54013C2.20224 8.25526 1.97974 7.97125 1.75591 7.68828C0.735121 6.37311 -0.0776727 5.15843 0.00591806 3.44906C0.184577 2.34035 0.641988 1.50182 1.52841 0.807614C2.80089 -0.0738602 4.29968 -0.242169 5.73566 0.376358ZM42.3357 6.82514C42.292 6.92189 42.2484 7.01865 42.2034 7.11834C41.6862 8.2121 41.0464 9.12794 40.2974 10.0746C40.0668 10.3711 39.8364 10.6678 39.6064 10.9647C39.4955 11.1075 39.3845 11.2504 39.2703 11.3975C38.8666 11.9239 38.4797 12.4605 38.0983 13.0031C37.3451 14.0702 36.5529 15.1034 35.7487 16.1322C36.015 16.7194 36.3759 17.2272 36.7528 17.7469C36.8227 17.8439 36.8925 17.9409 36.9645 18.0408C37.6513 18.9916 38.3463 19.9366 39.0457 20.8782C39.5532 21.5614 40.0545 22.2481 40.5471 22.9421C40.6482 23.0831 40.7494 23.2241 40.8535 23.3695C41.0484 23.6415 41.2417 23.9148 41.4331 24.1893C41.521 24.3112 41.6088 24.4331 41.6993 24.5587C41.8142 24.7211 41.8142 24.7211 41.9313 24.8869C42.1966 25.1921 42.1966 25.1921 42.8177 25.1184C43.1402 24.7574 43.4137 24.4087 43.6913 24.0152C43.7749 23.9002 43.8586 23.7852 43.9448 23.6667C44.2137 23.2962 44.4797 22.9236 44.7456 22.5509C44.9196 22.3097 45.0939 22.0686 45.2684 21.8276C45.5293 21.467 45.7902 21.1063 46.0502 20.7451C46.876 19.5988 47.7229 18.4689 48.5752 17.3422C48.7989 17.0464 49.0216 16.7499 49.244 16.4532C49.0276 15.9938 48.7817 15.5958 48.4784 15.1889C48.3895 15.069 48.3006 14.9492 48.209 14.8257C48.0652 14.6334 48.0652 14.6334 47.9186 14.4373C47.7146 14.1626 47.5107 13.8878 47.3067 13.613C47.0956 13.3295 46.8846 13.046 46.6735 12.7624C44.4778 9.8074 44.4778 9.8074 43.5808 8.5301C43.4706 8.37331 43.3605 8.21652 43.2469 8.05497C42.9944 7.65304 42.8161 7.2711 42.657 6.82514C42.551 6.82514 42.445 6.82514 42.3357 6.82514Z" fill="#BABABA"/>
</svg>
