<svg width="367" height="62" viewBox="0 0 367 62" fill="none" xmlns="http://www.w3.org/2000/svg">
  <path
    d="M38.01 35.59L39.06 25.86H38.64L35.63 33.7L25.2 51.97H22.12L11.13 33.63L8.05 25.86H7.7L9.1 35.52V61H0V12H8.75L21.84 34.4L24.15 40H24.43L26.53 34.26L38.92 12H47.6V61H38.01V35.59Z"
    fill="white" />
  <path
    d="M80.1363 50.15H65.0863L61.3763 61H51.7863L69.4263 11.65H76.4963L94.1363 61H84.0563L80.1363 50.15ZM67.5363 42.45H78.0363L74.3963 31.53L72.9263 23.83H72.5763L71.1063 31.6L67.5363 42.45Z"
    fill="white" />
  <path d="M125.879 40.49H107.959V61H98.3691V12H107.959V31.95H125.879V12H135.469V61H125.879V40.49Z" fill="white" />
  <path
    d="M173.78 40.07H171.26V61H161.67V12H171.26V33.7L173.5 32.72L187.01 12H197.93L183.65 32.58L179.87 35.24L183.79 37.97L200.1 61H188.27L173.78 40.07Z"
    fill="white" />
  <path
    d="M201.692 36.5C201.692 28.3334 203.489 22.0567 207.082 17.67C210.676 13.2367 215.809 11.02 222.482 11.02C225.982 11.02 229.039 11.6267 231.652 12.84C234.266 14.0534 236.436 15.78 238.162 18.02C239.889 20.26 241.172 22.9434 242.012 26.07C242.852 29.1967 243.272 32.6734 243.272 36.5C243.272 44.6667 241.452 50.9667 237.812 55.4C234.219 59.7867 229.109 61.98 222.482 61.98C218.936 61.98 215.856 61.3734 213.242 60.16C210.629 58.9467 208.459 57.22 206.732 54.98C205.052 52.74 203.792 50.0567 202.952 46.93C202.112 43.8034 201.692 40.3267 201.692 36.5ZM211.772 36.5C211.772 38.9734 211.982 41.26 212.402 43.36C212.822 45.4134 213.452 47.1867 214.292 48.68C215.179 50.1734 216.299 51.34 217.652 52.18C219.006 53.02 220.616 53.44 222.482 53.44C225.889 53.44 228.526 52.11 230.392 49.45C232.259 46.79 233.192 42.4734 233.192 36.5C233.192 34.12 232.982 31.9034 232.562 29.85C232.189 27.7967 231.582 26 230.742 24.46C229.902 22.92 228.806 21.73 227.452 20.89C226.099 20.0034 224.442 19.56 222.482 19.56C219.076 19.56 216.439 20.9367 214.572 23.69C212.706 26.3967 211.772 30.6667 211.772 36.5Z"
    fill="white" />
  <path
    d="M274.585 20.54H264.155C263.968 24.9734 263.758 29.01 263.525 32.65C263.292 36.29 262.965 39.58 262.545 42.52C262.172 45.4134 261.658 47.98 261.005 50.22C260.352 52.46 259.512 54.3967 258.485 56.03C257.832 57.1034 257.085 57.99 256.245 58.69C255.452 59.39 254.612 59.95 253.725 60.37C252.838 60.79 251.952 61.07 251.065 61.21C250.225 61.3967 249.432 61.49 248.685 61.49C247.612 61.49 246.702 61.3967 245.955 61.21C245.255 61.07 244.555 60.8367 243.855 60.51L244.905 52.25C245.185 52.3434 245.465 52.4134 245.745 52.46C246.025 52.5067 246.305 52.53 246.585 52.53C247.332 52.53 248.055 52.3434 248.755 51.97C249.502 51.5967 250.132 50.9667 250.645 50.08C251.345 49.0534 251.952 47.56 252.465 45.6C252.978 43.5934 253.422 41.05 253.795 37.97C254.215 34.89 254.542 31.2267 254.775 26.98C255.008 22.6867 255.172 17.6934 255.265 12H284.175V61H274.585V20.54Z"
    fill="white" />
  <path
    d="M308.958 33.63L310.358 40H310.778L311.898 33.42L319.248 12H329.118L316.098 45.88C315.071 48.54 314.068 50.85 313.088 52.81C312.155 54.77 311.128 56.4034 310.008 57.71C308.935 58.97 307.721 59.9267 306.368 60.58C305.015 61.1867 303.428 61.49 301.608 61.49C300.068 61.49 298.808 61.3734 297.828 61.14C296.895 60.9534 295.868 60.51 294.748 59.81L297.198 52.04C297.991 52.46 298.715 52.7167 299.368 52.81C300.021 52.9034 300.721 52.95 301.468 52.95C303.661 52.95 305.201 51.2234 306.088 47.77L287.748 12H299.018L308.958 33.63Z"
    fill="white" />
  <path
    d="M365.333 23.41C365.333 24.6234 365.17 25.8367 364.843 27.05C364.563 28.2634 364.073 29.3834 363.373 30.41C362.673 31.39 361.763 32.2767 360.643 33.07C359.523 33.8167 358.17 34.3767 356.583 34.75V35.17C357.983 35.4034 359.313 35.8 360.573 36.36C361.833 36.92 362.93 37.69 363.863 38.67C364.797 39.65 365.52 40.84 366.033 42.24C366.593 43.64 366.873 45.2967 366.873 47.21C366.873 49.73 366.337 51.9234 365.263 53.79C364.19 55.61 362.743 57.1034 360.923 58.27C359.15 59.4367 357.12 60.3 354.833 60.86C352.547 61.42 350.19 61.7 347.763 61.7C346.97 61.7 345.943 61.7 344.683 61.7C343.47 61.7 342.14 61.6534 340.693 61.56C339.293 61.5134 337.847 61.42 336.353 61.28C334.907 61.14 333.577 60.93 332.363 60.65V12.35C333.25 12.21 334.253 12.07 335.373 11.93C336.54 11.79 337.777 11.6734 339.083 11.58C340.39 11.4867 341.72 11.4167 343.073 11.37C344.473 11.3234 345.85 11.3 347.203 11.3C349.49 11.3 351.707 11.4867 353.853 11.86C356.047 12.1867 357.983 12.7934 359.663 13.68C361.39 14.5667 362.767 15.8034 363.793 17.39C364.82 18.9767 365.333 20.9834 365.333 23.41ZM347.833 53.79C349 53.79 350.12 53.65 351.193 53.37C352.313 53.09 353.293 52.67 354.133 52.11C354.973 51.5034 355.65 50.7567 356.163 49.87C356.677 48.9834 356.933 47.9334 356.933 46.72C356.933 45.18 356.63 43.9667 356.023 43.08C355.417 42.1934 354.623 41.5167 353.643 41.05C352.663 40.5367 351.567 40.21 350.353 40.07C349.14 39.93 347.927 39.86 346.713 39.86H341.603V53.37C341.837 53.4634 342.21 53.5334 342.723 53.58C343.237 53.6267 343.773 53.6734 344.333 53.72C344.94 53.72 345.547 53.7434 346.153 53.79C346.807 53.79 347.367 53.79 347.833 53.79ZM344.683 32.58C345.337 32.58 346.083 32.5567 346.923 32.51C347.81 32.4634 348.533 32.3934 349.093 32.3C350.867 31.74 352.383 30.9 353.643 29.78C354.95 28.66 355.603 27.19 355.603 25.37C355.603 24.1567 355.37 23.1534 354.903 22.36C354.437 21.5667 353.807 20.9367 353.013 20.47C352.267 20.0034 351.403 19.6767 350.423 19.49C349.443 19.3034 348.417 19.21 347.343 19.21C346.13 19.21 345.01 19.2334 343.983 19.28C342.957 19.3267 342.163 19.3967 341.603 19.49V32.58H344.683Z"
    fill="white" />
  <path d="M80.6603 0H65.6603V7H80.6603V0Z" fill="white" />
</svg>