<svg width="390" height="23" viewBox="0 0 390 23" fill="none" xmlns="http://www.w3.org/2000/svg">
  <rect x="-1.19141" y="13.9731" width="4.78842" height="3.85135" transform="rotate(45 -1.19141 13.9731)"
    fill="white" />
  <rect x="5.53906" y="13.979" width="4.46155" height="3.85135" transform="rotate(45 5.53906 13.979)" fill="white" />
  <rect x="-1.19141" y="8.53223" width="3.85135" height="3.85135" transform="rotate(45 -1.19141 8.53223)"
    fill="white" />
  <rect x="2.8125" y="16.6938" width="3.85135" height="4.76104" transform="rotate(45 2.8125 16.6938)" fill="white" />
  <rect x="10.9766" y="13.979" width="3.85135" height="3.85135" transform="rotate(45 10.9766 13.979)" fill="white" />
  <rect x="16.4141" y="13.9761" width="4.89296" height="3.85135" transform="rotate(45 16.4141 13.9761)" fill="white" />
  <rect x="23.2891" y="13.9731" width="4.78842" height="3.85135" transform="rotate(45 23.2891 13.9731)" fill="white" />
  <rect x="30.0195" y="13.979" width="4.46155" height="3.85135" transform="rotate(45 30.0195 13.979)" fill="white" />
  <rect x="10.9727" y="8.5332" width="3.85135" height="3.85135" transform="rotate(45 10.9727 8.5332)" fill="white" />
  <rect x="23.2891" y="8.5332" width="3.85135" height="3.85135" transform="rotate(45 23.2891 8.5332)" fill="white" />
  <rect x="13.6914" y="5.81201" width="3.85135" height="3.85135" transform="rotate(45 13.6914 5.81201)" fill="white" />
  <rect x="8.25" y="5.81201" width="3.85135" height="3.85135" transform="rotate(45 8.25 5.81201)" fill="white" />
  <rect x="5.5293" y="3.0918" width="3.85135" height="3.85135" transform="rotate(45 5.5293 3.0918)" fill="white" />
  <rect x="8.25" y="0.371582" width="3.85135" height="3.85135" transform="rotate(45 8.25 0.371582)" fill="white" />
  <rect x="16.4102" y="3.0918" width="3.85135" height="3.85135" transform="rotate(45 16.4102 3.0918)" fill="white" />
  <rect x="13.6914" y="0.371582" width="3.85135" height="3.85135" transform="rotate(45 13.6914 0.371582)"
    fill="white" />
  <rect x="19.1328" y="0.371582" width="3.85135" height="3.85135" transform="rotate(45 19.1328 0.371582)"
    fill="white" />
  <rect x="2.80859" y="0.371582" width="3.85135" height="3.85135" transform="rotate(45 2.80859 0.371582)"
    fill="white" />
  <rect x="8.25" y="16.6934" width="3.85135" height="3.85135" transform="rotate(45 8.25 16.6934)" fill="white" />
  <rect x="13.6914" y="16.6934" width="3.85135" height="3.85135" transform="rotate(45 13.6914 16.6934)" fill="white" />
  <rect x="20.8047" y="16.457" width="3.9149" height="5.20086" transform="rotate(45 20.8047 16.457)" fill="white" />
  <rect x="27.293" y="16.6934" width="3.85135" height="4.76104" transform="rotate(45 27.293 16.6934)" fill="white" />
  <rect x="-1.31836" y="13.8506" width="4.78842" height="3.85135" transform="rotate(45 -1.31836 13.8506)"
    fill="white" />
  <rect x="5.41016" y="13.8569" width="4.46155" height="3.85135" transform="rotate(45 5.41016 13.8569)" fill="white" />
  <rect x="-1.31836" y="8.41016" width="3.85135" height="3.85135" transform="rotate(45 -1.31836 8.41016)"
    fill="white" />
  <rect x="2.68555" y="16.5718" width="3.85135" height="4.76104" transform="rotate(45 2.68555 16.5718)" fill="white" />
  <rect x="41.0156" y="13.9761" width="4.89296" height="3.85135" transform="rotate(45 41.0156 13.9761)" fill="white" />
  <rect x="47.8906" y="13.9731" width="4.78842" height="3.85135" transform="rotate(45 47.8906 13.9731)" fill="white" />
  <rect x="54.6211" y="13.979" width="4.46155" height="3.85135" transform="rotate(45 54.6211 13.979)" fill="white" />
  <rect x="47.8906" y="8.5332" width="3.85135" height="3.85135" transform="rotate(45 47.8906 8.5332)" fill="white" />
  <rect x="45.4062" y="16.457" width="3.9149" height="5.20086" transform="rotate(45 45.4062 16.457)" fill="white" />
  <rect x="51.8945" y="16.6934" width="3.85135" height="4.76104" transform="rotate(45 51.8945 16.6934)" fill="white" />
  <rect x="35.5859" y="13.979" width="3.85135" height="3.85135" transform="rotate(45 35.5859 13.979)" fill="white" />
  <rect x="35.5781" y="8.5332" width="3.85135" height="3.85135" transform="rotate(45 35.5781 8.5332)" fill="white" />
  <rect x="38.2969" y="5.81201" width="3.85135" height="3.85135" transform="rotate(45 38.2969 5.81201)" fill="white" />
  <rect x="32.8555" y="5.81201" width="3.85135" height="3.85135" transform="rotate(45 32.8555 5.81201)" fill="white" />
  <rect x="30.1367" y="3.0918" width="3.85135" height="3.85135" transform="rotate(45 30.1367 3.0918)" fill="white" />
  <rect x="32.8555" y="0.371582" width="3.85135" height="3.85135" transform="rotate(45 32.8555 0.371582)"
    fill="white" />
  <rect x="41.0156" y="3.0918" width="3.85135" height="3.85135" transform="rotate(45 41.0156 3.0918)" fill="white" />
  <rect x="38.2969" y="0.371582" width="3.85135" height="3.85135" transform="rotate(45 38.2969 0.371582)"
    fill="white" />
  <rect x="43.7383" y="0.371582" width="3.85135" height="3.85135" transform="rotate(45 43.7383 0.371582)"
    fill="white" />
  <rect x="27.4141" y="0.371582" width="3.85135" height="3.85135" transform="rotate(45 27.4141 0.371582)"
    fill="white" />
  <rect x="32.8555" y="16.6934" width="3.85135" height="3.9422" transform="rotate(45 32.8555 16.6934)" fill="white" />
  <rect x="38.2969" y="16.6934" width="3.85135" height="3.85135" transform="rotate(45 38.2969 16.6934)" fill="white" />
  <rect x="60.0586" y="13.979" width="3.85135" height="3.85135" transform="rotate(45 60.0586 13.979)" fill="white" />
  <rect x="65.4961" y="13.9761" width="4.89296" height="3.85135" transform="rotate(45 65.4961 13.9761)" fill="white" />
  <rect x="72.375" y="13.9731" width="4.78842" height="3.85135" transform="rotate(45 72.375 13.9731)" fill="white" />
  <rect x="79.1055" y="13.979" width="4.46155" height="3.85135" transform="rotate(45 79.1055 13.979)" fill="white" />
  <rect x="60.0547" y="8.5332" width="3.85135" height="3.85135" transform="rotate(45 60.0547 8.5332)" fill="white" />
  <rect x="72.375" y="8.5332" width="3.85135" height="3.85135" transform="rotate(45 72.375 8.5332)" fill="white" />
  <rect x="62.7734" y="5.81201" width="3.85135" height="3.85135" transform="rotate(45 62.7734 5.81201)" fill="white" />
  <rect x="57.3359" y="5.8125" width="3.85135" height="3.85135" transform="rotate(45 57.3359 5.8125)" fill="white" />
  <rect x="54.6133" y="3.0918" width="3.85135" height="3.85135" transform="rotate(45 54.6133 3.0918)" fill="white" />
  <rect x="57.3359" y="0.371582" width="3.85135" height="3.85135" transform="rotate(45 57.3359 0.371582)"
    fill="white" />
  <rect x="65.4961" y="3.0918" width="3.85135" height="3.85135" transform="rotate(45 65.4961 3.0918)" fill="white" />
  <rect x="62.7734" y="0.371582" width="3.85135" height="3.85135" transform="rotate(45 62.7734 0.371582)"
    fill="white" />
  <rect x="68.2148" y="0.371582" width="3.85135" height="3.85135" transform="rotate(45 68.2148 0.371582)"
    fill="white" />
  <rect x="51.8906" y="0.371582" width="3.85135" height="3.85135" transform="rotate(45 51.8906 0.371582)"
    fill="white" />
  <rect x="57.3359" y="16.6938" width="3.85135" height="3.85135" transform="rotate(45 57.3359 16.6938)" fill="white" />
  <rect x="62.7734" y="16.6934" width="3.85135" height="3.85135" transform="rotate(45 62.7734 16.6934)" fill="white" />
  <rect x="69.8867" y="16.457" width="3.9149" height="5.20086" transform="rotate(45 69.8867 16.457)" fill="white" />
  <rect x="76.375" y="16.6934" width="3.85135" height="4.76104" transform="rotate(45 76.375 16.6934)" fill="white" />
  <rect x="40.8867" y="13.854" width="4.89296" height="3.85135" transform="rotate(45 40.8867 13.854)" fill="white" />
  <rect x="47.7656" y="13.8511" width="4.78842" height="3.85135" transform="rotate(45 47.7656 13.8511)" fill="white" />
  <rect x="54.4922" y="13.8569" width="4.46155" height="3.85135" transform="rotate(45 54.4922 13.8569)" fill="white" />
  <rect x="47.7656" y="8.41064" width="3.85135" height="3.85135" transform="rotate(45 47.7656 8.41064)" fill="white" />
  <rect x="45.2812" y="16.3354" width="3.9149" height="5.20086" transform="rotate(45 45.2812 16.3354)" fill="white" />
  <rect x="51.7695" y="16.5718" width="3.85135" height="4.76104" transform="rotate(45 51.7695 16.5718)" fill="white" />
  <rect x="90.1016" y="13.9761" width="4.89296" height="3.85135" transform="rotate(45 90.1016 13.9761)" fill="white" />
  <rect x="96.9766" y="13.9731" width="4.78842" height="3.85135" transform="rotate(45 96.9766 13.9731)" fill="white" />
  <rect x="103.707" y="13.979" width="4.46155" height="3.85135" transform="rotate(45 103.707 13.979)" fill="white" />
  <rect x="96.9766" y="8.5332" width="3.85135" height="3.85135" transform="rotate(45 96.9766 8.5332)" fill="white" />
  <rect x="94.4922" y="16.457" width="3.9149" height="5.20086" transform="rotate(45 94.4922 16.457)" fill="white" />
  <rect x="100.98" y="16.6934" width="3.85135" height="4.76104" transform="rotate(45 100.98 16.6934)" fill="white" />
  <rect x="84.668" y="13.979" width="3.85135" height="3.85135" transform="rotate(45 84.668 13.979)" fill="white" />
  <rect x="84.6602" y="8.5332" width="3.85135" height="3.85135" transform="rotate(45 84.6602 8.5332)" fill="white" />
  <rect x="87.3828" y="5.81201" width="3.85135" height="3.85135" transform="rotate(45 87.3828 5.81201)" fill="white" />
  <rect x="81.9414" y="5.81201" width="3.85135" height="3.85135" transform="rotate(45 81.9414 5.81201)" fill="white" />
  <rect x="79.2227" y="3.0918" width="3.85135" height="3.85135" transform="rotate(45 79.2227 3.0918)" fill="white" />
  <rect x="81.9414" y="0.371582" width="3.85135" height="3.85135" transform="rotate(45 81.9414 0.371582)"
    fill="white" />
  <rect x="90.1016" y="3.0918" width="3.85135" height="3.85135" transform="rotate(45 90.1016 3.0918)" fill="white" />
  <rect x="87.3828" y="0.371582" width="3.85135" height="3.85135" transform="rotate(45 87.3828 0.371582)"
    fill="white" />
  <rect x="92.8203" y="0.371582" width="3.85135" height="3.85135" transform="rotate(45 92.8203 0.371582)"
    fill="white" />
  <rect x="76.5" y="0.371582" width="3.85135" height="3.85135" transform="rotate(45 76.5 0.371582)" fill="white" />
  <rect x="81.9414" y="16.6934" width="3.85135" height="3.9422" transform="rotate(45 81.9414 16.6934)" fill="white" />
  <rect x="87.3828" y="16.6934" width="3.85135" height="3.85135" transform="rotate(45 87.3828 16.6934)" fill="white" />
  <rect x="109.137" y="13.979" width="3.85135" height="3.85135" transform="rotate(45 109.137 13.979)" fill="white" />
  <rect x="114.578" y="13.9761" width="4.89296" height="3.85135" transform="rotate(45 114.578 13.9761)" fill="white" />
  <rect x="121.453" y="13.9731" width="4.78842" height="3.85135" transform="rotate(45 121.453 13.9731)" fill="white" />
  <rect x="128.184" y="13.979" width="4.46155" height="3.85135" transform="rotate(45 128.184 13.979)" fill="white" />
  <rect x="109.133" y="8.53223" width="3.85135" height="3.85135" transform="rotate(45 109.133 8.53223)" fill="white" />
  <rect x="121.453" y="8.53223" width="3.85135" height="3.85135" transform="rotate(45 121.453 8.53223)" fill="white" />
  <rect x="111.852" y="5.81201" width="3.85135" height="3.85135" transform="rotate(45 111.852 5.81201)" fill="white" />
  <rect x="106.414" y="5.81201" width="3.85135" height="3.85135" transform="rotate(45 106.414 5.81201)" fill="white" />
  <rect x="103.691" y="3.0918" width="3.85135" height="3.85135" transform="rotate(45 103.691 3.0918)" fill="white" />
  <rect x="106.414" y="0.371582" width="3.85135" height="3.85135" transform="rotate(45 106.414 0.371582)"
    fill="white" />
  <rect x="114.574" y="3.0918" width="3.85135" height="3.85135" transform="rotate(45 114.574 3.0918)" fill="white" />
  <rect x="111.852" y="0.371582" width="3.85135" height="3.85135" transform="rotate(45 111.852 0.371582)"
    fill="white" />
  <rect x="117.293" y="0.371582" width="3.85135" height="3.85135" transform="rotate(45 117.293 0.371582)"
    fill="white" />
  <rect x="100.969" y="0.371582" width="3.85135" height="3.85135" transform="rotate(45 100.969 0.371582)"
    fill="white" />
  <rect x="106.414" y="16.6938" width="3.85135" height="3.85135" transform="rotate(45 106.414 16.6938)" fill="white" />
  <rect x="111.852" y="16.6938" width="3.85135" height="3.85135" transform="rotate(45 111.852 16.6938)" fill="white" />
  <rect x="118.965" y="16.457" width="3.9149" height="5.20086" transform="rotate(45 118.965 16.457)" fill="white" />
  <rect x="125.457" y="16.6938" width="3.85135" height="4.76104" transform="rotate(45 125.457 16.6938)" fill="white" />
  <rect x="89.9648" y="13.8535" width="4.89296" height="3.85135" transform="rotate(45 89.9648 13.8535)" fill="white" />
  <rect x="96.8438" y="13.8511" width="4.78842" height="3.85135" transform="rotate(45 96.8438 13.8511)" fill="white" />
  <rect x="103.57" y="13.8564" width="4.46155" height="3.85135" transform="rotate(45 103.57 13.8564)" fill="white" />
  <rect x="96.8438" y="8.41016" width="3.85135" height="3.85135" transform="rotate(45 96.8438 8.41016)" fill="white" />
  <rect x="94.3594" y="16.335" width="3.9149" height="5.20086" transform="rotate(45 94.3594 16.335)" fill="white" />
  <rect x="100.848" y="16.5718" width="3.85135" height="4.76104" transform="rotate(45 100.848 16.5718)" fill="white" />
  <rect x="139.18" y="13.9761" width="4.89296" height="3.85135" transform="rotate(45 139.18 13.9761)" fill="white" />
  <rect x="146.055" y="13.9731" width="4.78842" height="3.85135" transform="rotate(45 146.055 13.9731)" fill="white" />
  <rect x="152.785" y="13.979" width="4.46155" height="3.85135" transform="rotate(45 152.785 13.979)" fill="white" />
  <rect x="146.055" y="8.53223" width="3.85135" height="3.85135" transform="rotate(45 146.055 8.53223)" fill="white" />
  <rect x="143.57" y="16.457" width="3.9149" height="5.20086" transform="rotate(45 143.57 16.457)" fill="white" />
  <rect x="150.059" y="16.6938" width="3.85135" height="4.76104" transform="rotate(45 150.059 16.6938)" fill="white" />
  <rect x="133.746" y="13.979" width="3.85135" height="3.85135" transform="rotate(45 133.746 13.979)" fill="white" />
  <rect x="133.738" y="8.53223" width="3.85135" height="3.85135" transform="rotate(45 133.738 8.53223)" fill="white" />
  <rect x="136.461" y="5.81201" width="3.85135" height="3.85135" transform="rotate(45 136.461 5.81201)" fill="white" />
  <rect x="131.02" y="5.81201" width="3.85135" height="3.85135" transform="rotate(45 131.02 5.81201)" fill="white" />
  <rect x="128.301" y="3.0918" width="3.85135" height="3.85135" transform="rotate(45 128.301 3.0918)" fill="white" />
  <rect x="131.02" y="0.371582" width="3.85135" height="3.85135" transform="rotate(45 131.02 0.371582)" fill="white" />
  <rect x="139.18" y="3.0918" width="3.85135" height="3.85135" transform="rotate(45 139.18 3.0918)" fill="white" />
  <rect x="136.461" y="0.371582" width="3.85135" height="3.85135" transform="rotate(45 136.461 0.371582)"
    fill="white" />
  <rect x="141.898" y="0.371582" width="3.85135" height="3.85135" transform="rotate(45 141.898 0.371582)"
    fill="white" />
  <rect x="125.578" y="0.371582" width="3.85135" height="3.85135" transform="rotate(45 125.578 0.371582)"
    fill="white" />
  <rect x="131.02" y="16.6938" width="3.85135" height="3.9422" transform="rotate(45 131.02 16.6938)" fill="white" />
  <rect x="136.461" y="16.6938" width="3.85135" height="3.85135" transform="rotate(45 136.461 16.6938)" fill="white" />
  <rect x="158.223" y="13.979" width="3.85135" height="3.85135" transform="rotate(45 158.223 13.979)" fill="white" />
  <rect x="163.664" y="13.9761" width="4.89296" height="3.85135" transform="rotate(45 163.664 13.9761)" fill="white" />
  <rect x="170.539" y="13.9731" width="4.78842" height="3.85135" transform="rotate(45 170.539 13.9731)" fill="white" />
  <rect x="177.27" y="13.979" width="4.46155" height="3.85135" transform="rotate(45 177.27 13.979)" fill="white" />
  <rect x="158.219" y="8.5332" width="3.85135" height="3.85135" transform="rotate(45 158.219 8.5332)" fill="white" />
  <rect x="170.539" y="8.5332" width="3.85135" height="3.85135" transform="rotate(45 170.539 8.5332)" fill="white" />
  <rect x="160.938" y="5.8125" width="3.85135" height="3.85135" transform="rotate(45 160.938 5.8125)" fill="white" />
  <rect x="155.5" y="5.8125" width="3.85135" height="3.85135" transform="rotate(45 155.5 5.8125)" fill="white" />
  <rect x="152.777" y="3.0918" width="3.85135" height="3.85135" transform="rotate(45 152.777 3.0918)" fill="white" />
  <rect x="155.5" y="0.371582" width="3.85135" height="3.85135" transform="rotate(45 155.5 0.371582)" fill="white" />
  <rect x="163.66" y="3.0918" width="3.85135" height="3.85135" transform="rotate(45 163.66 3.0918)" fill="white" />
  <rect x="160.938" y="0.371582" width="3.85135" height="3.85135" transform="rotate(45 160.938 0.371582)"
    fill="white" />
  <rect x="166.379" y="0.371582" width="3.85135" height="3.85135" transform="rotate(45 166.379 0.371582)"
    fill="white" />
  <rect x="150.055" y="0.371582" width="3.85135" height="3.85135" transform="rotate(45 150.055 0.371582)"
    fill="white" />
  <rect x="155.5" y="16.6938" width="3.85135" height="3.85135" transform="rotate(45 155.5 16.6938)" fill="white" />
  <rect x="160.938" y="16.6938" width="3.85135" height="3.85135" transform="rotate(45 160.938 16.6938)" fill="white" />
  <rect x="168.051" y="16.457" width="3.9149" height="5.20086" transform="rotate(45 168.051 16.457)" fill="white" />
  <rect x="174.543" y="16.6938" width="3.85135" height="4.76104" transform="rotate(45 174.543 16.6938)" fill="white" />
  <rect x="139.051" y="13.854" width="4.89296" height="3.85135" transform="rotate(45 139.051 13.854)" fill="white" />
  <rect x="145.93" y="13.8511" width="4.78842" height="3.85135" transform="rotate(45 145.93 13.8511)" fill="white" />
  <rect x="152.656" y="13.8569" width="4.46155" height="3.85135" transform="rotate(45 152.656 13.8569)" fill="white" />
  <rect x="145.93" y="8.41064" width="3.85135" height="3.85135" transform="rotate(45 145.93 8.41064)" fill="white" />
  <rect x="143.445" y="16.335" width="3.9149" height="5.20086" transform="rotate(45 143.445 16.335)" fill="white" />
  <rect x="149.934" y="16.5718" width="3.85135" height="4.76104" transform="rotate(45 149.934 16.5718)" fill="white" />
  <rect x="188.266" y="13.9761" width="4.89296" height="3.85135" transform="rotate(45 188.266 13.9761)" fill="white" />
  <rect x="195.141" y="13.9731" width="4.78842" height="3.85135" transform="rotate(45 195.141 13.9731)" fill="white" />
  <rect x="201.871" y="13.979" width="4.46155" height="3.85135" transform="rotate(45 201.871 13.979)" fill="white" />
  <rect x="195.141" y="8.5332" width="3.85135" height="3.85135" transform="rotate(45 195.141 8.5332)" fill="white" />
  <rect x="192.656" y="16.457" width="3.9149" height="5.20086" transform="rotate(45 192.656 16.457)" fill="white" />
  <rect x="199.145" y="16.6938" width="3.85135" height="4.76104" transform="rotate(45 199.145 16.6938)" fill="white" />
  <rect x="182.832" y="13.979" width="3.85135" height="3.85135" transform="rotate(45 182.832 13.979)" fill="white" />
  <rect x="182.824" y="8.5332" width="3.85135" height="3.85135" transform="rotate(45 182.824 8.5332)" fill="white" />
  <rect x="185.547" y="5.8125" width="3.85135" height="3.85135" transform="rotate(45 185.547 5.8125)" fill="white" />
  <rect x="180.105" y="5.8125" width="3.85135" height="3.85135" transform="rotate(45 180.105 5.8125)" fill="white" />
  <rect x="177.387" y="3.0918" width="3.85135" height="3.85135" transform="rotate(45 177.387 3.0918)" fill="white" />
  <rect x="180.105" y="0.371582" width="3.85135" height="3.85135" transform="rotate(45 180.105 0.371582)"
    fill="white" />
  <rect x="188.266" y="3.0918" width="3.85135" height="3.85135" transform="rotate(45 188.266 3.0918)" fill="white" />
  <rect x="185.547" y="0.371582" width="3.85135" height="3.85135" transform="rotate(45 185.547 0.371582)"
    fill="white" />
  <rect x="190.984" y="0.371582" width="3.85135" height="3.85135" transform="rotate(45 190.984 0.371582)"
    fill="white" />
  <rect x="174.664" y="0.371582" width="3.85135" height="3.85135" transform="rotate(45 174.664 0.371582)"
    fill="white" />
  <rect x="180.105" y="16.6938" width="3.85135" height="3.9422" transform="rotate(45 180.105 16.6938)" fill="white" />
  <rect x="185.547" y="16.6938" width="3.85135" height="3.85135" transform="rotate(45 185.547 16.6938)" fill="white" />
  <rect x="207.305" y="13.979" width="3.85135" height="3.85135" transform="rotate(45 207.305 13.979)" fill="white" />
  <rect x="212.746" y="13.9761" width="4.89296" height="3.85135" transform="rotate(45 212.746 13.9761)" fill="white" />
  <rect x="219.621" y="13.9731" width="4.78842" height="3.85135" transform="rotate(45 219.621 13.9731)" fill="white" />
  <rect x="226.352" y="13.979" width="4.46155" height="3.85135" transform="rotate(45 226.352 13.979)" fill="white" />
  <rect x="207.301" y="8.53271" width="3.85135" height="3.85135" transform="rotate(45 207.301 8.53271)" fill="white" />
  <rect x="219.621" y="8.53271" width="3.85135" height="3.85135" transform="rotate(45 219.621 8.53271)" fill="white" />
  <rect x="210.02" y="5.8125" width="3.85135" height="3.85135" transform="rotate(45 210.02 5.8125)" fill="white" />
  <rect x="204.582" y="5.8125" width="3.85135" height="3.85135" transform="rotate(45 204.582 5.8125)" fill="white" />
  <rect x="201.859" y="3.0918" width="3.85135" height="3.85135" transform="rotate(45 201.859 3.0918)" fill="white" />
  <rect x="204.582" y="0.371094" width="3.85135" height="3.85135" transform="rotate(45 204.582 0.371094)"
    fill="white" />
  <rect x="212.742" y="3.0918" width="3.85135" height="3.85135" transform="rotate(45 212.742 3.0918)" fill="white" />
  <rect x="210.02" y="0.371094" width="3.85135" height="3.85135" transform="rotate(45 210.02 0.371094)" fill="white" />
  <rect x="215.461" y="0.371094" width="3.85135" height="3.85135" transform="rotate(45 215.461 0.371094)"
    fill="white" />
  <rect x="199.137" y="0.371094" width="3.85135" height="3.85135" transform="rotate(45 199.137 0.371094)"
    fill="white" />
  <rect x="204.582" y="16.6938" width="3.85135" height="3.85135" transform="rotate(45 204.582 16.6938)" fill="white" />
  <rect x="210.02" y="16.6938" width="3.85135" height="3.85135" transform="rotate(45 210.02 16.6938)" fill="white" />
  <rect x="217.133" y="16.4565" width="3.9149" height="5.20086" transform="rotate(45 217.133 16.4565)" fill="white" />
  <rect x="223.625" y="16.6938" width="3.85135" height="4.76104" transform="rotate(45 223.625 16.6938)" fill="white" />
  <rect x="188.133" y="13.854" width="4.89296" height="3.85135" transform="rotate(45 188.133 13.854)" fill="white" />
  <rect x="195.012" y="13.8511" width="4.78842" height="3.85135" transform="rotate(45 195.012 13.8511)" fill="white" />
  <rect x="201.738" y="13.8569" width="4.46155" height="3.85135" transform="rotate(45 201.738 13.8569)" fill="white" />
  <rect x="195.012" y="8.41016" width="3.85135" height="3.85135" transform="rotate(45 195.012 8.41016)" fill="white" />
  <rect x="192.527" y="16.335" width="3.9149" height="5.20086" transform="rotate(45 192.527 16.335)" fill="white" />
  <rect x="199.016" y="16.5713" width="3.85135" height="4.76104" transform="rotate(45 199.016 16.5713)" fill="white" />
  <rect x="237.348" y="13.9761" width="4.89296" height="3.85135" transform="rotate(45 237.348 13.9761)" fill="white" />
  <rect x="244.223" y="13.9731" width="4.78842" height="3.85135" transform="rotate(45 244.223 13.9731)" fill="white" />
  <rect x="250.953" y="13.979" width="4.46155" height="3.85135" transform="rotate(45 250.953 13.979)" fill="white" />
  <rect x="244.223" y="8.53271" width="3.85135" height="3.85135" transform="rotate(45 244.223 8.53271)" fill="white" />
  <rect x="241.738" y="16.4565" width="3.9149" height="5.20086" transform="rotate(45 241.738 16.4565)" fill="white" />
  <rect x="248.227" y="16.6938" width="3.85135" height="4.76104" transform="rotate(45 248.227 16.6938)" fill="white" />
  <rect x="231.914" y="13.979" width="3.85135" height="3.85135" transform="rotate(45 231.914 13.979)" fill="white" />
  <rect x="231.906" y="8.53271" width="3.85135" height="3.85135" transform="rotate(45 231.906 8.53271)" fill="white" />
  <rect x="234.629" y="5.8125" width="3.85135" height="3.85135" transform="rotate(45 234.629 5.8125)" fill="white" />
  <rect x="229.188" y="5.8125" width="3.85135" height="3.85135" transform="rotate(45 229.188 5.8125)" fill="white" />
  <rect x="226.469" y="3.0918" width="3.85135" height="3.85135" transform="rotate(45 226.469 3.0918)" fill="white" />
  <rect x="229.188" y="0.371094" width="3.85135" height="3.85135" transform="rotate(45 229.188 0.371094)"
    fill="white" />
  <rect x="237.348" y="3.0918" width="3.85135" height="3.85135" transform="rotate(45 237.348 3.0918)" fill="white" />
  <rect x="234.629" y="0.371094" width="3.85135" height="3.85135" transform="rotate(45 234.629 0.371094)"
    fill="white" />
  <rect x="240.066" y="0.371094" width="3.85135" height="3.85135" transform="rotate(45 240.066 0.371094)"
    fill="white" />
  <rect x="223.746" y="0.371094" width="3.85135" height="3.85135" transform="rotate(45 223.746 0.371094)"
    fill="white" />
  <rect x="229.188" y="16.6938" width="3.85135" height="3.9422" transform="rotate(45 229.188 16.6938)" fill="white" />
  <rect x="234.629" y="16.6938" width="3.85135" height="3.85135" transform="rotate(45 234.629 16.6938)" fill="white" />
  <rect x="256.391" y="13.979" width="3.85135" height="3.85135" transform="rotate(45 256.391 13.979)" fill="white" />
  <rect x="261.828" y="13.9761" width="4.89296" height="3.85135" transform="rotate(45 261.828 13.9761)" fill="white" />
  <rect x="268.703" y="13.9731" width="4.78842" height="3.85135" transform="rotate(45 268.703 13.9731)" fill="white" />
  <rect x="275.438" y="13.979" width="4.46155" height="3.85135" transform="rotate(45 275.438 13.979)" fill="white" />
  <rect x="256.387" y="8.53174" width="3.85135" height="3.85135" transform="rotate(45 256.387 8.53174)" fill="white" />
  <rect x="268.703" y="8.53174" width="3.85135" height="3.85135" transform="rotate(45 268.703 8.53174)" fill="white" />
  <rect x="259.105" y="5.81201" width="3.85135" height="3.85135" transform="rotate(45 259.105 5.81201)" fill="white" />
  <rect x="253.668" y="5.81201" width="3.85135" height="3.85135" transform="rotate(45 253.668 5.81201)" fill="white" />
  <rect x="250.945" y="3.0918" width="3.85135" height="3.85135" transform="rotate(45 250.945 3.0918)" fill="white" />
  <rect x="253.668" y="0.371094" width="3.85135" height="3.85135" transform="rotate(45 253.668 0.371094)"
    fill="white" />
  <rect x="261.828" y="3.09131" width="3.85135" height="3.85135" transform="rotate(45 261.828 3.09131)" fill="white" />
  <rect x="259.105" y="0.371094" width="3.85135" height="3.85135" transform="rotate(45 259.105 0.371094)"
    fill="white" />
  <rect x="264.547" y="0.371094" width="3.85135" height="3.85135" transform="rotate(45 264.547 0.371094)"
    fill="white" />
  <rect x="248.223" y="0.371094" width="3.85135" height="3.85135" transform="rotate(45 248.223 0.371094)"
    fill="white" />
  <rect x="253.668" y="16.6938" width="3.85135" height="3.85135" transform="rotate(45 253.668 16.6938)" fill="white" />
  <rect x="259.105" y="16.6934" width="3.85135" height="3.85135" transform="rotate(45 259.105 16.6934)" fill="white" />
  <rect x="266.219" y="16.4565" width="3.9149" height="5.20086" transform="rotate(45 266.219 16.4565)" fill="white" />
  <rect x="272.707" y="16.6934" width="3.85135" height="4.76104" transform="rotate(45 272.707 16.6934)" fill="white" />
  <rect x="237.219" y="13.854" width="4.89296" height="3.85135" transform="rotate(45 237.219 13.854)" fill="white" />
  <rect x="244.098" y="13.8511" width="4.78842" height="3.85135" transform="rotate(45 244.098 13.8511)" fill="white" />
  <rect x="250.824" y="13.8569" width="4.46155" height="3.85135" transform="rotate(45 250.824 13.8569)" fill="white" />
  <rect x="244.098" y="8.40967" width="3.85135" height="3.85135" transform="rotate(45 244.098 8.40967)" fill="white" />
  <rect x="241.613" y="16.3354" width="3.9149" height="5.20086" transform="rotate(45 241.613 16.3354)" fill="white" />
  <rect x="248.102" y="16.5713" width="3.85135" height="4.76104" transform="rotate(45 248.102 16.5713)" fill="white" />
  <rect x="286.434" y="13.9761" width="4.89296" height="3.85135" transform="rotate(45 286.434 13.9761)" fill="white" />
  <rect x="293.309" y="13.9731" width="4.78842" height="3.85135" transform="rotate(45 293.309 13.9731)" fill="white" />
  <rect x="300.039" y="13.979" width="4.46155" height="3.85135" transform="rotate(45 300.039 13.979)" fill="white" />
  <rect x="293.309" y="8.53174" width="3.85135" height="3.85135" transform="rotate(45 293.309 8.53174)" fill="white" />
  <rect x="290.824" y="16.4565" width="3.9149" height="5.20086" transform="rotate(45 290.824 16.4565)" fill="white" />
  <rect x="297.312" y="16.6934" width="3.85135" height="4.76104" transform="rotate(45 297.312 16.6934)" fill="white" />
  <rect x="281" y="13.979" width="3.85135" height="3.85135" transform="rotate(45 281 13.979)" fill="white" />
  <rect x="280.992" y="8.53174" width="3.85135" height="3.85135" transform="rotate(45 280.992 8.53174)" fill="white" />
  <rect x="283.715" y="5.81201" width="3.85135" height="3.85135" transform="rotate(45 283.715 5.81201)" fill="white" />
  <rect x="278.27" y="5.81201" width="3.85135" height="3.85135" transform="rotate(45 278.27 5.81201)" fill="white" />
  <rect x="275.551" y="3.09131" width="3.85135" height="3.85135" transform="rotate(45 275.551 3.09131)" fill="white" />
  <rect x="278.27" y="0.371094" width="3.85135" height="3.85135" transform="rotate(45 278.27 0.371094)" fill="white" />
  <rect x="286.434" y="3.09131" width="3.85135" height="3.85135" transform="rotate(45 286.434 3.09131)" fill="white" />
  <rect x="283.715" y="0.371094" width="3.85135" height="3.85135" transform="rotate(45 283.715 0.371094)"
    fill="white" />
  <rect x="289.152" y="0.371094" width="3.85135" height="3.85135" transform="rotate(45 289.152 0.371094)"
    fill="white" />
  <rect x="272.828" y="0.371094" width="3.85135" height="3.85135" transform="rotate(45 272.828 0.371094)"
    fill="white" />
  <rect x="278.27" y="16.6934" width="3.85135" height="3.9422" transform="rotate(45 278.27 16.6934)" fill="white" />
  <rect x="283.715" y="16.6934" width="3.85135" height="3.85135" transform="rotate(45 283.715 16.6934)" fill="white" />
  <rect x="305.469" y="13.979" width="3.85135" height="3.85135" transform="rotate(45 305.469 13.979)" fill="white" />
  <rect x="310.91" y="13.9761" width="4.89296" height="3.85135" transform="rotate(45 310.91 13.9761)" fill="white" />
  <rect x="317.785" y="13.9731" width="4.78842" height="3.85135" transform="rotate(45 317.785 13.9731)" fill="white" />
  <rect x="324.516" y="13.979" width="4.46155" height="3.85135" transform="rotate(45 324.516 13.979)" fill="white" />
  <rect x="305.465" y="8.5332" width="3.85135" height="3.85135" transform="rotate(45 305.465 8.5332)" fill="white" />
  <rect x="317.785" y="8.5332" width="3.85135" height="3.85135" transform="rotate(45 317.785 8.5332)" fill="white" />
  <rect x="308.184" y="5.8125" width="3.85135" height="3.85135" transform="rotate(45 308.184 5.8125)" fill="white" />
  <rect x="302.746" y="5.8125" width="3.85135" height="3.85135" transform="rotate(45 302.746 5.8125)" fill="white" />
  <rect x="300.023" y="3.0918" width="3.85135" height="3.85135" transform="rotate(45 300.023 3.0918)" fill="white" />
  <rect x="302.746" y="0.371582" width="3.85135" height="3.85135" transform="rotate(45 302.746 0.371582)"
    fill="white" />
  <rect x="310.906" y="3.0918" width="3.85135" height="3.85135" transform="rotate(45 310.906 3.0918)" fill="white" />
  <rect x="308.184" y="0.371582" width="3.85135" height="3.85135" transform="rotate(45 308.184 0.371582)"
    fill="white" />
  <rect x="313.625" y="0.371582" width="3.85135" height="3.85135" transform="rotate(45 313.625 0.371582)"
    fill="white" />
  <rect x="297.301" y="0.371582" width="3.85135" height="3.85135" transform="rotate(45 297.301 0.371582)"
    fill="white" />
  <rect x="302.746" y="16.6938" width="3.85135" height="3.85135" transform="rotate(45 302.746 16.6938)" fill="white" />
  <rect x="308.184" y="16.6938" width="3.85135" height="3.85135" transform="rotate(45 308.184 16.6938)" fill="white" />
  <rect x="315.297" y="16.457" width="3.9149" height="5.20086" transform="rotate(45 315.297 16.457)" fill="white" />
  <rect x="321.789" y="16.6938" width="3.85135" height="4.76104" transform="rotate(45 321.789 16.6938)" fill="white" />
  <rect x="286.297" y="13.854" width="4.89296" height="3.85135" transform="rotate(45 286.297 13.854)" fill="white" />
  <rect x="293.176" y="13.8511" width="4.78842" height="3.85135" transform="rotate(45 293.176 13.8511)" fill="white" />
  <rect x="299.902" y="13.8569" width="4.46155" height="3.85135" transform="rotate(45 299.902 13.8569)" fill="white" />
  <rect x="293.176" y="8.41064" width="3.85135" height="3.85135" transform="rotate(45 293.176 8.41064)" fill="white" />
  <rect x="290.691" y="16.335" width="3.9149" height="5.20086" transform="rotate(45 290.691 16.335)" fill="white" />
  <rect x="297.18" y="16.5718" width="3.85135" height="4.76104" transform="rotate(45 297.18 16.5718)" fill="white" />
  <rect x="335.512" y="13.9761" width="4.89296" height="3.85135" transform="rotate(45 335.512 13.9761)" fill="white" />
  <rect x="342.387" y="13.9731" width="4.78842" height="3.85135" transform="rotate(45 342.387 13.9731)" fill="white" />
  <rect x="349.117" y="13.979" width="4.46155" height="3.85135" transform="rotate(45 349.117 13.979)" fill="white" />
  <rect x="342.387" y="8.5332" width="3.85135" height="3.85135" transform="rotate(45 342.387 8.5332)" fill="white" />
  <rect x="339.902" y="16.457" width="3.9149" height="5.20086" transform="rotate(45 339.902 16.457)" fill="white" />
  <rect x="346.391" y="16.6938" width="3.85135" height="4.76104" transform="rotate(45 346.391 16.6938)" fill="white" />
  <rect x="330.078" y="13.979" width="3.85135" height="3.85135" transform="rotate(45 330.078 13.979)" fill="white" />
  <rect x="330.07" y="8.5332" width="3.85135" height="3.85135" transform="rotate(45 330.07 8.5332)" fill="white" />
  <rect x="332.793" y="5.8125" width="3.85135" height="3.85135" transform="rotate(45 332.793 5.8125)" fill="white" />
  <rect x="327.352" y="5.8125" width="3.85135" height="3.85135" transform="rotate(45 327.352 5.8125)" fill="white" />
  <rect x="324.633" y="3.0918" width="3.85135" height="3.85135" transform="rotate(45 324.633 3.0918)" fill="white" />
  <rect x="327.352" y="0.371582" width="3.85135" height="3.85135" transform="rotate(45 327.352 0.371582)"
    fill="white" />
  <rect x="335.512" y="3.0918" width="3.85135" height="3.85135" transform="rotate(45 335.512 3.0918)" fill="white" />
  <rect x="332.793" y="0.371582" width="3.85135" height="3.85135" transform="rotate(45 332.793 0.371582)"
    fill="white" />
  <rect x="338.23" y="0.371582" width="3.85135" height="3.85135" transform="rotate(45 338.23 0.371582)" fill="white" />
  <rect x="321.91" y="0.371582" width="3.85135" height="3.85135" transform="rotate(45 321.91 0.371582)" fill="white" />
  <rect x="327.352" y="16.6938" width="3.85135" height="3.9422" transform="rotate(45 327.352 16.6938)" fill="white" />
  <rect x="332.793" y="16.6938" width="3.85135" height="3.85135" transform="rotate(45 332.793 16.6938)" fill="white" />
  <rect x="354.551" y="13.6074" width="3.85135" height="3.85135" transform="rotate(45 354.551 13.6074)" fill="white" />
  <rect x="359.992" y="13.6045" width="4.89296" height="3.85135" transform="rotate(45 359.992 13.6045)" fill="white" />
  <rect x="366.867" y="13.6016" width="4.78842" height="3.85135" transform="rotate(45 366.867 13.6016)" fill="white" />
  <rect x="373.598" y="13.6074" width="4.46155" height="3.85135" transform="rotate(45 373.598 13.6074)" fill="white" />
  <rect x="354.547" y="8.16162" width="3.85135" height="3.85135" transform="rotate(45 354.547 8.16162)" fill="white" />
  <rect x="366.867" y="8.16162" width="3.85135" height="3.85135" transform="rotate(45 366.867 8.16162)" fill="white" />
  <rect x="357.266" y="5.44092" width="3.85135" height="3.85135" transform="rotate(45 357.266 5.44092)" fill="white" />
  <rect x="351.828" y="5.44092" width="3.85135" height="3.85135" transform="rotate(45 351.828 5.44092)" fill="white" />
  <rect x="349.105" y="2.72021" width="3.85135" height="3.85135" transform="rotate(45 349.105 2.72021)" fill="white" />
  <rect x="351.828" width="3.85135" height="3.85135" transform="rotate(45 351.828 0)" fill="white" />
  <rect x="359.988" y="2.72021" width="3.85135" height="3.85135" transform="rotate(45 359.988 2.72021)" fill="white" />
  <rect x="357.266" width="3.85135" height="3.85135" transform="rotate(45 357.266 0)" fill="white" />
  <rect x="362.707" width="3.85135" height="3.85135" transform="rotate(45 362.707 0)" fill="white" />
  <rect x="346.383" width="3.85135" height="3.85135" transform="rotate(45 346.383 0)" fill="white" />
  <rect x="351.828" y="16.3223" width="3.85135" height="3.85135" transform="rotate(45 351.828 16.3223)" fill="white" />
  <rect x="357.266" y="16.3223" width="3.85135" height="3.85135" transform="rotate(45 357.266 16.3223)" fill="white" />
  <rect x="364.379" y="16.0854" width="3.9149" height="5.20086" transform="rotate(45 364.379 16.0854)" fill="white" />
  <rect x="370.871" y="16.3223" width="3.85135" height="4.76104" transform="rotate(45 370.871 16.3223)" fill="white" />
  <rect x="335.379" y="13.4824" width="4.89296" height="3.85135" transform="rotate(45 335.379 13.4824)" fill="white" />
  <rect x="342.258" y="13.4795" width="4.78842" height="3.85135" transform="rotate(45 342.258 13.4795)" fill="white" />
  <rect x="348.984" y="13.4854" width="4.46155" height="3.85135" transform="rotate(45 348.984 13.4854)" fill="white" />
  <rect x="342.258" y="8.03906" width="3.85135" height="3.85135" transform="rotate(45 342.258 8.03906)" fill="white" />
  <rect x="339.773" y="15.9634" width="3.9149" height="5.20086" transform="rotate(45 339.773 15.9634)" fill="white" />
  <rect x="346.262" y="16.2002" width="3.85135" height="4.76104" transform="rotate(45 346.262 16.2002)" fill="white" />
  <rect x="384.594" y="13.6045" width="4.89296" height="3.85135" transform="rotate(45 384.594 13.6045)" fill="white" />
  <rect x="391.469" y="13.6016" width="4.78842" height="3.85135" transform="rotate(45 391.469 13.6016)" fill="white" />
  <rect x="391.469" y="8.16162" width="3.85135" height="3.85135" transform="rotate(45 391.469 8.16162)" fill="white" />
  <rect x="388.984" y="16.0854" width="3.9149" height="5.20086" transform="rotate(45 388.984 16.0854)" fill="white" />
  <rect x="379.16" y="13.6074" width="3.85135" height="3.85135" transform="rotate(45 379.16 13.6074)" fill="white" />
  <rect x="379.152" y="8.16162" width="3.85135" height="3.85135" transform="rotate(45 379.152 8.16162)" fill="white" />
  <rect x="381.875" y="5.44092" width="3.85135" height="3.85135" transform="rotate(45 381.875 5.44092)" fill="white" />
  <rect x="376.434" y="5.44092" width="3.85135" height="3.85135" transform="rotate(45 376.434 5.44092)" fill="white" />
  <rect x="373.715" y="2.72021" width="3.85135" height="3.85135" transform="rotate(45 373.715 2.72021)" fill="white" />
  <rect x="376.434" width="3.85135" height="3.85135" transform="rotate(45 376.434 0)" fill="white" />
  <rect x="384.594" y="2.72021" width="3.85135" height="3.85135" transform="rotate(45 384.594 2.72021)" fill="white" />
  <rect x="381.875" width="3.85135" height="3.85135" transform="rotate(45 381.875 0)" fill="white" />
  <rect x="387.312" width="3.85135" height="3.85135" transform="rotate(45 387.312 0)" fill="white" />
  <rect x="370.992" width="3.85135" height="3.85135" transform="rotate(45 370.992 0)" fill="white" />
  <rect x="376.434" y="16.3223" width="3.85135" height="3.9422" transform="rotate(45 376.434 16.3223)" fill="white" />
  <rect x="381.875" y="16.3223" width="3.85135" height="3.85135" transform="rotate(45 381.875 16.3223)" fill="white" />
</svg>