<svg xmlns="http://www.w3.org/2000/svg">

  <symbol id="arrow-left" viewBox="0 0 512 544.1369">
    <path d="M430 20.137v472l-331-236zm-237 236l182 130v-260z" />
  </symbol>

  <symbol id="arrow-right" viewBox="0 0 512 544.1369">
    <path d="M82 20.137l331 236-331 236zm55 106v260l182-130z" />
  </symbol>

  <symbol id="arrow-left2" viewBox="0 0 512 544.1369">
    <path
      d="M303 449.137l-186-186c-7-7-10-15-10-25 0-11 3-19 10-26l186-186c7-7 16-11 26-11s19 4 26 11l22 21c7 7 10 16 10 26s-3 19-10 26l-139 139 139 138c7 8 10 16 10 26s-3 19-10 26l-22 21c-7 7-16 11-26 11s-19-4-26-11z" />
  </symbol>

  <symbol id="arrow-right2" viewBox="0 0 512 544.1369">
    <path
      d="M405 238.137c0 10-3 18-10 26l-186 186c-7 7-16 10-26 10s-19-3-26-10l-22-22c-7-7-10-16-10-26s3-18 10-25l139-139-139-139c-7-7-10-16-10-26s3-19 10-26l22-21c7-7 16-11 26-11s19 4 26 11l186 186c7 7 10 16 10 26z" />
  </symbol>

  <symbol id="attach" viewBox="0 0 512 544.1369">
    <path
      d="M348 152.137l-165 152c-3 3-5 6-6 9-2 3-3 7-3 11 0 3 1 7 2 10 2 3 4 6 7 9 2 2 6 4 9 6 4 1 8 2 11 2 4 0 8-1 12-2l9-6 165-153c16-15 25-36 25-57s-9-42-25-57c-17-15-39-24-62-24s-45 9-62 24l-164 152c-14 13-25 28-33 44-7 16-11 34-11 52s3 35 11 52c7 16 18 31 31 44 14 13 30 22 48 29s37 10 56 10 38-3 56-10 34-18 47-30l165-153 41 38-164 153c-19 17-42 31-67 41-24 9-51 14-77 14-27 0-54-5-78-14-25-10-47-24-66-41-19-18-34-39-45-61-10-23-15-48-15-73 0-24 5-49 15-72 11-23 26-43 45-61l164-152c28-25 64-38 102-38 39 0 75 14 102 39s42 59 43 94c0 36-15 70-41 95l-165 153c-8 7-17 13-28 17s-22 6-33 6c-12 0-23-2-34-6-10-4-20-10-28-17-8-8-15-17-19-27-4-9-7-20-7-31 0-10 3-21 7-30 4-10 11-19 19-27l164-152z" />
  </symbol>

  <symbol id="bag" viewBox="0 0 512 544.1369">
    <path
      d="M448 160.137h-64v-4c0-69-55-124-123-124h-8c-69 0-125 55-125 124v4H64l-32 320h448zm-288-4c0-51 42-92 93-92h8c50 0 91 41 91 92v4H160zm-92 292l25-256h35v36c-10 6-16 16-16 28 0 18 14 32 32 32s32-14 32-32c0-12-6-22-16-28v-36h192v36c-10 6-16 16-16 28 0 18 14 32 32 32s32-14 32-32c0-12-6-22-16-28v-36h35l25 256z" />
  </symbol>

  <symbol id="basket" viewBox="0 0 512 544.1369">
    <path
      d="M463 93.137c10 9 14 19 13 31l-51 332c-2 10-9 15-19 15H106c-10 0-16-5-20-15-33-212-49-323-50-332-1-12 3-22 12-31 2-2 11-9 27-22 17-12 26-20 29-22 6-5 16-8 29-8h245c13 0 23 3 29 8 27 20 45 35 56 44m-207 223c19 0 35-5 50-17 14-12 25-27 32-46 7-18 12-34 15-45 3-12 6-23 7-34h-47c-13 64-32 96-57 96-26 0-45-32-58-96h-47c16 95 51 142 105 142m-181-188h361l-57-59H132l-57 59" />
  </symbol>

  <symbol id="burger" viewBox="0 0 512 544.1369">
    <path d="M0 416.137h512v64H0zm0-192h512v64H0zm0-192h512v64H0z" />
  </symbol>

  <symbol id="check" viewBox="0 0 512 544.1369">
    <path d="M167 354.137l-117-118-50 51 167 168 345-347-50-51z" />
  </symbol>

  <symbol id="clock" viewBox="0 0 512 544.1369">
    <path
      d="M256 .137c-141 0-256 115-256 256s115 256 256 256 256-115 256-256-115-256-256-256zm0 461c-113 0-205-92-205-205s92-205 205-205 205 92 205 205-92 205-205 205zm26-333h-52v154h154v-52H282z" />
  </symbol>

  <symbol id="copy" viewBox="0 0 512 544.1369">
    <path
      d="M475 466.137v-311c0-2 0-4-2-6s-4-3-7-3H155c-2 0-4 1-6 3s-3 4-3 6v311c0 3 1 5 3 7s4 2 6 2h311c3 0 5 0 7-2s2-4 2-7zm37-311v311c0 13-4 24-13 33s-20 13-33 13H155c-12 0-23-4-32-13s-13-20-13-33v-311c0-12 4-23 13-32s20-13 32-13h311c13 0 24 4 33 13s13 20 13 32zm-110-109v45h-36v-45c0-3-1-5-3-7s-4-2-6-2H46c-3 0-5 0-7 2s-2 4-2 7v311c0 2 0 4 2 6s4 3 7 3h45v36H46c-13 0-24-4-33-13s-13-20-13-32v-311c0-13 4-24 13-33s20-13 33-13h311c12 0 23 4 32 13s13 20 13 33z" />
  </symbol>

  <symbol id="cross" viewBox="0 0 512 544.1369">
    <path d="M256 209.137L47 .137l-47 47 209 209-209 209 47 47 209-209 209 209 47-47-209-209 209-209-47-47z" />
  </symbol>

  <symbol id="download" viewBox="0 0 512 544.1369">
    <path
      d="M67 458.137h378c7 0 14 3 19 8s8 12 8 19-3 14-8 19-12 8-19 8H67c-7 0-14-3-19-8s-8-12-8-19 3-14 8-19 12-8 19-8zm216-157l87-87 38 38-152 152-152-152 38-38 87 87v-301h54z" />
  </symbol>

  <symbol id="edit" viewBox="0 0 512 544.1369">
    <path
      d="M93 410.137c2 0 3-1 4-1l108-19c1 0 2 0 3-1l271-272c1 0 1-1 2-2v-2-3c-1 0-1-1-2-2l-106-106c-1-1-3-2-4-2-2 0-4 1-5 2l-271 271c-1 1-2 2-2 4l-19 107c-1 4 0 7 1 10 1 4 3 7 5 9 4 4 10 7 15 7zm43-112l233-232 46 47-232 232-57 10zm356 165H20c-11 0-20 10-20 21v23c0 3 2 5 5 5h502c3 0 5-2 5-5v-23c0-11-9-21-20-21z" />
  </symbol>

  <symbol id="fill-heart" viewBox="0 0 512.1488 544.1369">
    <path
      d="M452.074 57.137c-68-46-151-24-196 28-45-52-128-74-196-28-36 25-58 66-60 109-3 99 85 178 219 299l2 2c20 17 50 17 69 0l3-3c134-121 222-200 219-298-2-43-24-84-60-109z" />
  </symbol>

  <symbol id="fill-star" viewBox="0 0 512.0948 544.1369">
    <path
      d="M495 186.137l-153-22-69-135c-2-4-5-7-8-9-10-4-22-1-26 9l-69 135-153 22c-5 0-9 2-12 5-3 4-5 9-5 14s2 9 6 13l111 105-26 149c-1 3-1 7 1 10 1 3 3 6 6 8s7 3 10 4c4 0 8-1 11-2l137-71 137 71c4 1 8 2 13 1 10-1 17-11 15-21l-26-149 111-105c3-3 5-7 6-11 1-10-6-20-17-21z" />
  </symbol>

  <symbol id="heart" viewBox="0 0 512.1488 544.1369">
    <path
      d="M452.074 57.137c-68-46-151-24-196 28-45-52-128-74-196-28-36 25-58 66-60 109-3 99 85 178 219 299l2 2c20 17 50 17 69 0l3-3c134-121 222-200 219-298-2-43-24-84-60-109zm-193 370l-3 2-3-2c-121-110-202-182-202-255 0-51 39-89 90-89 39 0 78 25 91 60h48c13-35 52-60 91-60 51 0 90 38 90 89 0 73-81 145-202 255z" />
  </symbol>

  <symbol id="insta" viewBox="0 0 512 544.1369">
    <path
      d="M426 407.137v-185h-39c4 12 6 25 6 38 0 24-6 46-18 66-13 20-29 36-50 48s-44 18-69 18c-37 0-69-13-96-39s-40-57-40-93c0-13 2-26 6-38H85v185c0 5 2 10 5 13 4 3 8 5 13 5h305c5 0 9-2 13-5 3-3 5-8 5-13zm-81-152c0-23-9-44-26-60-18-17-38-25-63-25-24 0-45 8-62 25-17 16-26 37-26 60 0 24 9 44 26 61 17 16 38 25 62 25 25 0 45-9 63-25 17-17 26-37 26-61zm81-103v-47c0-5-2-10-6-14s-8-6-14-6h-50c-5 0-10 2-14 6s-5 9-5 14v47c0 6 1 10 5 14s9 6 14 6h50c6 0 10-2 14-6s6-8 6-14zm49-59v326c0 16-5 29-16 40s-24 16-40 16H93c-16 0-29-5-40-16s-16-24-16-40v-326c0-16 5-29 16-40s24-16 40-16h326c16 0 29 5 40 16s16 24 16 40z" />
  </symbol>

  <symbol id="logout" viewBox="0 0 512 544.1369">
    <path
      d="M470 512.137c6 0 13-3 18-7 4-5 7-12 7-19v-460c0-7-3-14-7-18-5-5-12-8-18-8H118c-7 0-13 3-18 8-5 4-7 11-7 18v76h50v-51h302v410H143v-51H93v76c0 7 2 14 7 19 5 4 11 7 18 7zm-327-154v-76h160v-52H143v-76l-126 102z" />
  </symbol>

  <symbol id="phone" viewBox=" 0 0 512 544.1369">
    <path
      d="M402 341.137v-5c-1-1-5-4-11-8-7-4-15-9-26-14l-15-9c-1 0-2-1-5-3s-5-4-7-5-4-1-6-1c-4 0-8 3-14 9-5 6-11 13-16 19s-10 9-13 9c-1 0-2 0-4-1-2 0-4-1-5-1-1-1-2-2-5-3-2-1-3-2-4-3-18-10-35-22-48-36-14-13-26-30-36-48-1-1-2-2-3-4-1-3-2-4-3-5 0-1-1-3-1-5-1-2-1-3-1-4 0-3 2-6 5-10 4-4 9-8 13-11 5-3 9-7 13-11s6-8 6-11c0-2 0-4-1-6s-3-4-5-7-3-4-3-5c-1-1-2-4-5-8-2-5-4-9-7-13-2-5-5-9-7-14-3-5-5-9-8-12-2-3-3-4-4-5h-5c-9 0-19 2-29 6-8 4-16 13-23 27-6 14-9 26-9 37v10c1 3 1 6 2 9 0 2 1 5 2 9 2 4 3 7 3 9 1 1 2 4 4 9s3 7 3 9c11 31 32 61 62 91s60 51 91 62c2 0 4 1 9 3s8 3 9 4c2 0 5 1 9 3 4 1 7 2 9 2 3 1 6 1 9 2h10c11 0 23-3 37-9 14-7 23-15 27-23 4-10 6-20 6-29zm73-222v274c0 23-8 42-24 58s-35 24-58 24H119c-23 0-42-8-58-24s-24-35-24-58v-274c0-23 8-42 24-58s35-24 58-24h274c23 0 42 8 58 24s24 35 24 58z" />
  </symbol>

  <symbol id="pin" viewBox="0 0 512 544.137">
    <path
      d="M256 .137c-107 0-194 87-194 194 0 108 152 318 194 318 31 0 194-210 194-318 0-107-87-194-194-194zm-1 290c-54 0-99-44-99-99 0-54 45-99 99-99 55 0 99 45 99 99 0 55-44 99-99 99z" />
  </symbol>

  <symbol id="plus" viewBox="0 0 512 544.1369">
    <path d="M288 .137h-64v224H0v64h224v224h64v-224h224v-64H288z" />
  </symbol>

  <symbol id="repeat" viewBox="0 0 512 544.1369">
    <path
      d="M256 32.137c-60 0-117 24-158 66l-66-66v192h192l-81-81c30-30 70-47 113-47 88 0 160 72 160 160s-72 160-160 160c-57 0-110-31-139-80l-55 32c40 69 114 112 194 112 124 0 224-101 224-224s-100-224-224-224" />
  </symbol>

  <symbol id="search" viewBox="0 0 512.1369 544.1369">
    <path
      d="M388.137 350.137c34-44 50-99 44-154-5-54-31-105-72-142-41-36-95-56-150-54s-107 24-146 63-62 92-64 147 18 109 54 150c37 42 88 67 142 73 55 5 110-11 154-45l1 1 115 115c2 3 5 5 9 6 3 1 6 2 10 2 3 0 7-1 10-2 4-1 7-3 9-6 3-2 5-5 6-9 1-3 2-7 2-10 0-4-1-7-2-10-1-4-3-7-6-9l-115-115c0-1-1-1-1-1zm-56-248c15 15 27 33 35 52 9 20 13 41 13 63 0 21-4 43-12 63-8 19-20 37-35 53-16 15-34 27-53 35-20 8-41 12-63 12-21 0-43-4-62-13-20-8-38-20-53-35-30-31-47-72-47-115s18-84 48-114c30-31 71-48 114-48s84 17 115 47z" />
  </symbol>

  <symbol id="star" viewBox="0 0 512.0948 544.1369">
    <path
      d="M314 202.137l-58-115-58 115-128 18 93 89-22 126 115-60 115 60-22-126 93-89zm192 15l-111 107 26 150c2 10-5 20-15 22-5 1-9 0-13-2l-137-71-137 71c-3 2-7 3-11 2-3 0-7-1-10-3s-5-5-6-9c-2-3-2-6-1-10l26-150-111-107c-4-3-6-8-6-13s2-10 5-14c3-3 7-4 12-5l153-22 69-137c4-9 16-13 26-8 3 1 6 5 8 8l69 137 153 22c11 1 18 11 17 21-1 5-3 8-6 11z" />
  </symbol>

  <symbol id="swap" viewBox="0 0 512 544.1369">
    <path
      d="M480 349.137l-101-62c-8-5-14-1-14 8v23h-40c-34 0-61-28-61-62 0-75-61-136-137-136H28v75h99c34 0 62 27 62 61 0 75 61 136 136 136h40v23c0 9 6 13 14 8l101-62s4-2 4-6-4-6-4-6zm0-198l-101-62c-8-5-14-1-14 8v23h-40c-23 0-45 6-64 16 18 17 33 39 42 63 7-3 15-5 22-5h40v23c0 9 6 13 14 8l101-62s4-2 4-6-4-6-4-6zm-352 166H29v75h99c23 0 45-6 64-16-19-17-33-39-42-63-7 3-15 4-22 4z" />
  </symbol>

  <symbol id="user" viewBox="0 0 512 544.1369">
    <path
      d="M462 418.137c-11-29-27-55-48-77-20-22-44-40-71-52 37-29 61-76 61-129 0-89-66-160-148-160s-148 71-148 160c0 53 24 100 62 129h-1c-27 12-51 30-71 52-21 22-37 48-48 77-11 28-17 58-18 89v2c1 0 1 1 1 1l2 2h38c2 0 4-2 4-5 1-50 20-96 53-131 33-37 78-57 126-57s93 20 126 57c33 35 52 81 53 131 0 3 2 5 4 5h38l2-2s0-1 1-1v-2c-1-31-6-61-18-89zm-206-148c-27 0-53-11-72-32-20-21-30-49-30-78 0-30 10-58 30-79 19-21 45-32 72-32s53 11 72 32c20 21 30 49 30 79 0 29-10 57-30 78-19 21-45 32-72 32z" />
  </symbol>

  <symbol id="vk" viewBox="0 0 512 544.1369">
    <path
      d="M511 156.137c4 11-9 37-40 78-4 6-10 13-17 23-14 18-22 29-24 35-3 7-2 14 4 21 3 4 10 11 21 22h1v1h1c25 24 42 43 50 59 1 1 2 2 2 4 1 1 1 3 2 7 1 3 1 6 0 9-1 2-3 5-7 7-3 2-9 3-15 3l-69 1c-4 1-9 1-15-1-5-2-10-4-14-6l-5-3c-5-4-11-9-19-17-7-8-13-15-18-21s-10-11-16-15-11-6-15-4c-1 0-1 0-2 1-1 0-3 1-5 3-2 3-4 5-6 8-1 3-3 8-4 14s-2 13-2 21c0 3 0 5-1 7 0 2-1 4-2 5l-1 1c-3 4-8 6-14 6h-31c-12 1-25 0-39-4-13-4-25-8-35-14s-19-12-27-18-15-11-19-15l-7-7c-1-1-4-4-7-8-3-3-9-11-19-24-10-12-19-26-28-40s-20-33-33-56c-12-24-24-48-35-73-1-3-1-5-1-7s0-3 1-4l1-2c2-3 7-5 15-5l73-1c2 1 4 1 6 2s3 2 4 2l2 1c2 2 5 5 6 9l12 27c5 10 9 17 11 22l4 8c6 11 11 20 15 28 5 7 10 14 13 18 4 4 8 8 11 10 4 3 7 4 9 4 3 0 5-1 8-1 0-1 0-1 1-2s2-2 3-6c2-3 3-7 4-12s1-13 2-22 1-20 0-33c0-7-1-14-2-20-1-5-3-10-4-12l-1-3c-5-6-12-10-23-12-2 0-2-2 1-6 3-3 7-6 10-8 10-5 31-7 64-6 15 0 27 1 36 3 4 1 7 2 9 4 2 1 4 3 6 6 1 3 2 6 2 9 1 3 1 7 1 12v14c0 5 0 11-1 19v33c-1 6-1 10 0 13v11c1 4 2 8 4 10 1 3 3 5 6 7 1 0 2 1 4 1s4-1 7-3 6-5 10-9 8-10 14-18 12-18 18-29c11-18 20-38 29-60 0-1 1-3 2-4 1-2 2-3 3-3l1-1 2-1h3c2-1 4-1 5 0l77-1c7-1 13-1 17 1 5 1 8 2 9 4z" />
  </symbol>

  <symbol id="comment" viewBox="-30.15 -30.15 361.84 361.84">
    <path
      d="M27.154,291.289c-2.513,0-4.852-1.517-5.825-3.949c-1.159-2.872-0.038-6.168,2.627-7.751 c29.779-17.628,30.72-48.805,25.836-72.709C14.383,181.621-3.93,145.332,0.71,109.341c7.283-56.49,69.239-99.089,144.113-99.089 c6.755,0,13.609,0.348,20.391,1.044c47.461,4.819,88.994,25.64,113.981,57.121c17.362,21.898,24.84,46.716,21.615,71.768 c-7.283,56.485-69.239,99.089-144.124,99.089l0,0c-6.75,0-13.609-0.343-20.38-1.039c-4.509-0.457-9.132-1.093-13.815-1.915 c-23.192,38.057-90.925,54.119-93.911,54.804C28.101,291.24,27.627,291.289,27.154,291.289z">
    </path>
  </symbol>

  <symbol id="close-cross" fill="none">
    <path d="M16 8L8 16M12 12L16 16M8 8L10 10" stroke="#000000" stroke-width="1.5" stroke-linecap="round"
      stroke-linejoin="round" />
  </symbol>

  <symbol id="trash" viewBox="0 0 30 40">
    <path
      d="M27.5451 5.04077H20.6213C20.1803 2.24034 17.8209 0.0809326 14.925 0.0809326C12.0291 0.0809326 9.62416 2.24034 9.22864 5.04077H2.40491C1.07742 5.04077 0 6.12275 0 7.44568V9.90059C0 11.1281 0.881966 12.11 2.06396 12.2555V36.2137C2.06396 37.9821 3.4869 39.4051 5.25535 39.4051H24.7447C26.5131 39.4051 27.936 37.9821 27.936 36.2137V12.301C29.1135 12.1055 30 11.1236 30 9.94608V7.49116C29.95 6.12275 28.868 5.04077 27.5451 5.04077ZM14.925 1.89939C16.8389 1.89939 18.4119 3.22688 18.7528 5.04077H11.0471C11.4381 3.27232 13.011 1.89939 14.925 1.89939ZM26.0721 36.2682C26.0721 37.0047 25.4811 37.6412 24.6992 37.6412H5.20534C4.46887 37.6412 3.83241 37.0502 3.83241 36.2682V12.3555H26.0267V36.2682H26.0721ZM28.1315 9.90059C28.1315 10.2461 27.886 10.4916 27.5405 10.4916H2.40034C2.05483 10.4916 1.80932 10.2461 1.80932 9.90059V7.44568C1.80932 7.10016 2.05483 6.85465 2.40034 6.85465H27.4905C27.836 6.85465 28.0815 7.10016 28.0815 7.44568V9.90059H28.1315ZM7.90571 32.9268V17.4154C7.90571 16.9244 8.29667 16.5334 8.78768 16.5334C9.27869 16.5334 9.66965 16.9244 9.66965 17.4154V32.9268C9.66965 33.4178 9.27869 33.8088 8.78768 33.8088C8.29672 33.8633 7.90571 33.4178 7.90571 32.9268ZM14.1385 32.9268V17.4154C14.1385 16.9244 14.5295 16.5334 15.0205 16.5334C15.5114 16.5334 15.9024 16.9244 15.9024 17.4154V32.9268C15.9024 33.4178 15.5115 33.8088 15.0205 33.8088C14.534 33.8633 14.1385 33.4178 14.1385 32.9268ZM20.3758 32.9268V17.4154C20.3758 16.9244 20.7667 16.5334 21.2578 16.5334C21.7488 16.5334 22.1397 16.9244 22.1397 17.4154V32.9268C22.1397 33.4178 21.7488 33.8088 21.2578 33.8088C20.8168 33.8633 20.3758 33.4178 20.3758 32.9268Z" />
  </symbol>

  <symbol id="upload" viewBox="0 0 30 30" fill="none">
    <path fill-rule="evenodd" clip-rule="evenodd"
      d="M15.7945 0.365451C15.5957 0.133496 15.3054 0 14.9999 0C14.6944 0 14.4042 0.133496 14.2053 0.365451L10.0193 5.24917C9.64315 5.688 9.69398 6.34866 10.1328 6.7248C10.5716 7.10094 11.2323 7.05012 11.6084 6.61129L13.9534 3.8755V19.186C13.9534 19.764 14.4219 20.2326 14.9999 20.2326C15.5779 20.2326 16.0464 19.764 16.0464 19.186V3.8755L18.3914 6.61129C18.7675 7.05012 19.4282 7.10094 19.867 6.7248C20.3058 6.34866 20.3567 5.688 19.9805 5.24917L15.7945 0.365451ZM8.02903 11.8633C8.60699 11.8601 9.07294 11.389 9.06975 10.811C9.06656 10.233 8.59545 9.76709 8.01748 9.77028C6.50825 9.77861 5.25049 9.81488 4.22273 10.0038C3.16515 10.1982 2.26519 10.5683 1.53303 11.3005C0.693003 12.1405 0.331595 13.198 0.162656 14.454C-4.98629e-05 15.6636 -2.7282e-05 17.2015 7.32349e-07 19.1095V19.1095V20.6581V20.6581C-2.72819e-05 22.5667 -4.98571e-05 24.1046 0.162656 25.3142C0.331617 26.5704 0.693463 27.6279 1.53303 28.4684C2.37262 29.308 3.43037 29.6689 4.68614 29.8376C5.89587 30.0001 7.43405 30.0001 9.34207 30H9.34213H20.6579H20.6579C22.5659 30.0001 24.1041 30.0001 25.3139 29.8376C26.5696 29.6689 27.6274 29.308 28.467 28.4684C29.307 27.6284 29.6684 26.5709 29.8373 25.3147C30.0001 24.1049 30 22.5667 30 20.6581V20.6581V19.1095V19.1094C30 17.2015 30.0001 15.6636 29.8373 14.454C29.6684 13.198 29.307 12.1405 28.467 11.3005C27.7348 10.5683 26.8349 10.1982 25.7773 10.0038C24.7495 9.81488 23.4918 9.77861 21.9825 9.77028C21.4046 9.76709 20.9334 10.233 20.9302 10.811C20.9271 11.389 21.393 11.8601 21.971 11.8633C23.4966 11.8717 24.5782 11.9115 25.3989 12.0623C26.1898 12.2077 26.6475 12.441 26.987 12.7805C27.3735 13.167 27.6253 13.7093 27.763 14.733C27.9048 15.7868 27.907 17.1835 27.907 19.1861V20.5814C27.907 22.5847 27.9048 23.9817 27.763 25.0358C27.6253 26.0596 27.3735 26.6019 26.987 26.9884C26.6015 27.3739 26.0594 27.6256 25.0352 27.7632C23.9811 27.9048 22.584 27.907 20.5814 27.907H9.41861C7.41603 27.907 6.01893 27.9048 4.9648 27.7632C3.94094 27.6256 3.39894 27.3741 3.01344 26.9888C2.6265 26.6014 2.37467 26.0587 2.237 25.0352C2.09525 23.9814 2.09303 22.5847 2.09303 20.5814V19.1861C2.09303 17.1835 2.09525 15.7868 2.237 14.733C2.37469 13.7093 2.62654 13.167 3.01302 12.7805C3.35248 12.441 3.8102 12.2077 4.60111 12.0623C5.42184 11.9115 6.50338 11.8717 8.02903 11.8633Z"
      fill="black" />
  </symbol>

</svg>