<svg xmlns="http://www.w3.org/2000/svg">

  <symbol id="arrow-left" viewBox="0 0 512 544.1369">
    <path d="M430 20.137v472l-331-236zm-237 236l182 130v-260z" />
  </symbol>

  <symbol id="arrow-right" viewBox="0 0 512 544.1369">
    <path d="M82 20.137l331 236-331 236zm55 106v260l182-130z" />
  </symbol>

  <symbol id="arrow-left2" viewBox="0 0 512 544.1369">
    <path
      d="M303 449.137l-186-186c-7-7-10-15-10-25 0-11 3-19 10-26l186-186c7-7 16-11 26-11s19 4 26 11l22 21c7 7 10 16 10 26s-3 19-10 26l-139 139 139 138c7 8 10 16 10 26s-3 19-10 26l-22 21c-7 7-16 11-26 11s-19-4-26-11z" />
  </symbol>

  <symbol id="arrow-right2" viewBox="0 0 512 544.1369">
    <path
      d="M405 238.137c0 10-3 18-10 26l-186 186c-7 7-16 10-26 10s-19-3-26-10l-22-22c-7-7-10-16-10-26s3-18 10-25l139-139-139-139c-7-7-10-16-10-26s3-19 10-26l22-21c7-7 16-11 26-11s19 4 26 11l186 186c7 7 10 16 10 26z" />
  </symbol>

  <symbol id="attach" viewBox="0 0 512 544.1369">
    <path
      d="M348 152.137l-165 152c-3 3-5 6-6 9-2 3-3 7-3 11 0 3 1 7 2 10 2 3 4 6 7 9 2 2 6 4 9 6 4 1 8 2 11 2 4 0 8-1 12-2l9-6 165-153c16-15 25-36 25-57s-9-42-25-57c-17-15-39-24-62-24s-45 9-62 24l-164 152c-14 13-25 28-33 44-7 16-11 34-11 52s3 35 11 52c7 16 18 31 31 44 14 13 30 22 48 29s37 10 56 10 38-3 56-10 34-18 47-30l165-153 41 38-164 153c-19 17-42 31-67 41-24 9-51 14-77 14-27 0-54-5-78-14-25-10-47-24-66-41-19-18-34-39-45-61-10-23-15-48-15-73 0-24 5-49 15-72 11-23 26-43 45-61l164-152c28-25 64-38 102-38 39 0 75 14 102 39s42 59 43 94c0 36-15 70-41 95l-165 153c-8 7-17 13-28 17s-22 6-33 6c-12 0-23-2-34-6-10-4-20-10-28-17-8-8-15-17-19-27-4-9-7-20-7-31 0-10 3-21 7-30 4-10 11-19 19-27l164-152z" />
  </symbol>

  <symbol id="bag" viewBox="0 0 512 544.1369">
    <path
      d="M448 160.137h-64v-4c0-69-55-124-123-124h-8c-69 0-125 55-125 124v4H64l-32 320h448zm-288-4c0-51 42-92 93-92h8c50 0 91 41 91 92v4H160zm-92 292l25-256h35v36c-10 6-16 16-16 28 0 18 14 32 32 32s32-14 32-32c0-12-6-22-16-28v-36h192v36c-10 6-16 16-16 28 0 18 14 32 32 32s32-14 32-32c0-12-6-22-16-28v-36h35l25 256z" />
  </symbol>

  <symbol id="basket" viewBox="0 0 512 544.1369">
    <path
      d="M463 93.137c10 9 14 19 13 31l-51 332c-2 10-9 15-19 15H106c-10 0-16-5-20-15-33-212-49-323-50-332-1-12 3-22 12-31 2-2 11-9 27-22 17-12 26-20 29-22 6-5 16-8 29-8h245c13 0 23 3 29 8 27 20 45 35 56 44m-207 223c19 0 35-5 50-17 14-12 25-27 32-46 7-18 12-34 15-45 3-12 6-23 7-34h-47c-13 64-32 96-57 96-26 0-45-32-58-96h-47c16 95 51 142 105 142m-181-188h361l-57-59H132l-57 59" />
  </symbol>

  <symbol id="burger" viewBox="0 0 512 544.1369">
    <path d="M0 416.137h512v64H0zm0-192h512v64H0zm0-192h512v64H0z" />
  </symbol>

  <symbol id="check" viewBox="0 0 512 544.1369">
    <path d="M167 354.137l-117-118-50 51 167 168 345-347-50-51z" />
  </symbol>

  <symbol id="clock" viewBox="0 0 512 544.1369">
    <path
      d="M256 .137c-141 0-256 115-256 256s115 256 256 256 256-115 256-256-115-256-256-256zm0 461c-113 0-205-92-205-205s92-205 205-205 205 92 205 205-92 205-205 205zm26-333h-52v154h154v-52H282z" />
  </symbol>

  <symbol id="copy" viewBox="0 0 512 544.1369">
    <path
      d="M475 466.137v-311c0-2 0-4-2-6s-4-3-7-3H155c-2 0-4 1-6 3s-3 4-3 6v311c0 3 1 5 3 7s4 2 6 2h311c3 0 5 0 7-2s2-4 2-7zm37-311v311c0 13-4 24-13 33s-20 13-33 13H155c-12 0-23-4-32-13s-13-20-13-33v-311c0-12 4-23 13-32s20-13 32-13h311c13 0 24 4 33 13s13 20 13 32zm-110-109v45h-36v-45c0-3-1-5-3-7s-4-2-6-2H46c-3 0-5 0-7 2s-2 4-2 7v311c0 2 0 4 2 6s4 3 7 3h45v36H46c-13 0-24-4-33-13s-13-20-13-32v-311c0-13 4-24 13-33s20-13 33-13h311c12 0 23 4 32 13s13 20 13 33z" />
  </symbol>

  <symbol id="download" viewBox="0 0 512 544.1369">
    <path
      d="M67 458.137h378c7 0 14 3 19 8s8 12 8 19-3 14-8 19-12 8-19 8H67c-7 0-14-3-19-8s-8-12-8-19 3-14 8-19 12-8 19-8zm216-157l87-87 38 38-152 152-152-152 38-38 87 87v-301h54z" />
  </symbol>

  <symbol id="edit" viewBox="0 0 512 544.1369">
    <path
      d="M93 410.137c2 0 3-1 4-1l108-19c1 0 2 0 3-1l271-272c1 0 1-1 2-2v-2-3c-1 0-1-1-2-2l-106-106c-1-1-3-2-4-2-2 0-4 1-5 2l-271 271c-1 1-2 2-2 4l-19 107c-1 4 0 7 1 10 1 4 3 7 5 9 4 4 10 7 15 7zm43-112l233-232 46 47-232 232-57 10zm356 165H20c-11 0-20 10-20 21v23c0 3 2 5 5 5h502c3 0 5-2 5-5v-23c0-11-9-21-20-21z" />
  </symbol>

  <symbol id="fill-heart" viewBox="0 0 512.1488 544.1369">
    <path
      d="M452.074 57.137c-68-46-151-24-196 28-45-52-128-74-196-28-36 25-58 66-60 109-3 99 85 178 219 299l2 2c20 17 50 17 69 0l3-3c134-121 222-200 219-298-2-43-24-84-60-109z" />
  </symbol>

  <symbol id="fill-star" viewBox="0 0 512.0948 544.1369">
    <path
      d="M495 186.137l-153-22-69-135c-2-4-5-7-8-9-10-4-22-1-26 9l-69 135-153 22c-5 0-9 2-12 5-3 4-5 9-5 14s2 9 6 13l111 105-26 149c-1 3-1 7 1 10 1 3 3 6 6 8s7 3 10 4c4 0 8-1 11-2l137-71 137 71c4 1 8 2 13 1 10-1 17-11 15-21l-26-149 111-105c3-3 5-7 6-11 1-10-6-20-17-21z" />
  </symbol>

  <symbol id="heart" viewBox="0 0 512.1488 544.1369">
    <path
      d="M452.074 57.137c-68-46-151-24-196 28-45-52-128-74-196-28-36 25-58 66-60 109-3 99 85 178 219 299l2 2c20 17 50 17 69 0l3-3c134-121 222-200 219-298-2-43-24-84-60-109zm-193 370l-3 2-3-2c-121-110-202-182-202-255 0-51 39-89 90-89 39 0 78 25 91 60h48c13-35 52-60 91-60 51 0 90 38 90 89 0 73-81 145-202 255z" />
  </symbol>

  <symbol id="insta" viewBox="0 0 512 544.1369">
    <path
      d="M426 407.137v-185h-39c4 12 6 25 6 38 0 24-6 46-18 66-13 20-29 36-50 48s-44 18-69 18c-37 0-69-13-96-39s-40-57-40-93c0-13 2-26 6-38H85v185c0 5 2 10 5 13 4 3 8 5 13 5h305c5 0 9-2 13-5 3-3 5-8 5-13zm-81-152c0-23-9-44-26-60-18-17-38-25-63-25-24 0-45 8-62 25-17 16-26 37-26 60 0 24 9 44 26 61 17 16 38 25 62 25 25 0 45-9 63-25 17-17 26-37 26-61zm81-103v-47c0-5-2-10-6-14s-8-6-14-6h-50c-5 0-10 2-14 6s-5 9-5 14v47c0 6 1 10 5 14s9 6 14 6h50c6 0 10-2 14-6s6-8 6-14zm49-59v326c0 16-5 29-16 40s-24 16-40 16H93c-16 0-29-5-40-16s-16-24-16-40v-326c0-16 5-29 16-40s24-16 40-16h326c16 0 29 5 40 16s16 24 16 40z" />
  </symbol>

  <symbol id="logout" viewBox="0 0 512 544.1369">
    <path
      d="M470 512.137c6 0 13-3 18-7 4-5 7-12 7-19v-460c0-7-3-14-7-18-5-5-12-8-18-8H118c-7 0-13 3-18 8-5 4-7 11-7 18v76h50v-51h302v410H143v-51H93v76c0 7 2 14 7 19 5 4 11 7 18 7zm-327-154v-76h160v-52H143v-76l-126 102z" />
  </symbol>

  <symbol id="phone" viewBox=" 0 0 512 544.1369">
    <path
      d="M402 341.137v-5c-1-1-5-4-11-8-7-4-15-9-26-14l-15-9c-1 0-2-1-5-3s-5-4-7-5-4-1-6-1c-4 0-8 3-14 9-5 6-11 13-16 19s-10 9-13 9c-1 0-2 0-4-1-2 0-4-1-5-1-1-1-2-2-5-3-2-1-3-2-4-3-18-10-35-22-48-36-14-13-26-30-36-48-1-1-2-2-3-4-1-3-2-4-3-5 0-1-1-3-1-5-1-2-1-3-1-4 0-3 2-6 5-10 4-4 9-8 13-11 5-3 9-7 13-11s6-8 6-11c0-2 0-4-1-6s-3-4-5-7-3-4-3-5c-1-1-2-4-5-8-2-5-4-9-7-13-2-5-5-9-7-14-3-5-5-9-8-12-2-3-3-4-4-5h-5c-9 0-19 2-29 6-8 4-16 13-23 27-6 14-9 26-9 37v10c1 3 1 6 2 9 0 2 1 5 2 9 2 4 3 7 3 9 1 1 2 4 4 9s3 7 3 9c11 31 32 61 62 91s60 51 91 62c2 0 4 1 9 3s8 3 9 4c2 0 5 1 9 3 4 1 7 2 9 2 3 1 6 1 9 2h10c11 0 23-3 37-9 14-7 23-15 27-23 4-10 6-20 6-29zm73-222v274c0 23-8 42-24 58s-35 24-58 24H119c-23 0-42-8-58-24s-24-35-24-58v-274c0-23 8-42 24-58s35-24 58-24h274c23 0 42 8 58 24s24 35 24 58z" />
  </symbol>

  <symbol id="pin" viewBox="0 0 512 544.137">
    <path
      d="M256 .137c-107 0-194 87-194 194 0 108 152 318 194 318 31 0 194-210 194-318 0-107-87-194-194-194zm-1 290c-54 0-99-44-99-99 0-54 45-99 99-99 55 0 99 45 99 99 0 55-44 99-99 99z" />
  </symbol>

  <symbol id="plus" viewBox="0 0 512 544.1369">
    <path d="M288 .137h-64v224H0v64h224v224h64v-224h224v-64H288z" />
  </symbol>

  <symbol id="repeat" viewBox="0 0 512 544.1369">
    <path
      d="M256 32.137c-60 0-117 24-158 66l-66-66v192h192l-81-81c30-30 70-47 113-47 88 0 160 72 160 160s-72 160-160 160c-57 0-110-31-139-80l-55 32c40 69 114 112 194 112 124 0 224-101 224-224s-100-224-224-224" />
  </symbol>

  <symbol id="search" viewBox="0 0 512.1369 544.1369">
    <path
      d="M388.137 350.137c34-44 50-99 44-154-5-54-31-105-72-142-41-36-95-56-150-54s-107 24-146 63-62 92-64 147 18 109 54 150c37 42 88 67 142 73 55 5 110-11 154-45l1 1 115 115c2 3 5 5 9 6 3 1 6 2 10 2 3 0 7-1 10-2 4-1 7-3 9-6 3-2 5-5 6-9 1-3 2-7 2-10 0-4-1-7-2-10-1-4-3-7-6-9l-115-115c0-1-1-1-1-1zm-56-248c15 15 27 33 35 52 9 20 13 41 13 63 0 21-4 43-12 63-8 19-20 37-35 53-16 15-34 27-53 35-20 8-41 12-63 12-21 0-43-4-62-13-20-8-38-20-53-35-30-31-47-72-47-115s18-84 48-114c30-31 71-48 114-48s84 17 115 47z" />
  </symbol>

  <symbol id="star" viewBox="0 0 512.0948 544.1369">
    <path
      d="M314 202.137l-58-115-58 115-128 18 93 89-22 126 115-60 115 60-22-126 93-89zm192 15l-111 107 26 150c2 10-5 20-15 22-5 1-9 0-13-2l-137-71-137 71c-3 2-7 3-11 2-3 0-7-1-10-3s-5-5-6-9c-2-3-2-6-1-10l26-150-111-107c-4-3-6-8-6-13s2-10 5-14c3-3 7-4 12-5l153-22 69-137c4-9 16-13 26-8 3 1 6 5 8 8l69 137 153 22c11 1 18 11 17 21-1 5-3 8-6 11z" />
  </symbol>

  <symbol id="swap" viewBox="0 0 512 544.1369">
    <path
      d="M480 349.137l-101-62c-8-5-14-1-14 8v23h-40c-34 0-61-28-61-62 0-75-61-136-137-136H28v75h99c34 0 62 27 62 61 0 75 61 136 136 136h40v23c0 9 6 13 14 8l101-62s4-2 4-6-4-6-4-6zm0-198l-101-62c-8-5-14-1-14 8v23h-40c-23 0-45 6-64 16 18 17 33 39 42 63 7-3 15-5 22-5h40v23c0 9 6 13 14 8l101-62s4-2 4-6-4-6-4-6zm-352 166H29v75h99c23 0 45-6 64-16-19-17-33-39-42-63-7 3-15 4-22 4z" />
  </symbol>

  <symbol id="user" viewBox="0 0 512 544.1369">
    <path
      d="M462 418.137c-11-29-27-55-48-77-20-22-44-40-71-52 37-29 61-76 61-129 0-89-66-160-148-160s-148 71-148 160c0 53 24 100 62 129h-1c-27 12-51 30-71 52-21 22-37 48-48 77-11 28-17 58-18 89v2c1 0 1 1 1 1l2 2h38c2 0 4-2 4-5 1-50 20-96 53-131 33-37 78-57 126-57s93 20 126 57c33 35 52 81 53 131 0 3 2 5 4 5h38l2-2s0-1 1-1v-2c-1-31-6-61-18-89zm-206-148c-27 0-53-11-72-32-20-21-30-49-30-78 0-30 10-58 30-79 19-21 45-32 72-32s53 11 72 32c20 21 30 49 30 79 0 29-10 57-30 78-19 21-45 32-72 32z" />
  </symbol>

  <symbol id="vk" viewBox="0 0 512 544.1369">
    <path
      d="M511 156.137c4 11-9 37-40 78-4 6-10 13-17 23-14 18-22 29-24 35-3 7-2 14 4 21 3 4 10 11 21 22h1v1h1c25 24 42 43 50 59 1 1 2 2 2 4 1 1 1 3 2 7 1 3 1 6 0 9-1 2-3 5-7 7-3 2-9 3-15 3l-69 1c-4 1-9 1-15-1-5-2-10-4-14-6l-5-3c-5-4-11-9-19-17-7-8-13-15-18-21s-10-11-16-15-11-6-15-4c-1 0-1 0-2 1-1 0-3 1-5 3-2 3-4 5-6 8-1 3-3 8-4 14s-2 13-2 21c0 3 0 5-1 7 0 2-1 4-2 5l-1 1c-3 4-8 6-14 6h-31c-12 1-25 0-39-4-13-4-25-8-35-14s-19-12-27-18-15-11-19-15l-7-7c-1-1-4-4-7-8-3-3-9-11-19-24-10-12-19-26-28-40s-20-33-33-56c-12-24-24-48-35-73-1-3-1-5-1-7s0-3 1-4l1-2c2-3 7-5 15-5l73-1c2 1 4 1 6 2s3 2 4 2l2 1c2 2 5 5 6 9l12 27c5 10 9 17 11 22l4 8c6 11 11 20 15 28 5 7 10 14 13 18 4 4 8 8 11 10 4 3 7 4 9 4 3 0 5-1 8-1 0-1 0-1 1-2s2-2 3-6c2-3 3-7 4-12s1-13 2-22 1-20 0-33c0-7-1-14-2-20-1-5-3-10-4-12l-1-3c-5-6-12-10-23-12-2 0-2-2 1-6 3-3 7-6 10-8 10-5 31-7 64-6 15 0 27 1 36 3 4 1 7 2 9 4 2 1 4 3 6 6 1 3 2 6 2 9 1 3 1 7 1 12v14c0 5 0 11-1 19v33c-1 6-1 10 0 13v11c1 4 2 8 4 10 1 3 3 5 6 7 1 0 2 1 4 1s4-1 7-3 6-5 10-9 8-10 14-18 12-18 18-29c11-18 20-38 29-60 0-1 1-3 2-4 1-2 2-3 3-3l1-1 2-1h3c2-1 4-1 5 0l77-1c7-1 13-1 17 1 5 1 8 2 9 4z" />
  </symbol>

  <symbol id="comment" viewBox="-30.15 -30.15 361.84 361.84">
    <path
      d="M27.154,291.289c-2.513,0-4.852-1.517-5.825-3.949c-1.159-2.872-0.038-6.168,2.627-7.751 c29.779-17.628,30.72-48.805,25.836-72.709C14.383,181.621-3.93,145.332,0.71,109.341c7.283-56.49,69.239-99.089,144.113-99.089 c6.755,0,13.609,0.348,20.391,1.044c47.461,4.819,88.994,25.64,113.981,57.121c17.362,21.898,24.84,46.716,21.615,71.768 c-7.283,56.485-69.239,99.089-144.124,99.089l0,0c-6.75,0-13.609-0.343-20.38-1.039c-4.509-0.457-9.132-1.093-13.815-1.915 c-23.192,38.057-90.925,54.119-93.911,54.804C28.101,291.24,27.627,291.289,27.154,291.289z">
    </path>
  </symbol>

  <symbol id="close-cross" fill="none">
    <path d="M16 8L8 16M12 12L16 16M8 8L10 10" stroke="#000000" stroke-width="1.5" stroke-linecap="round"
      stroke-linejoin="round" />
  </symbol>

  <symbol id="trash" viewBox="0 0 30 40">
    <path
      d="M27.5451 5.04077H20.6213C20.1803 2.24034 17.8209 0.0809326 14.925 0.0809326C12.0291 0.0809326 9.62416 2.24034 9.22864 5.04077H2.40491C1.07742 5.04077 0 6.12275 0 7.44568V9.90059C0 11.1281 0.881966 12.11 2.06396 12.2555V36.2137C2.06396 37.9821 3.4869 39.4051 5.25535 39.4051H24.7447C26.5131 39.4051 27.936 37.9821 27.936 36.2137V12.301C29.1135 12.1055 30 11.1236 30 9.94608V7.49116C29.95 6.12275 28.868 5.04077 27.5451 5.04077ZM14.925 1.89939C16.8389 1.89939 18.4119 3.22688 18.7528 5.04077H11.0471C11.4381 3.27232 13.011 1.89939 14.925 1.89939ZM26.0721 36.2682C26.0721 37.0047 25.4811 37.6412 24.6992 37.6412H5.20534C4.46887 37.6412 3.83241 37.0502 3.83241 36.2682V12.3555H26.0267V36.2682H26.0721ZM28.1315 9.90059C28.1315 10.2461 27.886 10.4916 27.5405 10.4916H2.40034C2.05483 10.4916 1.80932 10.2461 1.80932 9.90059V7.44568C1.80932 7.10016 2.05483 6.85465 2.40034 6.85465H27.4905C27.836 6.85465 28.0815 7.10016 28.0815 7.44568V9.90059H28.1315ZM7.90571 32.9268V17.4154C7.90571 16.9244 8.29667 16.5334 8.78768 16.5334C9.27869 16.5334 9.66965 16.9244 9.66965 17.4154V32.9268C9.66965 33.4178 9.27869 33.8088 8.78768 33.8088C8.29672 33.8633 7.90571 33.4178 7.90571 32.9268ZM14.1385 32.9268V17.4154C14.1385 16.9244 14.5295 16.5334 15.0205 16.5334C15.5114 16.5334 15.9024 16.9244 15.9024 17.4154V32.9268C15.9024 33.4178 15.5115 33.8088 15.0205 33.8088C14.534 33.8633 14.1385 33.4178 14.1385 32.9268ZM20.3758 32.9268V17.4154C20.3758 16.9244 20.7667 16.5334 21.2578 16.5334C21.7488 16.5334 22.1397 16.9244 22.1397 17.4154V32.9268C22.1397 33.4178 21.7488 33.8088 21.2578 33.8088C20.8168 33.8633 20.3758 33.4178 20.3758 32.9268Z" />
  </symbol>

  <symbol id="upload" viewBox="0 0 30 30" fill="none">
    <path fill-rule="evenodd" clip-rule="evenodd"
      d="M15.7945 0.365451C15.5957 0.133496 15.3054 0 14.9999 0C14.6944 0 14.4042 0.133496 14.2053 0.365451L10.0193 5.24917C9.64315 5.688 9.69398 6.34866 10.1328 6.7248C10.5716 7.10094 11.2323 7.05012 11.6084 6.61129L13.9534 3.8755V19.186C13.9534 19.764 14.4219 20.2326 14.9999 20.2326C15.5779 20.2326 16.0464 19.764 16.0464 19.186V3.8755L18.3914 6.61129C18.7675 7.05012 19.4282 7.10094 19.867 6.7248C20.3058 6.34866 20.3567 5.688 19.9805 5.24917L15.7945 0.365451ZM8.02903 11.8633C8.60699 11.8601 9.07294 11.389 9.06975 10.811C9.06656 10.233 8.59545 9.76709 8.01748 9.77028C6.50825 9.77861 5.25049 9.81488 4.22273 10.0038C3.16515 10.1982 2.26519 10.5683 1.53303 11.3005C0.693003 12.1405 0.331595 13.198 0.162656 14.454C-4.98629e-05 15.6636 -2.7282e-05 17.2015 7.32349e-07 19.1095V19.1095V20.6581V20.6581C-2.72819e-05 22.5667 -4.98571e-05 24.1046 0.162656 25.3142C0.331617 26.5704 0.693463 27.6279 1.53303 28.4684C2.37262 29.308 3.43037 29.6689 4.68614 29.8376C5.89587 30.0001 7.43405 30.0001 9.34207 30H9.34213H20.6579H20.6579C22.5659 30.0001 24.1041 30.0001 25.3139 29.8376C26.5696 29.6689 27.6274 29.308 28.467 28.4684C29.307 27.6284 29.6684 26.5709 29.8373 25.3147C30.0001 24.1049 30 22.5667 30 20.6581V20.6581V19.1095V19.1094C30 17.2015 30.0001 15.6636 29.8373 14.454C29.6684 13.198 29.307 12.1405 28.467 11.3005C27.7348 10.5683 26.8349 10.1982 25.7773 10.0038C24.7495 9.81488 23.4918 9.77861 21.9825 9.77028C21.4046 9.76709 20.9334 10.233 20.9302 10.811C20.9271 11.389 21.393 11.8601 21.971 11.8633C23.4966 11.8717 24.5782 11.9115 25.3989 12.0623C26.1898 12.2077 26.6475 12.441 26.987 12.7805C27.3735 13.167 27.6253 13.7093 27.763 14.733C27.9048 15.7868 27.907 17.1835 27.907 19.1861V20.5814C27.907 22.5847 27.9048 23.9817 27.763 25.0358C27.6253 26.0596 27.3735 26.6019 26.987 26.9884C26.6015 27.3739 26.0594 27.6256 25.0352 27.7632C23.9811 27.9048 22.584 27.907 20.5814 27.907H9.41861C7.41603 27.907 6.01893 27.9048 4.9648 27.7632C3.94094 27.6256 3.39894 27.3741 3.01344 26.9888C2.6265 26.6014 2.37467 26.0587 2.237 25.0352C2.09525 23.9814 2.09303 22.5847 2.09303 20.5814V19.1861C2.09303 17.1835 2.09525 15.7868 2.237 14.733C2.37469 13.7093 2.62654 13.167 3.01302 12.7805C3.35248 12.441 3.8102 12.2077 4.60111 12.0623C5.42184 11.9115 6.50338 11.8717 8.02903 11.8633Z"
      fill="black" />
  </symbol>




  <symbol id="book" viewBox="0 0 101 82" fill="none">
    <path
      d="M83.3518 0.0456061C83.5905 0.0524224 83.8291 0.0592388 84.0749 0.0662617C88.4522 0.230328 88.4522 0.230328 89.6761 1.36449C90.4712 2.4957 90.5723 3.32788 90.5405 4.69174C90.5394 4.87364 90.5383 5.05554 90.5371 5.24295C90.5327 5.81968 90.5229 6.39617 90.5128 6.97283C90.5089 7.36558 90.5053 7.75835 90.502 8.15111C90.4934 9.1102 90.4798 10.0691 90.4636 11.0281C90.7807 11.0234 90.7807 11.0234 91.1041 11.0187C91.8955 11.0079 92.6869 11.0012 93.4783 10.9956C93.8195 10.9926 94.1607 10.9886 94.5019 10.9834C94.995 10.9762 95.488 10.9729 95.9812 10.9703C96.1314 10.9673 96.2816 10.9642 96.4363 10.9611C97.6801 10.9607 98.9563 11.1609 99.9439 11.9656C100.031 12.0833 100.118 12.201 100.208 12.3223C100.345 12.4996 100.345 12.4996 100.485 12.6805C100.909 13.3102 100.923 13.7187 100.924 14.4748C100.925 14.7057 100.926 14.9365 100.927 15.1744C100.926 15.5582 100.926 15.5582 100.926 15.9498C100.927 16.2226 100.928 16.4955 100.929 16.7683C100.931 17.5206 100.931 18.273 100.932 19.0253C100.933 19.8357 100.934 20.6461 100.936 21.4565C100.94 23.4149 100.942 25.3734 100.944 27.3318C100.945 28.2534 100.946 29.1751 100.947 30.0968C100.95 33.1596 100.953 36.2224 100.954 39.2853C100.955 40.0804 100.955 40.8756 100.956 41.6707C100.956 41.8684 100.956 42.066 100.956 42.2696C100.957 45.4724 100.962 48.6751 100.969 51.8779C100.975 55.1641 100.979 58.4504 100.98 61.7367C100.98 63.5826 100.982 65.4284 100.987 67.2743C100.991 68.8462 100.993 70.418 100.991 71.9898C100.99 72.792 100.99 73.5941 100.994 74.3963C100.997 75.1306 100.997 75.8649 100.994 76.5992C100.993 76.9908 100.997 77.3824 101 77.7741C100.988 79.4098 100.817 80.1144 99.6793 81.2863C98.8246 81.8191 97.9133 82.0928 96.8995 81.9716C96.4002 81.8516 95.9129 81.7089 95.4221 81.5575C95.0226 81.4443 94.6227 81.3325 94.2225 81.2216C94.0022 81.1605 93.7819 81.0994 93.555 81.0364C90.0895 80.1153 86.5497 79.3482 83.0073 78.7965C82.8269 78.7682 82.6466 78.74 82.4607 78.7109C78.9168 78.1973 75.3759 78.0063 71.7983 78.02C71.6012 78.0203 71.404 78.0207 71.2009 78.021C68.2003 78.0302 65.2704 78.1279 62.3119 78.6732C62.1266 78.706 61.9413 78.7388 61.7503 78.7726C58.5195 79.3601 55.2915 80.2547 52.2756 81.5698C50.3474 82.4095 48.8432 81.6261 47.0014 80.9384C44.6027 80.0434 42.2415 79.3172 39.7216 78.8458C39.5555 78.8145 39.3893 78.7832 39.2181 78.7509C35.9667 78.1726 32.7569 78.0011 29.4601 78.0076C29.2546 78.0077 29.0491 78.0078 28.8374 78.008C20.8169 78.0271 12.9221 79.3163 5.24643 81.6669C4.00455 81.9931 2.74665 82.0598 1.57905 81.4959C0.129016 80.1522 0.129013 80.1522 0.0772068 79.1868C0.0768547 78.9863 0.0765062 78.7858 0.0761434 78.5792C0.0752658 78.3483 0.0743861 78.1174 0.0734819 77.8796C0.0735182 77.6237 0.0735587 77.3678 0.0735961 77.1042C0.0729469 76.8314 0.072208 76.5585 0.0713972 76.2857C0.069421 75.5334 0.0686926 74.781 0.068171 74.0287C0.0674037 73.2183 0.0655232 72.4079 0.0638033 71.5975C0.0599094 69.6391 0.0579245 67.6806 0.0561733 65.7222C0.055311 64.8006 0.0542552 63.8789 0.0532235 62.9572C0.0498741 59.8944 0.0470248 56.8316 0.0455995 53.7687C0.0452235 52.9736 0.044843 52.1784 0.044458 51.3833C0.0443628 51.1856 0.0442678 50.988 0.0441697 50.7843C0.0425351 47.5816 0.037549 44.3789 0.0311567 41.1761C0.0246509 37.8899 0.0210982 34.6036 0.0204687 31.3173C0.020042 29.4714 0.0183119 27.6256 0.0132893 25.7797C0.00902243 24.2078 0.00743067 22.636 0.0093482 21.0642C0.0102448 20.262 0.00986023 19.4599 0.0060499 18.6577C0.00259199 17.9234 0.00275924 17.1891 0.00582761 16.4548C0.00652002 16.0632 0.0033279 15.6715 0 15.2799C0.0153424 13.1643 0.0153441 13.1643 0.890026 12.2114C2.06684 11.0643 3.42047 10.9687 4.98036 10.9896C5.14008 10.9901 5.29981 10.9907 5.46437 10.9913C5.96979 10.9934 6.47514 10.9984 6.98054 11.0034C7.32518 11.0054 7.66982 11.0072 8.01446 11.0088C8.85514 11.0132 9.69576 11.0199 10.5364 11.0281C10.5313 10.7854 10.5261 10.5428 10.5208 10.2928C10.5029 9.38715 10.4916 8.48157 10.4823 7.57584C10.4774 7.18484 10.4707 6.79387 10.4622 6.40294C10.4501 5.83891 10.4446 5.27513 10.4403 4.711C10.4352 4.53796 10.4301 4.36492 10.4249 4.18664C10.4243 2.94906 10.7048 2.1102 11.5207 1.16727C13.4166 -0.292528 16.4839 0.114083 18.7501 0.118936C19.3496 0.119553 19.9489 0.114943 20.5485 0.109932C24.1539 0.0980828 27.7081 0.460118 31.2195 1.30286C31.4312 1.35313 31.6429 1.4034 31.861 1.4552C39.153 3.25592 45.3446 6.95147 50.3031 12.6058C51.0117 12.3127 51.3866 11.919 51.8781 11.3362C58.1196 4.24575 67.6902 0.955705 76.8799 0.181192C77.0095 0.169021 77.1391 0.15685 77.2726 0.14431C79.3013 -0.0404501 81.3168 -0.016926 83.3518 0.0456061ZM17.4267 7.08376C17.4267 24.3303 17.4267 41.5769 17.4267 59.3461C19.3107 59.4111 21.1947 59.4762 23.1358 59.5433C31.5919 60.335 39.3349 62.4989 46.0613 67.8325C46.5263 68.2184 46.5263 68.2184 46.9564 68.418C47.0014 62.2845 47.0362 56.151 47.057 50.0173C47.0594 49.2921 47.062 48.5669 47.0646 47.8417C47.0651 47.6974 47.0656 47.553 47.0661 47.4043C47.0747 45.071 47.0902 42.7378 47.1083 40.4046C47.1268 38.008 47.1377 35.6115 47.1417 33.2148C47.1444 31.7375 47.1528 30.2605 47.1689 28.7833C47.1806 27.6479 47.1817 26.5127 47.1791 25.3772C47.1796 24.9134 47.1835 24.4496 47.1911 23.9858C47.2361 21.0885 47.0059 19.2815 44.9878 17.1418C44.6961 16.793 44.4048 16.4438 44.1142 16.0941C43.177 15.0859 42.1398 14.2322 41.0505 13.3947C40.8805 13.2607 40.7104 13.1267 40.5352 12.9887C33.8574 7.89696 25.5484 7.08376 17.4267 7.08376ZM76.154 7.31795C75.9336 7.3442 75.7132 7.37045 75.4861 7.39749C69.2405 8.19338 63.0619 10.393 58.4177 14.7667C57.9809 15.1696 57.9809 15.1696 57.5018 15.5309C56.8724 16.0636 56.4006 16.6611 55.9015 17.3143C55.8092 17.4326 55.717 17.5508 55.6219 17.6726C55.3539 18.0189 55.0884 18.3651 54.831 18.7195C54.6974 18.8816 54.5638 19.0436 54.4262 19.2106C53.8724 20.0532 53.9367 20.907 53.9489 21.8869C53.9482 22.0861 53.9475 22.2852 53.9468 22.4903C53.9455 23.1572 53.9499 23.8239 53.9542 24.4907C53.9544 24.9688 53.9543 25.447 53.9538 25.9251C53.9536 26.9544 53.9559 27.9835 53.9603 29.0127C53.9667 30.5008 53.9688 31.9888 53.9697 33.4769C53.9715 35.8912 53.9767 38.3056 53.9842 40.72C53.9914 43.065 53.997 45.41 54.0003 47.7551C54.0005 47.8997 54.0007 48.0443 54.0009 48.1933C54.002 48.9187 54.003 49.6442 54.0039 50.3696C54.0121 56.3858 54.026 62.4019 54.0436 68.418C54.1503 68.3377 54.257 68.2574 54.3669 68.1747C54.5076 68.0688 54.6484 67.963 54.7934 67.8539C54.9325 67.7492 55.0717 67.6445 55.2151 67.5367C63.7698 61.1331 73.0455 59.7097 83.5733 59.3461C83.5733 42.0995 83.5733 24.8529 83.5733 7.08376C79.8409 7.04712 79.8409 7.04712 76.154 7.31795ZM6.99284 18.1279C6.99284 36.4808 6.99284 54.8337 6.99284 73.7428C8.23328 73.5169 9.4509 73.2879 10.6779 73.0131C20.1125 70.9315 29.6849 70.5203 39.2787 71.5735C35.2891 68.1466 29.0028 66.907 23.9232 66.4458C23.6885 66.424 23.4538 66.4021 23.2119 66.3796C20.8182 66.189 18.3949 66.1482 15.9986 66.3141C15.8315 66.3254 15.6643 66.3368 15.4921 66.3485C15.1756 66.3716 14.8594 66.3978 14.5435 66.4276C13.4944 66.5065 12.8433 66.3617 11.9145 65.8542C11.411 65.4098 11.0343 64.8796 10.7333 64.2765C10.7119 63.6752 10.7028 63.0784 10.7021 62.477C10.7007 62.1939 10.7007 62.1939 10.6992 61.905C10.6961 61.2684 10.6945 60.6319 10.6929 59.9954C10.691 59.5407 10.689 59.0859 10.6869 58.6312C10.6816 57.3934 10.6775 56.1556 10.6736 54.9177C10.6693 53.6254 10.6639 52.333 10.6586 51.0406C10.6498 48.8704 10.6418 46.7001 10.6343 44.5299C10.6266 42.2943 10.6184 40.0586 10.6097 37.823C10.6092 37.6853 10.6086 37.5475 10.6081 37.4056C10.6054 36.7146 10.6027 36.0236 10.6 35.3326C10.5775 29.5977 10.5566 23.8628 10.5364 18.1279C9.36703 18.1279 8.19765 18.1279 6.99284 18.1279ZM90.4636 18.1279C90.4629 18.7034 90.4622 19.2789 90.4614 19.8719C90.4545 25.1495 90.4436 30.427 90.4286 35.7046C90.4266 36.3963 90.4247 37.088 90.4227 37.7797C90.4222 37.9862 90.4222 37.9862 90.4216 38.1969C90.4155 40.4267 90.4121 42.6564 90.4098 44.8861C90.4074 47.1739 90.4019 49.4618 90.3938 51.7496C90.3893 53.0347 90.3862 54.3197 90.3864 55.6048C90.3866 56.814 90.3831 58.0232 90.3767 59.2323C90.3751 59.6764 90.3747 60.1205 90.3758 60.5646C90.3771 61.1706 90.3736 61.7763 90.3689 62.3822C90.3704 62.5583 90.372 62.7344 90.3735 62.9159C90.3586 63.9944 90.1844 64.5967 89.4793 65.4598C89.3899 65.5736 89.3006 65.6875 89.2086 65.8049C88.228 66.5605 87.1672 66.4675 86.0095 66.3719C85.6738 66.3498 85.338 66.3285 85.0021 66.3079C84.8304 66.2974 84.6586 66.2869 84.4817 66.2761C76.5809 65.8547 68.5297 67.2147 61.7213 71.3762C62.4528 71.6205 63.0312 71.5059 63.7761 71.4009C73.1851 70.1949 82.8847 71.2704 92.076 73.4303C92.7144 73.5634 93.3616 73.6505 94.0072 73.7428C94.0072 55.3899 94.0072 37.037 94.0072 18.1279C92.8378 18.1279 91.6684 18.1279 90.4636 18.1279Z"
      fill="#94B071" />
  </symbol>

  <symbol id="cross" viewBox="0 0 38 38" fill="none">
    <path d="M3 3L35.5708 35.5708" stroke="#94B071" stroke-width="6" />
    <path d="M3 35.5708L35.5708 2.99996" stroke="#94B071" stroke-width="6" />
  </symbol>

  <symbol id="hm-logo" viewBox="0 0 85 39" fill="none">
    <path
      d="M5.73566 0.376358C6.70624 0.934046 7.30623 1.76302 7.95476 2.65299C8.12136 2.8779 8.28809 3.10271 8.45493 3.32745C8.83556 3.84156 9.21414 4.35713 9.59209 4.8732C10.2139 5.71922 10.8503 6.55361 11.4892 7.38677C12.3976 8.57202 13.291 9.76682 14.174 10.971C14.8748 11.9243 15.5893 12.8663 16.309 13.8055C17.2173 14.9907 18.1107 16.1855 18.9938 17.3897C19.6945 18.343 20.4091 19.285 21.1288 20.2242C22.0367 21.409 22.9298 22.6032 23.8125 23.8069C24.6206 24.9064 25.4467 25.9918 26.2789 27.0732C26.3776 27.2017 26.4763 27.3303 26.578 27.4627C26.6837 27.5948 26.7895 27.7269 26.8984 27.8629C27.1629 28.2295 27.3627 28.5633 27.5689 28.9609C28.0232 29.7797 28.4621 30.568 29.4016 30.8587C30.5613 31.0353 31.7211 30.9542 32.887 30.8852C33.2427 30.8731 33.5984 30.8621 33.9542 30.8523C34.821 30.8259 35.6863 30.7858 36.552 30.7348C35.6635 29.4881 34.7728 28.2437 33.861 27.0139C33.6677 26.7526 33.4744 26.4912 33.2811 26.2298C33.1843 26.099 33.0874 25.9682 32.9877 25.8334C32.515 25.1944 32.0433 24.5546 31.5716 23.9149C31.3841 23.6608 31.1967 23.4068 31.0093 23.1527C29.8847 21.6283 28.7601 20.1038 27.6354 18.5794C27.5426 18.4536 27.4499 18.3278 27.3542 18.1982C27.1669 17.9443 26.9796 17.6904 26.7923 17.4364C26.3222 16.7989 25.8517 16.1616 25.3806 15.5249C24.3681 14.1556 23.3608 12.783 22.3667 11.4004C21.9509 10.8227 21.5321 10.248 21.1043 9.67908C21.0238 9.57146 20.9432 9.46385 20.8603 9.35297C20.7104 9.15323 20.5597 8.95415 20.4079 8.75592C19.4971 7.53882 19.1606 6.41412 19.3615 4.89953C19.7218 3.71173 20.3708 2.93639 21.4501 2.33205C22.4623 1.85541 23.5372 1.83532 24.6131 2.12896C25.8083 2.64378 26.4903 3.54873 27.2338 4.5786C27.3132 4.68748 27.3925 4.79636 27.4743 4.90854C27.9194 5.51961 28.3613 6.13285 28.8015 6.74741C29.4872 7.70072 30.2047 8.6288 30.9289 9.55308C31.7637 8.48305 32.585 7.40493 33.3879 6.31079C33.7691 5.79146 34.1526 5.27388 34.5361 4.75622C34.746 4.47086 34.9524 4.1835 35.1575 3.89473C35.9611 2.80777 36.7893 2.1518 38.1511 1.9359C39.3221 1.87592 40.2632 2.11389 41.2111 2.81346C41.8061 3.41379 42.2813 4.02968 42.3357 4.89953C42.4417 4.89953 42.5478 4.89953 42.657 4.89953C42.6637 4.79362 42.6703 4.68771 42.6771 4.5786C42.9742 3.56123 43.6069 2.85169 44.5247 2.33205C45.5922 1.86138 46.6232 1.81757 47.7448 2.13084C48.9464 2.63882 49.6196 3.55217 50.3686 4.5786C50.5484 4.82045 50.7283 5.06218 50.9084 5.30383C51.2981 5.82875 51.6858 6.35514 52.0719 6.88281C52.7278 7.77903 53.3944 8.66691 54.0638 9.55308C55.6569 7.53472 55.6569 7.53472 57.1766 5.46117C57.3049 5.28079 57.4334 5.10047 57.5619 4.92022C57.7915 4.59799 58.02 4.27503 58.2472 3.95114C59.0687 2.8413 59.8932 2.1567 61.2859 1.9359C62.4564 1.87595 63.3989 2.11328 64.3459 2.81346C65.1866 3.67746 65.6738 4.59514 65.7015 5.81219C65.6546 7.64929 64.5067 8.9041 63.4322 10.3003C62.8917 11.0035 62.3725 11.7208 61.8557 12.4415C61.1195 13.4654 60.3701 14.478 59.6097 15.4841C59.0089 16.281 58.422 17.0872 57.8393 17.8974C57.1029 18.9212 56.3537 19.9339 55.5932 20.94C54.9924 21.7369 54.4055 22.5431 53.8228 23.3533C53.1632 24.2703 52.4957 25.1801 51.8146 26.0812C51.1006 27.0261 50.3995 27.9796 49.7059 28.9395C49.5717 29.1252 49.5717 29.1252 49.4348 29.3147C49.0965 29.7842 48.7621 30.2534 48.4407 30.7348C52.5919 31.2562 52.5919 31.2562 56.5654 30.4532C57.4065 29.731 57.8786 28.821 58.3364 27.8253C58.6951 27.0941 59.1884 26.481 59.6868 25.8405C59.8716 25.5903 60.0557 25.3395 60.2391 25.0883C60.9553 24.1175 61.6905 23.1613 62.4243 22.2037C63.1283 21.2834 63.8215 20.3561 64.5066 19.4218C65.4041 18.1979 66.3209 16.9897 67.2441 15.785C67.948 14.8647 68.6412 13.9374 69.3264 13.0031C70.2239 11.7792 71.1406 10.571 72.0638 9.36629C72.7678 8.44602 73.461 7.51873 74.1461 6.58444C74.9716 5.45914 75.8097 4.34412 76.6564 3.23468C76.7649 3.09247 76.8735 2.95026 76.9853 2.80374C77.1851 2.54255 77.3854 2.28175 77.5863 2.02142C77.7904 1.7563 77.9914 1.48887 78.1915 1.22069C78.8147 0.511319 79.6445 0.15878 80.5674 0.00715771C81.7376 -0.0455586 82.6777 0.187461 83.625 0.887848C84.4656 1.75185 84.9529 2.66953 84.9805 3.88658C84.987 4.03944 84.9934 4.19231 85 4.34981C84.7772 5.71454 83.9281 6.81012 83.0727 7.85815C82.8713 8.1107 82.6703 8.36352 82.4696 8.61661C82.3677 8.74491 82.2658 8.87321 82.1608 9.0054C81.6778 9.62254 81.2154 10.2542 80.7532 10.887C79.9556 11.9765 79.1447 13.0547 78.3232 14.1264C77.5093 15.1886 76.7047 16.2566 75.9134 17.3358C75.0158 18.5597 74.0991 19.7679 73.1759 20.9726C72.472 21.8929 71.7787 22.8201 71.0936 23.7544C70.1961 24.9784 69.2793 26.1866 68.3561 27.3913C67.6522 28.3116 66.959 29.2388 66.2738 30.1731C65.4825 31.2523 64.6779 32.3203 63.864 33.3825C63.0038 34.5052 62.1528 35.634 61.3135 36.7724C61.2189 36.9007 61.1242 37.0291 61.0267 37.1613C60.6783 37.6354 60.3349 38.1082 60.0082 38.5977C59.5463 38.6516 59.118 38.6737 58.655 38.6761C58.5133 38.6786 58.3716 38.6812 58.2256 38.6838C57.7479 38.6918 57.2701 38.6963 56.7923 38.7007C56.4509 38.7056 56.1094 38.7106 55.768 38.7158C54.6435 38.7317 53.519 38.7423 52.3944 38.7519C52.2031 38.7536 52.0117 38.7553 51.8146 38.757C50.0093 38.7727 48.2041 38.7863 46.3988 38.7952C44.0906 38.8066 41.783 38.8282 39.475 38.8638C37.8519 38.8879 36.2289 38.9003 34.6056 38.9041C33.6364 38.9067 32.6678 38.9144 31.6988 38.9347C30.7854 38.9537 29.8732 38.9579 28.9597 38.9513C28.6258 38.9514 28.292 38.9566 27.9583 38.9676C25.5091 39.0438 25.5091 39.0438 24.6304 38.2965C23.9652 37.5641 23.4436 36.7568 22.9472 35.904C22.6739 35.4458 22.3643 35.0384 22.0325 34.6211C21.9353 34.4946 21.8382 34.3681 21.7381 34.2378C21.6431 34.1144 21.548 33.991 21.4501 33.8639C20.5415 32.6788 19.6483 31.4838 18.7653 30.2797C18.0646 29.3264 17.35 28.3843 16.6303 27.4452C15.722 26.2599 14.8286 25.0651 13.9456 23.861C13.2448 22.9077 12.5302 21.9656 11.8106 21.0265C10.9023 19.8412 10.0088 18.6465 9.12581 17.4423C8.42504 16.489 7.71047 15.5469 6.9908 14.6078C6.08343 13.4237 5.18958 12.2311 4.30922 11.0268C3.80616 10.3408 3.29504 9.66247 2.77289 8.99082C2.65764 8.84209 2.54239 8.69337 2.42364 8.54013C2.20224 8.25526 1.97974 7.97125 1.75591 7.68828C0.735121 6.37311 -0.0776727 5.15843 0.00591806 3.44906C0.184577 2.34035 0.641988 1.50182 1.52841 0.807614C2.80089 -0.0738602 4.29968 -0.242169 5.73566 0.376358ZM42.3357 6.82514C42.292 6.92189 42.2484 7.01865 42.2034 7.11834C41.6862 8.2121 41.0464 9.12794 40.2974 10.0746C40.0668 10.3711 39.8364 10.6678 39.6064 10.9647C39.4955 11.1075 39.3845 11.2504 39.2703 11.3975C38.8666 11.9239 38.4797 12.4605 38.0983 13.0031C37.3451 14.0702 36.5529 15.1034 35.7487 16.1322C36.015 16.7194 36.3759 17.2272 36.7528 17.7469C36.8227 17.8439 36.8925 17.9409 36.9645 18.0408C37.6513 18.9916 38.3463 19.9366 39.0457 20.8782C39.5532 21.5614 40.0545 22.2481 40.5471 22.9421C40.6482 23.0831 40.7494 23.2241 40.8535 23.3695C41.0484 23.6415 41.2417 23.9148 41.4331 24.1893C41.521 24.3112 41.6088 24.4331 41.6993 24.5587C41.8142 24.7211 41.8142 24.7211 41.9313 24.8869C42.1966 25.1921 42.1966 25.1921 42.8177 25.1184C43.1402 24.7574 43.4137 24.4087 43.6913 24.0152C43.7749 23.9002 43.8586 23.7852 43.9448 23.6667C44.2137 23.2962 44.4797 22.9236 44.7456 22.5509C44.9196 22.3097 45.0939 22.0686 45.2684 21.8276C45.5293 21.467 45.7902 21.1063 46.0502 20.7451C46.876 19.5988 47.7229 18.4689 48.5752 17.3422C48.7989 17.0464 49.0216 16.7499 49.244 16.4532C49.0276 15.9938 48.7817 15.5958 48.4784 15.1889C48.3895 15.069 48.3006 14.9492 48.209 14.8257C48.0652 14.6334 48.0652 14.6334 47.9186 14.4373C47.7146 14.1626 47.5107 13.8878 47.3067 13.613C47.0956 13.3295 46.8846 13.046 46.6735 12.7624C44.4778 9.8074 44.4778 9.8074 43.5808 8.5301C43.4706 8.37331 43.3605 8.21652 43.2469 8.05497C42.9944 7.65304 42.8161 7.2711 42.657 6.82514C42.551 6.82514 42.445 6.82514 42.3357 6.82514Z"
      fill="#BABABA" />
  </symbol>

  <symbol id="toggler" viewBox="0 0 44 44" fill="none">
    <path
      d="M0.4124 10.4182C0.440453 10.3451 0.468506 10.272 0.49741 10.1967C1.05221 8.90928 2.44097 7.85696 3.41053 6.88427C3.53614 6.75823 3.66171 6.63215 3.78726 6.50606C4.18182 6.10982 4.57654 5.71375 4.97151 5.31792C5.42447 4.86398 5.87687 4.40949 6.32878 3.95451C6.6806 3.60037 7.03292 3.24673 7.38561 2.89346C7.59525 2.68346 7.80468 2.47327 8.01359 2.26254C8.24632 2.02781 8.48008 1.79413 8.71394 1.56053C8.78179 1.4918 8.84964 1.42307 8.91955 1.35226C9.78596 0.491116 10.5743 0.0183296 11.8024 0C12.7503 0.00445938 13.4707 0.278549 14.1746 0.932976C15.0665 1.8965 15.1722 2.71642 15.1839 3.98758C15.1857 4.13809 15.1887 4.2886 15.1927 4.43907C15.2326 5.94857 15.2326 5.94857 14.7714 6.51131C14.3393 6.93029 14.0415 7.01009 13.4463 7.04021C12.9474 7.0248 12.6284 6.93328 12.2247 6.6431C11.6929 6.07378 11.6676 5.55731 11.6578 4.80429C11.6552 4.70879 11.6527 4.6133 11.6501 4.51491C11.6441 4.28071 11.6395 4.04659 11.6364 3.81233C11.6014 3.84754 11.5664 3.88275 11.5304 3.91903C11.1636 4.28814 10.7966 4.65694 10.4294 5.02557C10.2927 5.16286 10.1561 5.30024 10.0196 5.43769C9.82241 5.63617 9.62495 5.83436 9.42744 6.03251C9.36726 6.09321 9.30707 6.15391 9.24507 6.21645C8.96967 6.49224 8.69196 6.76012 8.39638 7.0142C7.9368 7.41138 7.51013 7.84232 7.0803 8.27111C7.03588 8.31535 6.99146 8.35959 6.94569 8.40517C6.71128 8.63861 6.47711 8.87228 6.24315 9.10617C6.00252 9.34665 5.76109 9.58632 5.51948 9.82581C5.33257 10.0114 5.14624 10.1975 4.96006 10.3838C4.87129 10.4724 4.78231 10.5608 4.6931 10.649C4.56847 10.7723 4.44469 10.8965 4.32107 11.0208C4.25064 11.091 4.18022 11.1612 4.10767 11.2335C3.78253 11.6153 3.63067 11.9657 3.62536 12.4665C3.62271 12.5494 3.62006 12.6324 3.61733 12.7178C3.77218 13.5523 4.53014 14.1472 5.10768 14.7188C5.20728 14.8183 5.30684 14.9178 5.40634 15.0174C5.6143 15.2252 5.82267 15.4326 6.03138 15.6397C6.29727 15.9035 6.56241 16.1681 6.82727 16.4329C7.08204 16.6876 7.3372 16.9418 7.59237 17.196C7.66408 17.2676 7.66408 17.2676 7.73724 17.3406C8.33878 17.9441 8.33878 17.9441 8.97066 18.5151C9.5181 18.9842 10.0152 19.5099 10.5225 20.0214C10.6308 20.1303 10.7392 20.2392 10.8475 20.348C11.1107 20.6125 11.3736 20.8772 11.6364 21.1421C11.6367 21.0475 11.637 20.9528 11.6373 20.8553C11.6405 19.9605 11.6454 19.0657 11.6521 18.1708C11.6555 17.7109 11.6582 17.2509 11.6596 16.7909C11.6609 16.3465 11.6638 15.902 11.6679 15.4576C11.6692 15.2886 11.6699 15.1196 11.6699 14.9506C11.671 13.6831 11.7477 12.6667 12.6645 11.7051C13.5161 10.8911 14.4173 10.7097 15.5661 10.7167C15.6837 10.7161 15.8013 10.7155 15.9189 10.7147C16.2396 10.7129 16.5603 10.7133 16.881 10.714C17.2278 10.7144 17.5746 10.7129 17.9214 10.7116C18.5998 10.7094 19.2782 10.7091 19.9566 10.7095C20.508 10.7098 21.0595 10.7095 21.6109 10.7088C21.6895 10.7087 21.7681 10.7086 21.8491 10.7085C22.0088 10.7083 22.1684 10.7081 22.3281 10.7079C23.8239 10.706 25.3198 10.7064 26.8156 10.7074C28.1835 10.7083 29.5514 10.7064 30.9193 10.7031C32.3251 10.6998 33.7308 10.6984 35.1365 10.699C35.9253 10.6993 36.7141 10.6989 37.5028 10.6965C38.174 10.6944 38.8452 10.6942 39.5164 10.6963C39.8587 10.6973 40.201 10.6975 40.5433 10.6954C40.8569 10.6936 41.1705 10.6941 41.4841 10.6965C41.6507 10.6972 41.8173 10.6953 41.9839 10.6933C42.6558 10.7017 43.091 10.8186 43.5946 11.2761C43.9874 11.7366 43.9996 12.1848 43.9812 12.7815C43.9049 13.2968 43.6764 13.6427 43.2767 13.9698C42.6394 14.3769 41.8477 14.2909 41.1238 14.2891C41.0127 14.2892 40.9016 14.2893 40.7872 14.2894C40.4799 14.2896 40.1725 14.2892 39.8652 14.2888C39.5334 14.2884 39.2016 14.2885 38.8698 14.2886C38.2953 14.2886 37.7208 14.2884 37.1463 14.2879C36.3156 14.2872 35.4849 14.287 34.6543 14.2869C33.3065 14.2867 31.9588 14.2861 30.611 14.2853C29.3019 14.2845 27.9928 14.2839 26.6838 14.2835C26.603 14.2835 26.5223 14.2835 26.4392 14.2835C26.0342 14.2834 25.6293 14.2832 25.2244 14.2831C21.866 14.2822 18.5076 14.2807 15.1492 14.2788C15.15 14.3779 15.1507 14.4771 15.1515 14.5792C15.1585 15.5157 15.1636 16.4522 15.1669 17.3888C15.1687 17.8702 15.1712 18.3516 15.175 18.833C15.1788 19.298 15.1808 19.763 15.1817 20.2281C15.1823 20.4051 15.1836 20.582 15.1854 20.759C15.1879 21.0078 15.1883 21.2566 15.1881 21.5055C15.1893 21.5778 15.1906 21.6501 15.1918 21.7246C15.186 22.5789 14.8322 23.3185 14.2549 23.941C13.3711 24.7613 12.6125 24.961 11.4272 24.94C10.1209 24.8855 9.27426 23.9505 8.40105 23.0736C8.32236 22.9952 8.24367 22.9169 8.1626 22.8361C7.94926 22.6237 7.73646 22.4106 7.52379 22.1975C7.34531 22.0187 7.16657 21.8401 6.98784 21.6616C6.56595 21.2401 6.14452 20.8181 5.72337 20.3959C5.29057 19.962 4.85698 19.5289 4.42301 19.0962C4.04859 18.7228 3.67468 18.3489 3.30115 17.9747C3.07885 17.7519 2.85637 17.5294 2.6334 17.3073C2.38479 17.0597 2.13725 16.811 1.88978 16.5622C1.81686 16.4898 1.74395 16.4175 1.66882 16.3429C1.09025 15.7585 0.626674 15.1656 0.342786 14.3861C0.308658 14.2945 0.27453 14.2029 0.239368 14.1086C-0.135289 12.9547 -0.064562 11.5268 0.4124 10.4182Z"
      fill="#393939" />
    <path
      d="M0.164399 30.685C0.421213 30.2686 0.719047 29.9801 1.18351 29.807C1.56539 29.7565 1.94446 29.7607 2.32919 29.7634C2.44637 29.763 2.56355 29.7625 2.68072 29.7618C3.00188 29.7603 3.32301 29.761 3.64417 29.7621C3.99087 29.7629 4.33756 29.7617 4.68426 29.7607C5.36321 29.7592 6.04215 29.7595 6.7211 29.7605C7.27312 29.7613 7.82513 29.7614 8.37714 29.761C8.45574 29.761 8.53433 29.7609 8.6153 29.7609C8.77497 29.7608 8.93464 29.7607 9.09431 29.7606C10.5916 29.7596 12.0889 29.7607 13.5862 29.7625C14.87 29.7641 16.1538 29.7638 17.4376 29.7622C18.929 29.7604 20.4205 29.7597 21.9119 29.7607C22.0711 29.7608 22.2303 29.7609 22.3895 29.761C22.5069 29.7611 22.5069 29.7611 22.6268 29.7612C23.1777 29.7615 23.7287 29.761 24.2797 29.7602C24.9517 29.7592 25.6237 29.7595 26.2957 29.7613C26.6384 29.7622 26.981 29.7626 27.3237 29.7614C27.6379 29.7604 27.952 29.761 28.2661 29.7628C28.4326 29.7634 28.5991 29.7623 28.7656 29.7611C29.7895 29.7702 30.5951 30.0362 31.3425 30.7507C32.327 31.7833 32.3366 32.8982 32.3372 34.2477C32.3385 34.4194 32.3399 34.5912 32.3415 34.7629C32.3452 35.2121 32.347 35.6613 32.3482 36.1105C32.3499 36.5701 32.3535 37.0296 32.357 37.4891C32.3634 38.3886 32.3677 39.2881 32.3707 40.1877C32.407 40.1512 32.4433 40.1146 32.4807 40.077C32.5571 40.0003 32.5571 40.0003 32.6349 39.922C32.691 39.8656 32.7472 39.8092 32.805 39.751C32.9275 39.6278 33.0501 39.5046 33.1726 39.3814C33.4251 39.1277 33.6775 38.8738 33.9298 38.6198C34.1016 38.4469 34.2736 38.2742 34.4457 38.1015C34.5014 38.0453 34.5571 37.9891 34.6145 37.9312C34.8804 37.6649 35.1491 37.4072 35.4346 37.1621C35.909 36.7517 36.349 36.3058 36.7929 35.8629C36.8392 35.8168 36.8855 35.7707 36.9332 35.7231C37.1776 35.4797 37.4218 35.236 37.6657 34.9921C37.9167 34.7412 38.1685 34.4912 38.4205 34.2413C38.6154 34.0478 38.8096 33.8537 39.0038 33.6595C39.0964 33.567 39.1892 33.4748 39.2822 33.3828C39.4122 33.2541 39.5413 33.1246 39.6702 32.995C39.7437 32.9217 39.8172 32.8485 39.8929 32.773C40.2187 32.3923 40.377 32.0398 40.387 31.5389C40.3907 31.4569 40.3943 31.375 40.3981 31.2905C40.2208 30.4452 39.4523 29.8275 38.8615 29.2433C38.7678 29.1497 38.6741 29.0561 38.5805 28.9624C38.3852 28.7672 38.1894 28.5724 37.9933 28.378C37.7437 28.1304 37.4948 27.8821 37.2461 27.6336C37.0066 27.3942 36.7667 27.1552 36.5268 26.9162C36.4819 26.8715 36.4371 26.8268 36.3909 26.7807C35.9427 26.3339 35.4915 25.8953 35.0112 25.4828C34.7441 25.248 34.4951 24.9956 34.2449 24.743C34.1907 24.6886 34.1365 24.6342 34.0807 24.5782C33.9103 24.4071 33.7403 24.2357 33.5702 24.0643C33.4536 23.9472 33.337 23.8301 33.2204 23.713C32.937 23.4282 32.6537 23.1431 32.3707 22.8579C32.3708 22.9162 32.3709 22.9746 32.371 23.0347C32.3699 23.3029 32.365 23.5709 32.36 23.8391C32.3602 23.9309 32.3604 24.0226 32.3606 24.1171C32.3446 24.7727 32.2083 25.1947 31.7709 25.689C31.3111 26.0823 30.8635 26.0945 30.2675 26.0761C29.8236 26.0102 29.5069 25.8453 29.2006 25.5174C28.8878 25.0538 28.8064 24.7294 28.8123 24.1753C28.812 24.1058 28.8117 24.0363 28.8113 23.9647C28.8111 23.8184 28.8117 23.6721 28.8132 23.5259C28.815 23.3044 28.8132 23.0832 28.811 22.8618C28.8092 21.7509 28.9687 20.9037 29.7521 20.059C30.5489 19.3195 31.3264 19.0184 32.4064 19.0386C33.812 19.1048 34.6555 19.9719 35.606 20.9264C35.6847 21.0048 35.7634 21.0831 35.8444 21.1639C36.0578 21.3763 36.2706 21.5893 36.4832 21.8025C36.6617 21.9813 36.8405 22.1599 37.0192 22.3384C37.4411 22.7599 37.8625 23.1819 38.2837 23.6041C38.7165 24.038 39.15 24.4711 39.584 24.9038C39.9584 25.2772 40.3324 25.6511 40.7059 26.0253C40.9282 26.2481 41.1507 26.4706 41.3736 26.6927C41.6222 26.9403 41.8698 27.189 42.1172 27.4378C42.1902 27.5102 42.2631 27.5825 42.3382 27.6571C42.9318 28.2567 43.3967 28.8568 43.6642 29.6622C43.6984 29.7627 43.7325 29.8632 43.7677 29.9668C44.1265 31.1164 44.0703 32.4762 43.5946 33.5818C43.5666 33.6549 43.5385 33.728 43.5096 33.8033C42.9548 35.0907 41.5661 36.143 40.5965 37.1157C40.4709 37.2418 40.3453 37.3678 40.2198 37.4939C39.8252 37.8902 39.4305 38.2863 39.0355 38.6821C38.5826 39.136 38.1302 39.5905 37.6782 40.0455C37.3264 40.3996 36.9741 40.7533 36.6214 41.1065C36.4118 41.3165 36.2024 41.5267 35.9934 41.7375C35.7607 41.9722 35.5269 42.2059 35.2931 42.4395C35.2252 42.5082 35.1574 42.5769 35.0875 42.6477C34.2211 43.5089 33.4328 43.9817 32.2047 44C31.2609 43.9956 30.5526 43.7225 29.8431 43.0831C29.1342 42.3023 28.8151 41.6275 28.8287 40.5608C28.8286 40.482 28.8286 40.4033 28.8285 40.3221C28.8287 40.0645 28.8307 39.8069 28.8327 39.5493C28.8332 39.3696 28.8336 39.1899 28.8338 39.0102C28.8348 38.5392 28.8373 38.0683 28.8402 37.5974C28.8428 37.116 28.844 36.6347 28.8453 36.1533C28.848 35.2103 28.8524 34.2674 28.8578 33.3244C28.7723 33.3245 28.7723 33.3245 28.6851 33.3246C25.3067 33.3284 21.9282 33.3314 18.5498 33.3332C18.1441 33.3334 17.7384 33.3336 17.3327 33.3338C17.2519 33.3339 17.1712 33.3339 17.0879 33.334C15.7804 33.3347 14.4728 33.3361 13.1652 33.3376C11.8234 33.3392 10.4816 33.3402 9.13977 33.3405C8.31188 33.3408 7.48399 33.3415 6.6561 33.3429C6.08829 33.3438 5.52049 33.3441 4.95269 33.3439C4.62515 33.3438 4.29763 33.3439 3.97009 33.3448C3.61467 33.3458 3.25927 33.3455 2.90385 33.345C2.80075 33.3455 2.69765 33.346 2.59143 33.3465C1.77705 33.3436 1.02532 33.3153 0.4124 32.7239C-0.0549878 32.1599 -0.106231 31.3629 0.164399 30.685Z"
      fill="#393939" />
  </symbol>

  <symbol id="translator" viewBox="0 0 91 91" fill="none">
    <path
      d="M7.58598 0.0423734C7.77433 0.0411672 7.77433 0.0411672 7.96649 0.0399366C8.38516 0.0376987 8.8038 0.0379798 9.22248 0.0382735C9.52354 0.0372109 9.82461 0.036003 10.1257 0.034661C10.9422 0.031529 11.7588 0.0306936 12.5754 0.030467C13.0862 0.0302144 13.5969 0.0294561 14.1077 0.0285158C15.8915 0.0252329 17.6752 0.0237824 19.459 0.0240618C21.1186 0.0242748 22.7783 0.0205333 24.4379 0.0149242C25.8651 0.0102736 27.2923 0.0083793 28.7195 0.00860581C29.5709 0.00869606 30.4222 0.00769821 31.2736 0.00392831C32.0751 0.000476079 32.8765 0.000474794 33.6781 0.00304685C33.971 0.00341614 34.2639 0.00259095 34.5569 0.000434289C37.2677 -0.018219 39.3654 0.560254 41.376 2.46353C43.2331 4.43754 43.6252 6.92973 43.9372 9.54385C43.9706 9.8102 44.0041 10.0765 44.0378 10.3428C44.1291 11.0682 44.2178 11.7938 44.306 12.5195C44.402 13.3045 44.5003 14.0893 44.5983 14.8742C44.7897 16.409 44.9788 17.9441 45.1672 19.4793C45.3868 21.2685 45.6085 23.0575 45.8304 24.8465C46.2262 28.0391 46.62 31.232 47.0126 34.4249C47.3934 37.5207 47.7756 40.6163 48.1595 43.7116C48.6449 47.6248 49.1289 51.5381 49.6118 55.4516C49.7656 56.6977 49.9199 57.9437 50.0743 59.1898C50.2625 60.7086 50.4499 62.2276 50.6361 63.7467C50.7311 64.5212 50.8264 65.2957 50.9228 66.0701C51.0111 66.7798 51.0983 67.4896 51.1846 68.1995C51.216 68.4554 51.2477 68.7113 51.2798 68.9672C51.7581 72.7775 51.7581 72.7775 51.2094 73.8187C51.0813 73.9688 50.9533 74.1189 50.8213 74.2735C50.761 74.3982 50.7007 74.5228 50.6386 74.6513C50.0506 75.2103 49.3479 75.0809 48.5683 75.0736C48.3003 75.0752 48.3003 75.0752 48.0268 75.0769C47.425 75.0798 46.8234 75.0775 46.2216 75.0753C45.7913 75.0762 45.361 75.0775 44.9307 75.079C43.8812 75.0819 42.8317 75.0815 41.7822 75.0795C40.9285 75.0779 40.0749 75.0776 39.2213 75.0784C39.0391 75.0786 39.0391 75.0786 38.8532 75.0787C38.6065 75.079 38.3598 75.0792 38.113 75.0794C35.7972 75.0815 33.4814 75.0791 31.1656 75.0753C29.181 75.0721 27.1964 75.0727 25.2119 75.076C22.9066 75.0798 20.6013 75.0813 18.2961 75.0791C18.0498 75.0788 17.8035 75.0786 17.5573 75.0784C17.4361 75.0783 17.3149 75.0782 17.1901 75.0781C16.3388 75.0775 15.4875 75.0785 14.6362 75.0802C13.4878 75.0824 12.3394 75.0808 11.191 75.0767C10.7702 75.0758 10.3494 75.076 9.92857 75.0776C9.35249 75.0795 8.77657 75.0771 8.2005 75.0736C7.95282 75.0759 7.95282 75.0759 7.70015 75.0784C5.62334 75.0538 3.93987 74.2101 2.3971 72.8537C1.06106 71.4327 0.0481821 69.6559 0.0455475 67.6707C0.0444036 67.4521 0.0432596 67.2336 0.0420811 67.0085C0.0426029 66.7674 0.0431588 66.5264 0.0437456 66.2853C0.0430826 66.0281 0.0422666 65.7709 0.0413104 65.5137C0.0391411 64.8076 0.0391869 64.1015 0.0396052 63.3954C0.0396776 62.6336 0.0377195 61.8718 0.0360373 61.11C0.0330908 59.6176 0.0321157 58.1252 0.0319179 56.6329C0.0317493 55.4195 0.03102 54.2062 0.0298954 52.9929C0.0267711 49.5521 0.0251351 46.1114 0.0254011 42.6706C0.0254153 42.4851 0.0254291 42.2996 0.0254437 42.1085C0.0254582 41.9228 0.0254728 41.7371 0.0254877 41.5457C0.0256319 38.5369 0.0222382 35.528 0.0172354 32.5192C0.0121378 29.4289 0.00968957 26.3386 0.00999595 23.2484C0.0101137 21.5138 0.00914171 19.7791 0.00532101 18.0445C0.00208836 16.5674 0.00132162 15.0903 0.00372819 13.6132C0.00488532 12.8599 0.00491097 12.1067 0.00182885 11.3534C-0.000967276 10.663 -0.000447283 9.97254 0.00263947 9.28205C0.00318273 9.03316 0.00254416 8.78426 0.000560146 8.53537C-0.0177752 6.07071 0.583465 4.26012 2.21972 2.39698C3.72155 0.983513 5.50256 0.0479039 7.58598 0.0423734ZM19.6471 19.8226C18.6666 21.0489 18.4812 22.5322 18.1833 24.0364C18.1326 24.2869 18.0819 24.5375 18.031 24.788C17.8938 25.4658 17.7583 26.1439 17.6232 26.8221C17.51 27.3897 17.396 27.9572 17.2819 28.5247C17.0127 29.8646 16.7449 31.2048 16.478 32.5451C16.2034 33.9241 15.9264 35.3026 15.6482 36.6809C15.4089 37.8674 15.1709 39.0542 14.9342 40.2413C14.793 40.9488 14.6514 41.6563 14.5083 42.3634C14.3737 43.0291 14.2409 43.6951 14.1095 44.3615C14.0613 44.6046 14.0124 44.8476 13.9628 45.0905C13.3544 47.593 13.3544 47.593 13.971 49.9708C14.4159 50.5327 14.8758 50.8056 15.5882 50.9067C16.6041 50.9225 17.2196 50.8476 18.0064 50.1372C18.6623 49.2896 18.779 48.2879 18.9785 47.2609C19.0171 47.0691 19.0557 46.8774 19.0955 46.6798C19.2182 46.0689 19.3384 45.4576 19.4587 44.8463C19.5415 44.4313 19.6246 44.0164 19.7078 43.6016C19.9113 42.586 20.1117 41.5699 20.3123 40.5537C22.8293 40.5537 25.3463 40.5537 27.9396 40.5537C28.0594 41.1691 28.1792 41.7845 28.3026 42.4185C28.4207 43.016 28.5395 43.6133 28.6584 44.2106C28.7405 44.6249 28.8217 45.0394 28.902 45.4541C29.0177 46.0511 29.1366 46.6473 29.256 47.2436C29.2912 47.4283 29.3263 47.613 29.3625 47.8033C29.6045 48.9908 29.8692 49.8259 30.7998 50.6474C31.5658 50.9473 32.2723 50.9642 33.0835 50.8471C33.8654 50.4631 34.3662 50.0694 34.6799 49.2498C34.8222 47.7089 34.523 46.236 34.2162 44.7335C34.1662 44.4817 34.1164 44.2299 34.0667 43.9781C33.9325 43.2998 33.7959 42.622 33.6587 41.9442C33.515 41.2324 33.3733 40.5201 33.2312 39.8079C32.9926 38.613 32.7525 37.4184 32.5114 36.224C32.2332 34.8454 31.9573 33.4663 31.6826 32.087C31.4176 30.7562 31.151 29.4258 30.8837 28.0955C30.7702 27.5309 30.6573 26.9662 30.5449 26.4015C30.4123 25.7364 30.2784 25.0716 30.1435 24.4069C30.0943 24.1637 30.0456 23.9204 29.9974 23.677C29.5757 21.287 29.5757 21.287 28.1169 19.4344C27.2572 19.1352 26.5022 19.034 25.5948 19.0323C25.4775 19.032 25.3601 19.0316 25.2392 19.0313C24.993 19.031 24.7468 19.0317 24.5005 19.0332C24.1269 19.0351 23.7534 19.0332 23.3797 19.0309C23.1388 19.0311 22.8979 19.0316 22.657 19.0323C22.4411 19.0327 22.2251 19.0331 22.0026 19.0335C21.0894 19.1005 20.3695 19.2477 19.6471 19.8226Z"
      fill="#94B071" />
    <path
      d="M49.7571 16.2399C54.2563 16.2233 58.7555 16.2108 63.2548 16.2031C65.344 16.1994 67.4332 16.1944 69.5223 16.1863C71.3437 16.1792 73.165 16.1747 74.9864 16.1731C75.9504 16.1722 76.9144 16.17 77.8784 16.1648C78.7867 16.16 79.695 16.1585 80.6034 16.1596C80.9358 16.1594 81.2682 16.158 81.6006 16.1552C84.4223 16.1332 86.5831 16.5897 88.7138 18.5581C90.0283 19.9165 90.9519 21.8189 90.9545 23.7246C90.9556 23.9418 90.9567 24.1591 90.9579 24.383C90.9574 24.6227 90.9568 24.8623 90.9563 25.102C90.9569 25.3577 90.9577 25.6134 90.9587 25.8692C90.9609 26.5712 90.9608 27.2733 90.9604 27.9753C90.9603 28.7328 90.9623 29.4902 90.964 30.2477C90.9669 31.7315 90.9679 33.2154 90.9681 34.6992C90.9683 35.9056 90.969 37.1119 90.9701 38.3183C90.9732 41.7395 90.9749 45.1606 90.9746 48.5817C90.9746 48.7662 90.9746 48.9506 90.9746 49.1406C90.9745 49.3253 90.9745 49.5099 90.9745 49.7001C90.9744 52.6918 90.9778 55.6834 90.9828 58.6751C90.9879 61.7477 90.9903 64.8203 90.99 67.8929C90.9899 69.6176 90.9909 71.3423 90.9947 73.067C90.9979 74.5357 90.9987 76.0043 90.9963 77.473C90.9951 78.222 90.9951 78.9709 90.9982 79.7198C91.001 80.4064 91.0005 81.0928 90.9974 81.7794C90.9968 82.0269 90.9975 82.2743 90.9994 82.5218C91.0178 84.9811 90.4127 86.7901 88.7803 88.6488C87.8898 89.4869 86.8972 90.1386 85.7649 90.601C85.6171 90.6617 85.4694 90.7224 85.3172 90.785C84.527 91.0041 83.8061 91.004 82.9901 90.9987C82.7334 90.9991 82.7334 90.9991 82.4715 90.9996C81.8988 91.0002 81.3261 90.9982 80.7533 90.9963C80.3425 90.9962 79.9317 90.9962 79.5208 90.9964C78.4057 90.9965 77.2906 90.9944 76.1755 90.992C75.01 90.9897 73.8446 90.9895 72.6792 90.9891C70.7231 90.9882 68.7671 90.9859 66.811 90.9827C64.7965 90.9795 62.782 90.977 60.7675 90.9755C60.6433 90.9754 60.5191 90.9753 60.3911 90.9752C59.7678 90.9747 59.1446 90.9743 58.5213 90.9738C53.3531 90.9702 48.1849 90.9639 43.0167 90.956C43.1831 90.7311 43.3498 90.5065 43.5168 90.282C43.6096 90.1569 43.7024 90.0318 43.798 89.9029C44.2046 89.376 44.6531 88.8969 45.112 88.4159C45.7711 87.7141 46.4053 87.005 47.0077 86.2529C47.6853 85.408 48.4071 84.6179 49.1467 83.8279C49.8385 83.0847 50.4792 82.3097 51.1144 81.5173C51.5927 80.9433 52.0958 80.3982 52.6062 79.8528C55.086 77.1892 56.6522 74.918 56.5248 71.1904C56.4203 69.4072 56.1541 67.6327 55.9276 65.8616C55.8437 65.2027 55.7617 64.5436 55.6795 63.8845C55.5371 62.7453 55.3935 61.6062 55.2492 60.4672C55.0404 58.8199 54.8334 57.1724 54.627 55.5248C54.2918 52.8503 53.9552 50.176 53.6177 47.5018C53.2901 44.9069 52.9631 42.312 52.6369 39.7169C52.6167 39.5568 52.5966 39.3966 52.5759 39.2316C52.3562 37.4839 52.1366 35.7362 51.9171 33.9885C51.8589 33.5254 51.8007 33.0623 51.7426 32.5991C51.7042 32.2939 51.6659 31.9887 51.6276 31.6835C51.3836 29.7411 51.1391 27.7987 50.894 25.8565C50.7706 24.8784 50.6474 23.9002 50.5243 22.9221C50.4269 22.1479 50.3291 21.3737 50.2312 20.5995C50.1582 20.0219 50.0856 19.4443 50.013 18.8666C49.9736 18.5568 49.9736 18.5568 49.9335 18.2407C49.91 18.0533 49.8865 17.866 49.8623 17.6729C49.8419 17.5107 49.8214 17.3485 49.8003 17.1813C49.7571 16.7723 49.7571 16.7723 49.7571 16.2399ZM70.1556 35.9394C69.4239 36.9238 69.4202 37.9107 69.435 39.1006C69.4358 39.2236 69.4366 39.3465 69.4374 39.4732C69.4395 39.7742 69.4426 40.0752 69.4461 40.3762C69.3488 40.3754 69.2516 40.3746 69.1514 40.3738C68.1356 40.3659 67.1198 40.3606 66.104 40.3567C65.7253 40.3549 65.3467 40.3525 64.968 40.3494C64.4224 40.3451 63.8769 40.3431 63.3314 40.3415C63.1632 40.3397 62.995 40.3379 62.8217 40.336C61.641 40.3358 60.6515 40.3591 59.7235 41.1637C59.025 41.9825 58.9017 42.4331 58.9246 43.4806C59.0297 44.3137 59.4476 44.7834 60.0672 45.3122C60.8102 45.6192 61.5536 45.6555 62.3509 45.7004C62.3692 45.7982 62.3875 45.896 62.4063 45.9967C62.6085 46.9964 62.9121 47.8813 63.3376 48.8062C63.3996 48.9428 63.4615 49.0794 63.5254 49.2201C64.852 52.1049 66.3819 54.7599 68.3818 57.2361C67.9127 57.8562 67.4375 58.3499 66.8297 58.8334C66.6601 58.9695 66.4904 59.1056 66.3156 59.2459C66.1751 59.3579 66.1751 59.3579 66.0317 59.4721C65.4297 59.954 64.8333 60.4427 64.2356 60.9298C63.9977 61.1233 63.7599 61.3167 63.5219 61.51C63.4122 61.5996 63.3025 61.6892 63.1895 61.7815C62.9232 61.9957 62.6507 62.2021 62.3773 62.4071C61.8595 62.8563 61.6776 63.1928 61.5818 63.8678C61.566 64.8843 61.6409 65.5001 62.3509 66.2872C63.0287 66.8856 63.685 66.8871 64.5508 66.9077C65.6646 66.6949 66.5807 65.7189 67.4395 65.0117C67.5637 64.91 67.688 64.8083 67.816 64.7035C68.0657 64.499 68.3154 64.2943 68.5648 64.0894C68.8745 63.835 69.1847 63.5812 69.4953 63.3277C70.3103 62.6622 71.1229 61.994 71.9294 61.318C72.6225 61.5544 73.0464 61.8416 73.5701 62.3496C74.7239 63.4208 75.9776 64.3551 77.2356 65.2996C77.4915 65.4917 77.7467 65.6846 78.0016 65.878C78.1283 65.9739 78.2551 66.0698 78.3856 66.1687C78.4998 66.2553 78.614 66.342 78.7317 66.4313C79.4781 66.9688 80.2629 66.9182 81.153 66.8197C81.9346 66.4358 82.4299 66.0393 82.7494 65.2224C82.8684 64.3448 82.8883 63.7008 82.455 62.9111C82.0126 62.3481 81.5739 61.9742 80.9978 61.5509C80.7924 61.3976 80.5871 61.2442 80.3818 61.0906C80.2757 61.0119 80.1696 60.9332 80.0603 60.8521C79.5127 60.4426 78.9745 60.0212 78.4369 59.5987C78.333 59.5172 78.2291 59.4356 78.122 59.3516C77.3357 58.731 76.5725 58.0881 75.8317 57.4136C76.2564 56.7584 76.7046 56.1305 77.1731 55.5058C80.5178 50.9533 80.5178 50.9533 82.0399 45.7004C82.1556 45.6958 82.2713 45.6912 82.3905 45.6865C83.6138 45.6071 84.3722 45.3865 85.2105 44.4359C85.5103 43.6695 85.5271 42.9626 85.4101 42.1509C85.021 41.3579 84.6142 40.9248 83.8137 40.5537C83.2255 40.4123 82.6811 40.3544 82.0771 40.356C81.9138 40.3561 81.7505 40.3561 81.5823 40.3561C81.4084 40.357 81.2345 40.3579 81.0553 40.3589C80.8755 40.3591 80.6956 40.3594 80.5103 40.3596C79.9374 40.3606 79.3646 40.3628 78.7917 40.3651C78.4026 40.366 78.0136 40.3668 77.6245 40.3675C76.6721 40.3695 75.7198 40.3724 74.7674 40.3762C74.7715 40.1984 74.7756 40.0207 74.7799 39.8375C74.7832 39.5993 74.7864 39.361 74.7896 39.1228C74.7937 38.8901 74.7978 38.6575 74.802 38.4177C74.7539 37.4389 74.6284 36.7209 73.9803 35.9726C73.162 35.2737 72.7116 35.1504 71.6647 35.1733C71.0084 35.2562 70.6419 35.5002 70.1556 35.9394Z"
      fill="#94B071" />
    <path
      d="M31.1324 80.3076C35.8152 80.3076 40.4979 80.3076 45.3226 80.3076C44.6353 81.1099 43.9465 81.8983 43.2273 82.6702C42.4566 83.5014 41.6937 84.3389 40.9374 85.1833C40.4805 85.6905 40.0195 86.1938 39.5578 86.6966C38.9352 87.3753 38.3135 88.0548 37.6954 88.7376C37.5088 88.9435 37.5088 88.9435 37.3184 89.1535C37.0116 89.5066 36.7287 89.8678 36.4537 90.2461C34.5454 89.8055 33.2921 88.2277 32.2964 86.6467C31.3025 84.7762 31.1324 82.3962 31.1324 80.3076Z"
      fill="#94B071" />
    <path
      d="M68.0667 45.6105C71.052 45.6105 74.0373 45.6105 77.113 45.6105C76.7487 46.7042 76.3967 47.6606 75.8603 48.6609C75.7577 48.8538 75.7577 48.8538 75.6531 49.0506C74.9451 50.3493 74.1024 51.5323 73.2107 52.7095C73.106 52.8492 73.0013 52.989 72.8934 53.133C72.8225 53.2275 72.7516 53.322 72.6786 53.4193C71.9483 53.1758 71.7144 52.6753 71.315 52.055C71.2371 51.9356 71.1592 51.8163 71.0789 51.6933C68.0668 47.031 68.0667 47.031 68.0667 45.6105Z"
      fill="#94B071" />
    <path
      d="M24.5315 24.3027C24.7327 24.3064 24.9339 24.31 25.1412 24.3138C25.515 25.3194 25.7105 26.3496 25.9186 27.3988C25.9769 27.6894 25.9769 27.6894 26.0364 27.986C26.1181 28.3943 26.1995 28.8027 26.2806 29.2112C26.4049 29.8369 26.5307 30.4622 26.6566 31.0876C26.7359 31.4848 26.8151 31.882 26.8942 32.2793C26.9319 32.4664 26.9696 32.6535 27.0084 32.8462C27.06 33.1075 27.06 33.1075 27.1126 33.374C27.143 33.5269 27.1734 33.6797 27.2048 33.8372C27.2698 34.2523 27.2698 34.2523 27.2698 34.9622C25.4552 34.9622 23.6406 34.9622 21.771 34.9622C21.9706 33.1648 21.9706 33.1648 22.1286 32.3718C22.1635 32.1949 22.1984 32.0179 22.2344 31.8356C22.2717 31.6503 22.3091 31.465 22.3475 31.2741C22.3862 31.0798 22.4249 30.8855 22.4648 30.6853C22.5462 30.2778 22.6279 29.8703 22.7099 29.4629C22.8359 28.8365 22.9604 28.2099 23.0847 27.5832C23.1641 27.1866 23.2436 26.7901 23.3231 26.3936C23.3604 26.2054 23.3978 26.0172 23.4362 25.8233C23.4711 25.6508 23.5061 25.4784 23.5421 25.3006C23.5726 25.1482 23.6032 24.9958 23.6347 24.8387C23.7881 24.2296 23.8554 24.3146 24.5315 24.3027Z"
      fill="#94B071" />
  </symbol>

  <symbol id="right-arrow" viewBox="0 0 27 25" fill="none">
    <path
      d="M26.488 13.7003C27.1707 13.0374 27.1707 11.9626 26.488 11.2997L15.3625 0.497174C14.6798 -0.165725 13.5729 -0.165725 12.8902 0.497174C12.2074 1.16007 12.2074 2.23484 12.8902 2.89774L22.7795 12.5L12.8902 22.1022C12.2074 22.7651 12.2074 23.8399 12.8902 24.5028C13.5729 25.1657 14.6798 25.1657 15.3625 24.5028L26.488 13.7003ZM0 14.1974H25.2518V10.8025H3.05665e-07L0 14.1974Z"
      fill="#C98A86" />
  </symbol>

  <symbol id="testing" viewBox="0 0 31 32" fill="none">
    <path
      d="M3.81349 17.0143C3.89663 17.0139 3.97977 17.0135 4.06291 17.013C4.28763 17.0119 4.51234 17.0116 4.73706 17.0115C4.87784 17.0114 5.01862 17.0112 5.1594 17.0109C5.65165 17.0097 6.14389 17.0092 6.63614 17.0093C7.09317 17.0094 7.55018 17.0081 8.00721 17.0061C8.40104 17.0045 8.79487 17.0038 9.18871 17.0039C9.42328 17.0039 9.65784 17.0036 9.89241 17.0022C10.1134 17.001 10.3343 17.001 10.5552 17.0019C10.6737 17.0021 10.7921 17.0011 10.9105 17C11.9276 17.0073 12.7714 17.3777 13.4934 18.1056C14.2562 18.91 14.5182 19.834 14.5174 20.9365C14.5178 21.0223 14.5182 21.1081 14.5186 21.194C14.5197 21.4259 14.52 21.6579 14.5201 21.8899C14.5202 22.0352 14.5204 22.1805 14.5207 22.3258C14.5219 22.834 14.5223 23.3421 14.5223 23.8502C14.5222 24.322 14.5234 24.7937 14.5254 25.2655C14.5269 25.672 14.5276 26.0786 14.5275 26.4851C14.5275 26.7273 14.5278 26.9694 14.5291 27.2115C14.5303 27.4396 14.5303 27.6676 14.5294 27.8957C14.5292 28.018 14.5302 28.1402 14.5312 28.2624C14.5244 29.28 14.174 30.1557 13.4955 30.8922C12.6954 31.6975 11.8142 31.9865 10.7178 31.9857C10.6346 31.9861 10.5515 31.9865 10.4683 31.987C10.2436 31.9881 10.0189 31.9884 9.79419 31.9885C9.65341 31.9886 9.51263 31.9888 9.37185 31.9891C8.8796 31.9903 8.38736 31.9908 7.89511 31.9907C7.43808 31.9906 6.98107 31.9919 6.52404 31.9939C6.13021 31.9956 5.73638 31.9962 5.34254 31.9961C5.10797 31.9961 4.87341 31.9964 4.63884 31.9978C4.41789 31.999 4.19697 31.999 3.97602 31.9981C3.8576 31.9979 3.73918 31.9989 3.62076 32C2.63503 31.9929 1.78663 31.6312 1.07315 30.9309C0.293039 30.1049 0.0130505 29.1953 0.0138277 28.0635C0.0134664 27.9777 0.013056 27.8919 0.0126006 27.806C0.0115404 27.5741 0.0112531 27.3421 0.0111759 27.1101C0.0110899 26.9648 0.010832 26.8195 0.0105132 26.6742C0.0093992 26.166 0.00890511 25.6579 0.00900017 25.1498C0.0090725 24.678 0.00780192 24.2063 0.00589624 23.7345C0.00431326 23.328 0.00367311 22.9214 0.00374992 22.5149C0.00378048 22.2727 0.00344683 22.0306 0.00216104 21.7885C0.000982872 21.5604 0.000991564 21.3324 0.00186162 21.1043C0.00204527 20.982 0.00104919 20.8598 0 20.7376C0.00688466 19.72 0.35723 18.8443 1.03571 18.1078C1.83586 17.3025 2.71702 17.0135 3.81349 17.0143ZM2.80448 19.895C2.42461 20.3909 2.43377 20.8756 2.43401 21.4862C2.43381 21.5583 2.43361 21.6304 2.4334 21.7046C2.43283 21.9426 2.43271 22.1807 2.43264 22.4187C2.4325 22.5425 2.43235 22.6663 2.43219 22.7901C2.4317 23.1792 2.43156 23.5684 2.4316 23.9575C2.43164 24.358 2.431 24.7585 2.43005 25.159C2.42926 25.5037 2.42894 25.8484 2.42897 26.1931C2.42899 26.3986 2.42876 26.6041 2.42818 26.8096C2.42759 27.039 2.42776 27.2684 2.42813 27.4977C2.42779 27.5652 2.42745 27.6326 2.4271 27.7021C2.4292 28.2254 2.46406 28.6889 2.80448 29.1051C3.28497 29.4972 3.75445 29.4877 4.34598 29.4875C4.41582 29.4877 4.48565 29.4879 4.55761 29.4881C4.78819 29.4887 5.01877 29.4888 5.24935 29.4889C5.36929 29.489 5.48923 29.4892 5.60916 29.4893C5.98614 29.4899 6.36312 29.49 6.7401 29.49C7.12809 29.4899 7.51607 29.4906 7.90406 29.4916C8.23799 29.4924 8.57191 29.4927 8.90584 29.4927C9.10492 29.4927 9.30399 29.4929 9.50307 29.4935C9.72528 29.4941 9.94747 29.4939 10.1697 29.4935C10.235 29.4939 10.3004 29.4942 10.3677 29.4946C10.8746 29.4924 11.3236 29.4565 11.7268 29.1051C12.0455 28.6889 12.0962 28.3173 12.0953 27.7916C12.0953 27.7277 12.0953 27.7277 12.0954 27.6626C12.0953 27.5232 12.0948 27.3839 12.0944 27.2445C12.0943 27.1473 12.0942 27.0502 12.0941 26.9531C12.0939 26.6983 12.0933 26.4436 12.0926 26.1888C12.092 25.9285 12.0917 25.6682 12.0914 25.4079C12.0908 24.8979 12.0898 24.3878 12.0885 23.8777C11.7475 24.1698 11.4361 24.4835 11.1258 24.8097C11.022 24.918 10.9181 25.0262 10.8142 25.1345C10.6521 25.3037 10.4902 25.4731 10.3285 25.6429C10.1714 25.8077 10.0138 25.9719 9.85603 26.136C9.8081 26.1866 9.76017 26.2372 9.71079 26.2894C9.34017 26.6737 9.0298 26.962 8.47888 26.9659C8.41064 26.968 8.34241 26.9701 8.27211 26.9722C7.72717 26.8616 7.32584 26.3946 6.94795 26.0016C6.8971 25.9492 6.84625 25.8969 6.79387 25.843C6.68721 25.7331 6.58078 25.6229 6.47457 25.5124C6.31241 25.3441 6.1493 25.1767 5.98608 25.0094C5.88214 24.902 5.77824 24.7945 5.67441 24.6869C5.62593 24.6373 5.57745 24.5876 5.5275 24.5364C5.15765 24.1498 4.87995 23.829 4.88057 23.2593C4.89261 22.8694 4.94854 22.6036 5.21591 22.3219C5.53821 22.0388 5.84472 22.0405 6.25914 22.0278C6.8859 22.155 7.3229 22.7317 7.75168 23.1854C7.81596 23.2527 7.88029 23.3199 7.94466 23.3871C8.10062 23.5502 8.25599 23.7138 8.41105 23.8777C8.64826 23.7786 8.80748 23.6097 8.98394 23.4249C9.03251 23.3748 9.03251 23.3748 9.08205 23.3237C9.18867 23.2135 9.29487 23.103 9.40106 22.9924C9.47503 22.9158 9.54902 22.8392 9.62304 22.7627C9.81756 22.5614 10.0117 22.3598 10.2058 22.1581C10.404 21.9522 10.6025 21.7467 10.8011 21.5411C11.1903 21.138 11.5792 20.7344 11.9679 20.3306C11.9305 20.2609 11.8931 20.1913 11.8546 20.1195C11.8336 20.0804 11.8125 20.0412 11.7909 20.0008C11.7097 19.8668 11.6251 19.7953 11.4932 19.716C11.4548 19.6918 11.4164 19.6676 11.3768 19.6426C11.0031 19.4765 10.5841 19.5124 10.1853 19.5125C10.1154 19.5123 10.0456 19.5121 9.97364 19.5119C9.74306 19.5113 9.51248 19.5112 9.2819 19.5111C9.16196 19.511 9.04202 19.5108 8.92209 19.5107C8.54511 19.5101 8.16813 19.51 7.79115 19.51C7.40316 19.5101 7.01518 19.5094 6.62719 19.5084C6.29326 19.5076 5.95934 19.5073 5.62541 19.5073C5.42633 19.5073 5.22726 19.5071 5.02818 19.5065C4.80598 19.5059 4.58378 19.5061 4.36158 19.5065C4.29624 19.5061 4.23089 19.5058 4.16357 19.5054C3.65662 19.5076 3.20761 19.5435 2.80448 19.895Z"
      fill="#519EAF" />
    <path
      d="M20.2822 0.0142738C20.3654 0.0139008 20.4485 0.0134772 20.5317 0.0130071C20.7564 0.0119127 20.9811 0.0116161 21.2058 0.0115365C21.3466 0.0114477 21.4874 0.0111814 21.6282 0.0108523C22.1204 0.0097024 22.6126 0.00919237 23.1049 0.0092905C23.5619 0.00936516 24.0189 0.00805357 24.476 0.00608642C24.8698 0.00445238 25.2636 0.00379162 25.6575 0.00387091C25.892 0.00390245 26.1266 0.00355801 26.3612 0.00223075C26.5821 0.00101458 26.803 0.00102355 27.024 0.00192167C27.1424 0.00211125 27.2608 0.00108303 27.3792 0C28.3963 0.00733278 29.2401 0.377727 29.9622 1.10558C30.7249 1.91004 30.9869 2.83404 30.9862 3.93651C30.9865 4.02233 30.9869 4.10815 30.9874 4.19397C30.9885 4.42594 30.9887 4.6579 30.9888 4.88987C30.9889 5.03519 30.9892 5.18051 30.9895 5.32584C30.9906 5.83396 30.9911 6.34208 30.991 6.85021C30.9909 7.32198 30.9922 7.79374 30.9941 8.26551C30.9957 8.67204 30.9963 9.07858 30.9963 9.48512C30.9962 9.72726 30.9966 9.96938 30.9978 10.2115C30.999 10.4396 30.999 10.6676 30.9981 10.8957C30.998 11.018 30.9989 11.1402 31 11.2624C30.9931 12.28 30.6428 13.1557 29.9643 13.8922C29.1641 14.6975 28.283 14.9865 27.1865 14.9857C27.1034 14.9861 27.0202 14.9865 26.9371 14.987C26.7124 14.9881 26.4877 14.9884 26.2629 14.9885C26.1222 14.9886 25.9814 14.9888 25.8406 14.9891C25.3483 14.9903 24.8561 14.9908 24.3639 14.9907C23.9068 14.9906 23.4498 14.9919 22.9928 14.9939C22.599 14.9955 22.2051 14.9962 21.8113 14.9961C21.5767 14.9961 21.3422 14.9964 21.1076 14.9978C20.8866 14.999 20.6657 14.999 20.4448 14.9981C20.3263 14.9979 20.2079 14.9989 20.0895 15C19.1038 14.9929 18.2554 14.6312 17.5419 13.9309C16.7618 13.1049 16.4818 12.1953 16.4826 11.0635C16.4822 10.9777 16.4818 10.8919 16.4813 10.806C16.4803 10.5741 16.48 10.3421 16.4799 10.1101C16.4798 9.96481 16.4796 9.81949 16.4793 9.67416C16.4781 9.16604 16.4777 8.65792 16.4778 8.14979C16.4778 7.67802 16.4766 7.20626 16.4746 6.73449C16.4731 6.32796 16.4724 5.92142 16.4725 5.51488C16.4725 5.27274 16.4722 5.03062 16.4709 4.78848C16.4697 4.56041 16.4697 4.33236 16.4706 4.10428C16.4708 3.98204 16.4698 3.85979 16.4688 3.73756C16.4756 2.72003 16.826 1.84427 17.5045 1.10777C18.3046 0.302492 19.1858 0.0134715 20.2822 0.0142738ZM19.2732 2.89495C18.8934 3.39094 18.9025 3.87556 18.9028 4.48617C18.9026 4.55826 18.9024 4.63035 18.9021 4.70463C18.9016 4.94265 18.9015 5.18067 18.9014 5.41869C18.9012 5.54249 18.9011 5.6663 18.9009 5.7901C18.9005 6.17924 18.9003 6.56838 18.9003 6.95752C18.9004 7.35803 18.8997 7.75853 18.8988 8.15903C18.898 8.50373 18.8977 8.84843 18.8977 9.19313C18.8977 9.39863 18.8975 9.60412 18.8969 9.80962C18.8963 10.039 18.8965 10.2684 18.8969 10.4977C18.8965 10.5652 18.8962 10.6326 18.8958 10.7021C18.8979 11.2254 18.9328 11.6889 19.2732 12.105C19.7537 12.4972 20.2232 12.4877 20.8147 12.4875C20.8846 12.4877 20.9544 12.4879 21.0264 12.4881C21.2569 12.4887 21.4875 12.4888 21.7181 12.4889C21.838 12.489 21.958 12.4892 22.0779 12.4893C22.4549 12.4899 22.8319 12.49 23.2088 12.49C23.5968 12.4899 23.9848 12.4906 24.3728 12.4916C24.7067 12.4924 25.0407 12.4927 25.3746 12.4927C25.5737 12.4927 25.7727 12.4929 25.9718 12.4935C26.194 12.4941 26.4162 12.4939 26.6384 12.4935C26.7038 12.4939 26.7691 12.4942 26.8364 12.4946C27.3434 12.4924 27.7924 12.4565 28.1955 12.105C28.5142 11.6889 28.565 11.3173 28.5641 10.7916C28.5641 10.7277 28.5641 10.7277 28.5641 10.6626C28.5641 10.5232 28.5636 10.3839 28.5631 10.2445C28.563 10.1473 28.5629 10.0502 28.5629 9.95306C28.5626 9.69832 28.562 9.44359 28.5614 9.18885C28.5608 8.92854 28.5605 8.66824 28.5602 8.40793C28.5595 7.89785 28.5585 7.38777 28.5572 6.8777C28.2162 7.16975 27.9049 7.4835 27.5945 7.80969C27.4907 7.91797 27.3869 8.02622 27.283 8.13446C27.1209 8.30373 26.9589 8.47314 26.7973 8.64288C26.6402 8.80767 26.4825 8.97186 26.3248 9.13598C26.2768 9.18661 26.2289 9.23724 26.1795 9.28941C25.8089 9.67373 25.4985 9.96201 24.9476 9.96588C24.8794 9.96797 24.8112 9.97005 24.7409 9.9722C24.1959 9.8616 23.7946 9.39462 23.4167 9.00155C23.3659 8.94924 23.315 8.89694 23.2626 8.84304C23.156 8.73307 23.0495 8.62287 22.9433 8.51244C22.7812 8.34405 22.6181 8.17668 22.4548 8.00939C22.3509 7.90197 22.247 7.79448 22.1432 7.68693C22.0947 7.63727 22.0462 7.5876 21.9962 7.53643C21.6264 7.14985 21.3487 6.82901 21.3493 6.25928C21.3614 5.86938 21.4173 5.60359 21.6847 5.32194C22.007 5.0388 22.3135 5.04047 22.7279 5.0278C23.3547 5.15501 23.7916 5.73174 24.2204 6.18538C24.2847 6.25268 24.349 6.31994 24.4134 6.38715C24.5694 6.55017 24.7247 6.71376 24.8798 6.8777C25.117 6.7786 25.2762 6.60969 25.4527 6.42492C25.5013 6.37481 25.5013 6.37481 25.5508 6.3237C25.6574 6.21355 25.7636 6.10297 25.8698 5.99237C25.9438 5.91579 26.0178 5.83923 26.0918 5.76269C26.2863 5.56143 26.4805 5.35979 26.6745 5.15807C26.8727 4.9522 27.0713 4.74669 27.2698 4.54114C27.6591 4.13796 28.048 3.73439 28.4367 3.33056C28.3993 3.26092 28.3619 3.19128 28.3234 3.11953C28.3023 3.08036 28.2813 3.04119 28.2596 3.00083C28.1784 2.86675 28.0938 2.79533 27.9619 2.71604C27.9235 2.69181 27.8851 2.66759 27.8456 2.64263C27.4718 2.47651 27.0529 2.51236 26.654 2.51253C26.5842 2.51232 26.5143 2.51211 26.4424 2.5119C26.2118 2.51131 25.9812 2.51118 25.7506 2.51112C25.6307 2.51097 25.5108 2.51082 25.3908 2.51065C25.0139 2.51015 24.6369 2.50999 24.2599 2.51004C23.8719 2.51008 23.4839 2.50942 23.0959 2.50844C22.762 2.50762 22.4281 2.50729 22.0942 2.50733C21.8951 2.50734 21.696 2.50711 21.4969 2.50651C21.2747 2.5059 21.0525 2.50608 20.8303 2.50645C20.765 2.5061 20.6996 2.50575 20.6323 2.50539C20.1254 2.50756 19.6764 2.54355 19.2732 2.89495Z"
      fill="#519EAF" />
    <path
      d="M20.2822 17.0143C20.3654 17.0139 20.4485 17.0135 20.5317 17.013C20.7564 17.0119 20.9811 17.0116 21.2058 17.0115C21.3466 17.0114 21.4874 17.0112 21.6282 17.0109C22.1204 17.0097 22.6126 17.0092 23.1049 17.0093C23.5619 17.0094 24.0189 17.0081 24.476 17.0061C24.8698 17.0045 25.2636 17.0038 25.6575 17.0039C25.892 17.0039 26.1266 17.0036 26.3612 17.0022C26.5821 17.001 26.803 17.001 27.024 17.0019C27.1424 17.0021 27.2608 17.0011 27.3792 17C28.365 17.0071 29.2134 17.3688 29.9268 18.0691C30.707 18.8951 30.9869 19.8047 30.9862 20.9365C30.9865 21.0223 30.9869 21.1081 30.9874 21.194C30.9885 21.4259 30.9887 21.6579 30.9888 21.8899C30.9889 22.0352 30.9892 22.1805 30.9895 22.3258C30.9906 22.834 30.9911 23.3421 30.991 23.8502C30.9909 24.322 30.9922 24.7937 30.9941 25.2655C30.9957 25.672 30.9963 26.0786 30.9963 26.4851C30.9962 26.7273 30.9966 26.9694 30.9978 27.2115C30.999 27.4396 30.999 27.6676 30.9981 27.8957C30.998 28.018 30.9989 28.1402 31 28.2624C30.9931 29.28 30.6428 30.1557 29.9643 30.8922C29.1641 31.6975 28.283 31.9865 27.1865 31.9857C27.1034 31.9861 27.0202 31.9865 26.9371 31.987C26.7124 31.9881 26.4877 31.9884 26.2629 31.9885C26.1222 31.9886 25.9814 31.9888 25.8406 31.9891C25.3483 31.9903 24.8561 31.9908 24.3639 31.9907C23.9068 31.9906 23.4498 31.9919 22.9928 31.9939C22.599 31.9956 22.2051 31.9962 21.8113 31.9961C21.5767 31.9961 21.3422 31.9964 21.1076 31.9978C20.8866 31.999 20.6657 31.999 20.4448 31.9981C20.3263 31.9979 20.2079 31.9989 20.0895 32C19.1038 31.9929 18.2554 31.6312 17.5419 30.9309C16.7618 30.1049 16.4818 29.1953 16.4826 28.0635C16.4822 27.9777 16.4818 27.8919 16.4813 27.806C16.4803 27.5741 16.48 27.3421 16.4799 27.1101C16.4798 26.9648 16.4796 26.8195 16.4793 26.6742C16.4781 26.166 16.4777 25.6579 16.4778 25.1498C16.4778 24.678 16.4766 24.2063 16.4746 23.7345C16.4731 23.328 16.4724 22.9214 16.4725 22.5149C16.4725 22.2727 16.4722 22.0306 16.4709 21.7885C16.4697 21.5604 16.4697 21.3324 16.4706 21.1043C16.4708 20.982 16.4698 20.8598 16.4688 20.7376C16.4756 19.72 16.826 18.8443 17.5045 18.1078C18.3046 17.3025 19.1858 17.0135 20.2822 17.0143ZM19.2732 19.895C18.8934 20.3909 18.9025 20.8756 18.9028 21.4862C18.9026 21.5583 18.9024 21.6304 18.9021 21.7046C18.9016 21.9426 18.9015 22.1807 18.9014 22.4187C18.9012 22.5425 18.9011 22.6663 18.9009 22.7901C18.9005 23.1792 18.9003 23.5684 18.9003 23.9575C18.9004 24.358 18.8997 24.7585 18.8988 25.159C18.898 25.5037 18.8977 25.8484 18.8977 26.1931C18.8977 26.3986 18.8975 26.6041 18.8969 26.8096C18.8963 27.039 18.8965 27.2684 18.8969 27.4977C18.8965 27.5652 18.8962 27.6326 18.8958 27.7021C18.8979 28.2254 18.9328 28.6889 19.2732 29.1051C19.7537 29.4972 20.2232 29.4877 20.8147 29.4875C20.8846 29.4877 20.9544 29.4879 21.0264 29.4881C21.2569 29.4887 21.4875 29.4888 21.7181 29.4889C21.838 29.489 21.958 29.4892 22.0779 29.4893C22.4549 29.4899 22.8319 29.49 23.2088 29.49C23.5968 29.4899 23.9848 29.4906 24.3728 29.4916C24.7067 29.4924 25.0407 29.4927 25.3746 29.4927C25.5737 29.4927 25.7727 29.4929 25.9718 29.4935C26.194 29.4941 26.4162 29.4939 26.6384 29.4935C26.7038 29.4939 26.7691 29.4942 26.8364 29.4946C27.3434 29.4924 27.7924 29.4565 28.1955 29.1051C28.5754 28.6091 28.5662 28.1244 28.566 27.5138C28.5662 27.4417 28.5664 27.3696 28.5666 27.2954C28.5672 27.0574 28.5673 26.8193 28.5674 26.5813C28.5675 26.4575 28.5676 26.3337 28.5678 26.2099C28.5683 25.8208 28.5684 25.4316 28.5684 25.0425C28.5684 24.642 28.569 24.2415 28.57 23.841C28.5707 23.4963 28.5711 23.1516 28.571 22.8069C28.571 22.6014 28.5712 22.3959 28.5718 22.1904C28.5724 21.961 28.5722 21.7316 28.5719 21.5023C28.5722 21.4348 28.5726 21.3674 28.5729 21.2979C28.5708 20.7746 28.5359 20.3111 28.1955 19.895C27.715 19.5028 27.2455 19.5123 26.654 19.5125C26.5842 19.5123 26.5143 19.5121 26.4424 19.5119C26.2118 19.5113 25.9812 19.5112 25.7506 19.5111C25.6307 19.511 25.5108 19.5108 25.3908 19.5107C25.0139 19.5101 24.6369 19.51 24.2599 19.51C23.8719 19.5101 23.4839 19.5094 23.0959 19.5084C22.762 19.5076 22.4281 19.5073 22.0942 19.5073C21.8951 19.5073 21.696 19.5071 21.4969 19.5065C21.2747 19.5059 21.0525 19.5061 20.8303 19.5065C20.765 19.5061 20.6996 19.5058 20.6323 19.5054C20.1254 19.5076 19.6764 19.5435 19.2732 19.895Z"
      fill="#519EAF" />
    <path
      d="M3.81349 0.0142738C3.89663 0.0139008 3.97977 0.0134772 4.06291 0.0130071C4.28763 0.0119127 4.51234 0.0116161 4.73706 0.0115365C4.87784 0.0114477 5.01862 0.0111814 5.1594 0.0108523C5.65165 0.0097024 6.14389 0.00919237 6.63614 0.0092905C7.09317 0.00936516 7.55018 0.00805357 8.00721 0.00608642C8.40104 0.00445238 8.79487 0.00379162 9.18871 0.00387091C9.42328 0.00390245 9.65784 0.00355801 9.89241 0.00223075C10.1134 0.00101458 10.3343 0.00102355 10.5552 0.00192167C10.6737 0.00211125 10.7921 0.00108303 10.9105 0C11.8962 0.00710674 12.7446 0.368753 13.4581 1.06912C14.2382 1.89509 14.5182 2.80467 14.5174 3.93651C14.5178 4.02233 14.5182 4.10815 14.5186 4.19397C14.5197 4.42594 14.52 4.6579 14.5201 4.88987C14.5202 5.03519 14.5204 5.18051 14.5207 5.32584C14.5219 5.83396 14.5223 6.34208 14.5223 6.85021C14.5222 7.32198 14.5234 7.79374 14.5254 8.26551C14.5269 8.67204 14.5276 9.07858 14.5275 9.48512C14.5275 9.72726 14.5278 9.96938 14.5291 10.2115C14.5303 10.4396 14.5303 10.6676 14.5294 10.8957C14.5292 11.018 14.5302 11.1402 14.5312 11.2624C14.5244 12.28 14.174 13.1557 13.4955 13.8922C12.6954 14.6975 11.8142 14.9865 10.7178 14.9857C10.6346 14.9861 10.5515 14.9865 10.4683 14.987C10.2436 14.9881 10.0189 14.9884 9.79419 14.9885C9.65341 14.9886 9.51263 14.9888 9.37185 14.9891C8.8796 14.9903 8.38736 14.9908 7.89511 14.9907C7.43808 14.9906 6.98107 14.9919 6.52404 14.9939C6.13021 14.9955 5.73638 14.9962 5.34254 14.9961C5.10797 14.9961 4.87341 14.9964 4.63884 14.9978C4.41789 14.999 4.19697 14.999 3.97602 14.9981C3.8576 14.9979 3.73918 14.9989 3.62076 15C2.63503 14.9929 1.78663 14.6312 1.07315 13.9309C0.293039 13.1049 0.0130505 12.1953 0.0138277 11.0635C0.0134664 10.9777 0.013056 10.8919 0.0126006 10.806C0.0115404 10.5741 0.0112531 10.3421 0.0111759 10.1101C0.0110899 9.96481 0.010832 9.81949 0.0105132 9.67416C0.0093992 9.16604 0.00890511 8.65792 0.00900017 8.14979C0.0090725 7.67802 0.00780192 7.20626 0.00589624 6.73449C0.00431326 6.32796 0.00367311 5.92142 0.00374992 5.51488C0.00378048 5.27274 0.00344683 5.03062 0.00216104 4.78848C0.000982872 4.56041 0.000991564 4.33236 0.00186162 4.10428C0.00204527 3.98204 0.00104919 3.85979 0 3.73756C0.00688466 2.72003 0.35723 1.84427 1.03571 1.10777C1.83586 0.302492 2.71702 0.0134715 3.81349 0.0142738ZM2.80448 2.89495C2.42461 3.39094 2.43377 3.87556 2.43401 4.48617C2.43381 4.55826 2.43361 4.63035 2.4334 4.70463C2.43283 4.94265 2.43271 5.18067 2.43264 5.41869C2.4325 5.54249 2.43235 5.6663 2.43219 5.7901C2.4317 6.17924 2.43156 6.56838 2.4316 6.95752C2.43164 7.35803 2.431 7.75853 2.43005 8.15903C2.42926 8.50373 2.42894 8.84843 2.42897 9.19313C2.42899 9.39863 2.42876 9.60412 2.42818 9.80962C2.42759 10.039 2.42776 10.2684 2.42813 10.4977C2.42779 10.5652 2.42745 10.6326 2.4271 10.7021C2.4292 11.2254 2.46406 11.6889 2.80448 12.105C3.28497 12.4972 3.75445 12.4877 4.34598 12.4875C4.41582 12.4877 4.48565 12.4879 4.55761 12.4881C4.78819 12.4887 5.01877 12.4888 5.24935 12.4889C5.36929 12.489 5.48923 12.4892 5.60916 12.4893C5.98614 12.4899 6.36312 12.49 6.7401 12.49C7.12809 12.4899 7.51607 12.4906 7.90406 12.4916C8.23799 12.4924 8.57191 12.4927 8.90584 12.4927C9.10492 12.4927 9.30399 12.4929 9.50307 12.4935C9.72528 12.4941 9.94747 12.4939 10.1697 12.4935C10.235 12.4939 10.3004 12.4942 10.3677 12.4946C10.8746 12.4924 11.3236 12.4565 11.7268 12.105C12.1066 11.6091 12.0975 11.1244 12.0972 10.5138C12.0974 10.4417 12.0976 10.3696 12.0979 10.2954C12.0984 10.0574 12.0985 9.81933 12.0986 9.58132C12.0988 9.45751 12.0989 9.3337 12.0991 9.2099C12.0995 8.82076 12.0997 8.43162 12.0997 8.04248C12.0996 7.64197 12.1003 7.24147 12.1012 6.84097C12.102 6.49627 12.1023 6.15157 12.1023 5.80688C12.1023 5.60137 12.1025 5.39588 12.1031 5.19038C12.1037 4.96101 12.1035 4.73165 12.1031 4.50228C12.1035 4.43482 12.1038 4.36737 12.1042 4.29788C12.102 3.77458 12.0672 3.31109 11.7268 2.89495C11.2463 2.50283 10.7768 2.51227 10.1853 2.51253C10.1154 2.51232 10.0456 2.51211 9.97364 2.5119C9.74306 2.51131 9.51248 2.51118 9.2819 2.51112C9.16196 2.51097 9.04202 2.51082 8.92209 2.51065C8.54511 2.51015 8.16813 2.50999 7.79115 2.51004C7.40316 2.51008 7.01518 2.50942 6.62719 2.50844C6.29326 2.50762 5.95934 2.50729 5.62541 2.50733C5.42633 2.50734 5.22726 2.50711 5.02818 2.50651C4.80598 2.5059 4.58378 2.50608 4.36158 2.50645C4.29624 2.5061 4.23089 2.50575 4.16357 2.50539C3.65662 2.50756 3.20761 2.54355 2.80448 2.89495Z"
      fill="#519EAF" />
  </symbol>

</svg>