<svg width="121" height="17" viewBox="0 0 121 17" fill="none" xmlns="http://www.w3.org/2000/svg">
  <path
    d="M15.7666 12.493C15.7666 13.1346 15.583 13.7191 15.2157 14.2466C14.8651 14.7598 14.381 15.1733 13.7633 15.4869C13.1456 15.8006 12.4611 15.9574 11.7099 15.9574H0.015625V13.8189H11.7099C12.1439 13.8189 12.5112 13.6906 12.8117 13.434C13.1289 13.1774 13.2875 12.8637 13.2875 12.493C13.2875 12.1224 13.1289 11.8087 12.8117 11.5521C12.5112 11.2812 12.1439 11.1458 11.7099 11.1458H4.04727C3.31273 11.1458 2.63661 10.989 2.01893 10.6753C1.41794 10.3617 0.933805 9.94111 0.566533 9.41362C0.199261 8.88612 0.015625 8.3016 0.015625 7.66005C0.015625 7.03276 0.199261 6.45537 0.566533 5.92787C0.933805 5.40038 1.41794 4.97981 2.01893 4.66616C2.63661 4.35252 3.31273 4.19569 4.04727 4.19569H14.8401V6.3128H4.04727C3.62992 6.3128 3.26264 6.44824 2.94545 6.71912C2.64496 6.97574 2.49471 7.28938 2.49471 7.66005C2.49471 8.03073 2.64496 8.3515 2.94545 8.62237C3.26264 8.87899 3.62992 9.0073 4.04727 9.0073H11.7099C12.4611 9.0073 13.1456 9.16413 13.7633 9.47777C14.381 9.79142 14.8651 10.212 15.2157 10.7395C15.583 11.267 15.7666 11.8515 15.7666 12.493Z"
    fill="#EBD009" />
  <path
    d="M33.9724 15.9574H17.6955V11.6804C17.6955 10.8963 17.9209 10.1835 18.3717 9.54193C18.8224 8.88612 19.4234 8.36576 20.1746 7.98083C20.9426 7.5959 21.7856 7.40344 22.7038 7.40344H28.9641C29.6486 7.40344 30.2329 7.19671 30.717 6.78327C31.2178 6.35557 31.4682 5.84946 31.4682 5.26494C31.4682 4.68042 31.2178 4.18144 30.717 3.768C30.2329 3.3403 29.6486 3.12645 28.9641 3.12645H18.9476V0.987955H28.9641C29.8823 0.987955 30.717 1.18042 31.4682 1.56535C32.2362 1.95028 32.8455 2.47064 33.2963 3.12645C33.747 3.768 33.9724 4.48083 33.9724 5.26494C33.9724 6.04906 33.747 6.76901 33.2963 7.42482C32.8455 8.06637 32.2362 8.57961 31.4682 8.96453C30.717 9.34946 29.8823 9.54193 28.9641 9.54193H22.7038C22.0193 9.54193 21.4267 9.75578 20.9259 10.1835C20.425 10.5969 20.1746 11.0959 20.1746 11.6804V13.8189H33.9724V15.9574Z"
    fill="white" />
  <path d="M41.0107 15.9574H38.5066V3.12645H36.0025V0.987955H41.0107V15.9574Z" fill="white" />
  <path
    d="M52.2454 16.0631H50.3818C50.3818 16.0631 50.3818 9.93258 50.3818 5.41338C50.3818 1.52095 50.3818 0.435547 50.3818 0.435547L52.2454 0.435547C52.2454 0.435547 52.2454 1.52095 52.2454 5.41338C52.2454 9.93592 52.2454 16.0631 52.2454 16.0631Z"
    fill="#EBD009" />
  <path
    d="M66.0473 5.01641C66.0473 5.34518 65.94 5.64472 65.7252 5.91504C65.5105 6.17806 65.2202 6.38993 64.8544 6.55067C64.4965 6.7114 64.0989 6.79176 63.6615 6.79176H58.5319V5.69586H63.6615C63.9875 5.69586 64.2659 5.63011 64.4965 5.4986C64.7351 5.36709 64.8544 5.20636 64.8544 5.01641V4.74243H60.9058C60.4684 4.74243 60.0708 4.6438 59.7129 4.44654C59.355 4.24928 59.0687 3.98626 58.854 3.65749C58.6393 3.32142 58.5319 2.95246 58.5319 2.55063V0.764317H59.7129V2.55063C59.7129 2.85748 59.8282 3.11685 60.0589 3.32872C60.2974 3.5406 60.5798 3.64653 60.9058 3.64653H64.8544V0.764317H66.0473V5.01641Z"
    fill="white" />
  <path d="M95.259 6.79176H88.9842V0.764317H90.1771V5.69586H95.259V6.79176Z" fill="white" />
  <path d="M102.552 6.79176H96.2769V0.764317H97.4698V5.69586H102.552V6.79176Z" fill="white" />
  <path
    d="M111.195 3.76708C111.195 4.32234 111.068 4.8301 110.813 5.29038C110.567 5.74335 110.217 6.10865 109.763 6.38628C109.31 6.6566 108.781 6.79176 108.177 6.79176H106.101C105.497 6.79176 104.964 6.6566 104.503 6.38628C104.049 6.10865 103.695 5.74335 103.441 5.29038C103.194 4.8301 103.071 4.32234 103.071 3.76708C103.071 3.21182 103.194 2.70771 103.441 2.25474C103.695 1.80177 104.049 1.44012 104.503 1.1698C104.964 0.899478 105.497 0.764317 106.101 0.764317H108.177C108.781 0.764317 109.31 0.899478 109.763 1.1698C110.217 1.44012 110.567 1.80177 110.813 2.25474C111.068 2.70771 111.195 3.21182 111.195 3.76708ZM110.002 3.76708C110.002 3.41639 109.93 3.09493 109.787 2.80269C109.644 2.51045 109.433 2.28031 109.155 2.11227C108.885 1.93693 108.559 1.84926 108.177 1.84926H106.101C105.719 1.84926 105.389 1.93693 105.111 2.11227C104.841 2.28031 104.63 2.51045 104.479 2.80269C104.336 3.09493 104.264 3.41639 104.264 3.76708C104.264 4.11777 104.336 4.43923 104.479 4.73147C104.63 5.02371 104.841 5.2575 105.111 5.43285C105.389 5.60819 105.719 5.69586 106.101 5.69586H108.177C108.559 5.69586 108.885 5.60819 109.155 5.43285C109.433 5.2575 109.644 5.02371 109.787 4.73147C109.93 4.43923 110.002 4.11777 110.002 3.76708Z"
    fill="white" />
  <path
    d="M120.867 4.58901C120.867 4.99084 120.76 5.35979 120.545 5.69586C120.33 6.03194 120.04 6.29861 119.674 6.49587C119.308 6.69313 118.903 6.79176 118.457 6.79176C118.107 6.79176 117.777 6.72236 117.467 6.58354C117.165 6.44473 116.903 6.25843 116.68 6.02463C116.457 6.25843 116.187 6.44473 115.869 6.58354C115.551 6.72236 115.209 6.79176 114.843 6.79176C114.405 6.79176 114.004 6.69313 113.638 6.49587C113.28 6.29861 112.99 6.03194 112.767 5.69586C112.552 5.35979 112.445 4.99084 112.445 4.58901V0.764317H113.638V4.58901C113.638 4.90316 113.753 5.16618 113.984 5.37805C114.222 5.58993 114.509 5.69586 114.843 5.69586C115.185 5.69586 115.471 5.58993 115.702 5.37805C115.94 5.16618 116.06 4.90316 116.06 4.58901V0.764317H117.264V4.4575C117.264 4.80088 117.38 5.09312 117.61 5.33422C117.841 5.57531 118.123 5.69586 118.457 5.69586C118.799 5.69586 119.086 5.58993 119.316 5.37805C119.555 5.16618 119.674 4.90316 119.674 4.58901V0.764317H120.867V4.58901Z"
    fill="white" />
  <path d="M63.1485 14.9343H61.9556V9.99179H58.7943V8.90685H66.2978V9.99179H63.1485V14.9343Z" fill="white" />
  <path
    d="M95.7597 14.9343H94.5668V13.2795H89.9741V12.1617H94.5668V9.99179H91.4652C91.0755 9.99179 90.7216 10.0795 90.4035 10.2548C90.0854 10.4301 89.8309 10.6639 89.64 10.9562C89.4492 11.2411 89.3537 11.5626 89.3537 11.9206V14.9343H88.1489V11.9206C88.1489 11.5041 88.2324 11.1133 88.3994 10.748C88.5744 10.3754 88.813 10.0502 89.1152 9.77261C89.4253 9.49498 89.7792 9.27946 90.1769 9.12603C90.5825 8.9653 91.0119 8.88493 91.4652 8.88493H95.7597V14.9343Z"
    fill="white" />
  <path
    d="M102.29 14.9343H101.097V11.8987C101.097 11.548 101.002 11.2302 100.811 10.9452C100.628 10.653 100.378 10.4228 100.059 10.2548C99.7493 10.0795 99.3994 9.99179 99.0097 9.99179H98.6757V14.9343H97.4828V8.90685H99.0097C99.5744 8.90685 100.091 9.0274 100.561 9.2685C101.038 9.50229 101.423 9.81645 101.718 10.211C102.02 9.81645 102.398 9.50229 102.851 9.2685C103.312 9.0274 103.817 8.90685 104.366 8.90685H105.893V14.9343H104.7V9.99179H104.366C103.984 9.99179 103.634 10.0868 103.316 10.2767C103.006 10.4594 102.756 10.7041 102.565 11.011C102.382 11.3178 102.29 11.6612 102.29 12.0411V14.9343Z"
    fill="white" />
  <path
    d="M86.1806 14.0545C86.1806 14.5404 85.7518 14.9343 85.2228 14.9343H74.8716C71.5775 14.9343 68.907 12.481 68.907 9.4548V6.22458C68.907 3.19834 71.5775 0.745081 74.8716 0.745081H85.1982C85.7407 0.745081 86.1806 1.14914 86.1806 1.64758C86.1806 2.14602 85.7407 2.55008 85.1982 2.55008H76.5221C73.1226 2.55008 70.5993 3.32872 70.5635 8.27603L70.5993 9.0073C70.7428 11.9347 73.3681 13.1746 76.5579 13.1746H85.2228C85.7518 13.1746 86.1806 13.5686 86.1806 14.0545ZM84.2546 7.87428C84.2546 8.40802 83.7836 8.8407 83.2026 8.8407H70.726C70.145 8.8407 69.674 8.40802 69.674 7.87428C69.674 7.34053 70.145 6.90785 70.726 6.90785H83.2026C83.7836 6.90785 84.2546 7.34053 84.2546 7.87428Z"
    fill="#EBD009" />
</svg>