<svg width="44" height="44" viewBox="0 0 44 44" fill="none" xmlns="http://www.w3.org/2000/svg">
<path d="M0.4124 10.4182C0.440453 10.3451 0.468506 10.272 0.49741 10.1967C1.05221 8.90928 2.44097 7.85696 3.41053 6.88427C3.53614 6.75823 3.66171 6.63215 3.78726 6.50606C4.18182 6.10982 4.57654 5.71375 4.97151 5.31792C5.42447 4.86398 5.87687 4.40949 6.32878 3.95451C6.6806 3.60037 7.03292 3.24673 7.38561 2.89346C7.59525 2.68346 7.80468 2.47327 8.01359 2.26254C8.24632 2.02781 8.48008 1.79413 8.71394 1.56053C8.78179 1.4918 8.84964 1.42307 8.91955 1.35226C9.78596 0.491116 10.5743 0.0183296 11.8024 0C12.7503 0.00445938 13.4707 0.278549 14.1746 0.932976C15.0665 1.8965 15.1722 2.71642 15.1839 3.98758C15.1857 4.13809 15.1887 4.2886 15.1927 4.43907C15.2326 5.94857 15.2326 5.94857 14.7714 6.51131C14.3393 6.93029 14.0415 7.01009 13.4463 7.04021C12.9474 7.0248 12.6284 6.93328 12.2247 6.6431C11.6929 6.07378 11.6676 5.55731 11.6578 4.80429C11.6552 4.70879 11.6527 4.6133 11.6501 4.51491C11.6441 4.28071 11.6395 4.04659 11.6364 3.81233C11.6014 3.84754 11.5664 3.88275 11.5304 3.91903C11.1636 4.28814 10.7966 4.65694 10.4294 5.02557C10.2927 5.16286 10.1561 5.30024 10.0196 5.43769C9.82241 5.63617 9.62495 5.83436 9.42744 6.03251C9.36726 6.09321 9.30707 6.15391 9.24507 6.21645C8.96967 6.49224 8.69196 6.76012 8.39638 7.0142C7.9368 7.41138 7.51013 7.84232 7.0803 8.27111C7.03588 8.31535 6.99146 8.35959 6.94569 8.40517C6.71128 8.63861 6.47711 8.87228 6.24315 9.10617C6.00252 9.34665 5.76109 9.58632 5.51948 9.82581C5.33257 10.0114 5.14624 10.1975 4.96006 10.3838C4.87129 10.4724 4.78231 10.5608 4.6931 10.649C4.56847 10.7723 4.44469 10.8965 4.32107 11.0208C4.25064 11.091 4.18022 11.1612 4.10767 11.2335C3.78253 11.6153 3.63067 11.9657 3.62536 12.4665C3.62271 12.5494 3.62006 12.6324 3.61733 12.7178C3.77218 13.5523 4.53014 14.1472 5.10768 14.7188C5.20728 14.8183 5.30684 14.9178 5.40634 15.0174C5.6143 15.2252 5.82267 15.4326 6.03138 15.6397C6.29727 15.9035 6.56241 16.1681 6.82727 16.4329C7.08204 16.6876 7.3372 16.9418 7.59237 17.196C7.66408 17.2676 7.66408 17.2676 7.73724 17.3406C8.33878 17.9441 8.33878 17.9441 8.97066 18.5151C9.5181 18.9842 10.0152 19.5099 10.5225 20.0214C10.6308 20.1303 10.7392 20.2392 10.8475 20.348C11.1107 20.6125 11.3736 20.8772 11.6364 21.1421C11.6367 21.0475 11.637 20.9528 11.6373 20.8553C11.6405 19.9605 11.6454 19.0657 11.6521 18.1708C11.6555 17.7109 11.6582 17.2509 11.6596 16.7909C11.6609 16.3465 11.6638 15.902 11.6679 15.4576C11.6692 15.2886 11.6699 15.1196 11.6699 14.9506C11.671 13.6831 11.7477 12.6667 12.6645 11.7051C13.5161 10.8911 14.4173 10.7097 15.5661 10.7167C15.6837 10.7161 15.8013 10.7155 15.9189 10.7147C16.2396 10.7129 16.5603 10.7133 16.881 10.714C17.2278 10.7144 17.5746 10.7129 17.9214 10.7116C18.5998 10.7094 19.2782 10.7091 19.9566 10.7095C20.508 10.7098 21.0595 10.7095 21.6109 10.7088C21.6895 10.7087 21.7681 10.7086 21.8491 10.7085C22.0088 10.7083 22.1684 10.7081 22.3281 10.7079C23.8239 10.706 25.3198 10.7064 26.8156 10.7074C28.1835 10.7083 29.5514 10.7064 30.9193 10.7031C32.3251 10.6998 33.7308 10.6984 35.1365 10.699C35.9253 10.6993 36.7141 10.6989 37.5028 10.6965C38.174 10.6944 38.8452 10.6942 39.5164 10.6963C39.8587 10.6973 40.201 10.6975 40.5433 10.6954C40.8569 10.6936 41.1705 10.6941 41.4841 10.6965C41.6507 10.6972 41.8173 10.6953 41.9839 10.6933C42.6558 10.7017 43.091 10.8186 43.5946 11.2761C43.9874 11.7366 43.9996 12.1848 43.9812 12.7815C43.9049 13.2968 43.6764 13.6427 43.2767 13.9698C42.6394 14.3769 41.8477 14.2909 41.1238 14.2891C41.0127 14.2892 40.9016 14.2893 40.7872 14.2894C40.4799 14.2896 40.1725 14.2892 39.8652 14.2888C39.5334 14.2884 39.2016 14.2885 38.8698 14.2886C38.2953 14.2886 37.7208 14.2884 37.1463 14.2879C36.3156 14.2872 35.4849 14.287 34.6543 14.2869C33.3065 14.2867 31.9588 14.2861 30.611 14.2853C29.3019 14.2845 27.9928 14.2839 26.6838 14.2835C26.603 14.2835 26.5223 14.2835 26.4392 14.2835C26.0342 14.2834 25.6293 14.2832 25.2244 14.2831C21.866 14.2822 18.5076 14.2807 15.1492 14.2788C15.15 14.3779 15.1507 14.4771 15.1515 14.5792C15.1585 15.5157 15.1636 16.4522 15.1669 17.3888C15.1687 17.8702 15.1712 18.3516 15.175 18.833C15.1788 19.298 15.1808 19.763 15.1817 20.2281C15.1823 20.4051 15.1836 20.582 15.1854 20.759C15.1879 21.0078 15.1883 21.2566 15.1881 21.5055C15.1893 21.5778 15.1906 21.6501 15.1918 21.7246C15.186 22.5789 14.8322 23.3185 14.2549 23.941C13.3711 24.7613 12.6125 24.961 11.4272 24.94C10.1209 24.8855 9.27426 23.9505 8.40105 23.0736C8.32236 22.9952 8.24367 22.9169 8.1626 22.8361C7.94926 22.6237 7.73646 22.4106 7.52379 22.1975C7.34531 22.0187 7.16657 21.8401 6.98784 21.6616C6.56595 21.2401 6.14452 20.8181 5.72337 20.3959C5.29057 19.962 4.85698 19.5289 4.42301 19.0962C4.04859 18.7228 3.67468 18.3489 3.30115 17.9747C3.07885 17.7519 2.85637 17.5294 2.6334 17.3073C2.38479 17.0597 2.13725 16.811 1.88978 16.5622C1.81686 16.4898 1.74395 16.4175 1.66882 16.3429C1.09025 15.7585 0.626674 15.1656 0.342786 14.3861C0.308658 14.2945 0.27453 14.2029 0.239368 14.1086C-0.135289 12.9547 -0.064562 11.5268 0.4124 10.4182Z" fill="#393939"/>
<path d="M0.164399 30.685C0.421213 30.2686 0.719047 29.9801 1.18351 29.807C1.56539 29.7565 1.94446 29.7607 2.32919 29.7634C2.44637 29.763 2.56355 29.7625 2.68072 29.7618C3.00188 29.7603 3.32301 29.761 3.64417 29.7621C3.99087 29.7629 4.33756 29.7617 4.68426 29.7607C5.36321 29.7592 6.04215 29.7595 6.7211 29.7605C7.27312 29.7613 7.82513 29.7614 8.37714 29.761C8.45574 29.761 8.53433 29.7609 8.6153 29.7609C8.77497 29.7608 8.93464 29.7607 9.09431 29.7606C10.5916 29.7596 12.0889 29.7607 13.5862 29.7625C14.87 29.7641 16.1538 29.7638 17.4376 29.7622C18.929 29.7604 20.4205 29.7597 21.9119 29.7607C22.0711 29.7608 22.2303 29.7609 22.3895 29.761C22.5069 29.7611 22.5069 29.7611 22.6268 29.7612C23.1777 29.7615 23.7287 29.761 24.2797 29.7602C24.9517 29.7592 25.6237 29.7595 26.2957 29.7613C26.6384 29.7622 26.981 29.7626 27.3237 29.7614C27.6379 29.7604 27.952 29.761 28.2661 29.7628C28.4326 29.7634 28.5991 29.7623 28.7656 29.7611C29.7895 29.7702 30.5951 30.0362 31.3425 30.7507C32.327 31.7833 32.3366 32.8982 32.3372 34.2477C32.3385 34.4194 32.3399 34.5912 32.3415 34.7629C32.3452 35.2121 32.347 35.6613 32.3482 36.1105C32.3499 36.5701 32.3535 37.0296 32.357 37.4891C32.3634 38.3886 32.3677 39.2881 32.3707 40.1877C32.407 40.1512 32.4433 40.1146 32.4807 40.077C32.5571 40.0003 32.5571 40.0003 32.6349 39.922C32.691 39.8656 32.7472 39.8092 32.805 39.751C32.9275 39.6278 33.0501 39.5046 33.1726 39.3814C33.4251 39.1277 33.6775 38.8738 33.9298 38.6198C34.1016 38.4469 34.2736 38.2742 34.4457 38.1015C34.5014 38.0453 34.5571 37.9891 34.6145 37.9312C34.8804 37.6649 35.1491 37.4072 35.4346 37.1621C35.909 36.7517 36.349 36.3058 36.7929 35.8629C36.8392 35.8168 36.8855 35.7707 36.9332 35.7231C37.1776 35.4797 37.4218 35.236 37.6657 34.9921C37.9167 34.7412 38.1685 34.4912 38.4205 34.2413C38.6154 34.0478 38.8096 33.8537 39.0038 33.6595C39.0964 33.567 39.1892 33.4748 39.2822 33.3828C39.4122 33.2541 39.5413 33.1246 39.6702 32.995C39.7437 32.9217 39.8172 32.8485 39.8929 32.773C40.2187 32.3923 40.377 32.0398 40.387 31.5389C40.3907 31.4569 40.3943 31.375 40.3981 31.2905C40.2208 30.4452 39.4523 29.8275 38.8615 29.2433C38.7678 29.1497 38.6741 29.0561 38.5805 28.9624C38.3852 28.7672 38.1894 28.5724 37.9933 28.378C37.7437 28.1304 37.4948 27.8821 37.2461 27.6336C37.0066 27.3942 36.7667 27.1552 36.5268 26.9162C36.4819 26.8715 36.4371 26.8268 36.3909 26.7807C35.9427 26.3339 35.4915 25.8953 35.0112 25.4828C34.7441 25.248 34.4951 24.9956 34.2449 24.743C34.1907 24.6886 34.1365 24.6342 34.0807 24.5782C33.9103 24.4071 33.7403 24.2357 33.5702 24.0643C33.4536 23.9472 33.337 23.8301 33.2204 23.713C32.937 23.4282 32.6537 23.1431 32.3707 22.8579C32.3708 22.9162 32.3709 22.9746 32.371 23.0347C32.3699 23.3029 32.365 23.5709 32.36 23.8391C32.3602 23.9309 32.3604 24.0226 32.3606 24.1171C32.3446 24.7727 32.2083 25.1947 31.7709 25.689C31.3111 26.0823 30.8635 26.0945 30.2675 26.0761C29.8236 26.0102 29.5069 25.8453 29.2006 25.5174C28.8878 25.0538 28.8064 24.7294 28.8123 24.1753C28.812 24.1058 28.8117 24.0363 28.8113 23.9647C28.8111 23.8184 28.8117 23.6721 28.8132 23.5259C28.815 23.3044 28.8132 23.0832 28.811 22.8618C28.8092 21.7509 28.9687 20.9037 29.7521 20.059C30.5489 19.3195 31.3264 19.0184 32.4064 19.0386C33.812 19.1048 34.6555 19.9719 35.606 20.9264C35.6847 21.0048 35.7634 21.0831 35.8444 21.1639C36.0578 21.3763 36.2706 21.5893 36.4832 21.8025C36.6617 21.9813 36.8405 22.1599 37.0192 22.3384C37.4411 22.7599 37.8625 23.1819 38.2837 23.6041C38.7165 24.038 39.15 24.4711 39.584 24.9038C39.9584 25.2772 40.3324 25.6511 40.7059 26.0253C40.9282 26.2481 41.1507 26.4706 41.3736 26.6927C41.6222 26.9403 41.8698 27.189 42.1172 27.4378C42.1902 27.5102 42.2631 27.5825 42.3382 27.6571C42.9318 28.2567 43.3967 28.8568 43.6642 29.6622C43.6984 29.7627 43.7325 29.8632 43.7677 29.9668C44.1265 31.1164 44.0703 32.4762 43.5946 33.5818C43.5666 33.6549 43.5385 33.728 43.5096 33.8033C42.9548 35.0907 41.5661 36.143 40.5965 37.1157C40.4709 37.2418 40.3453 37.3678 40.2198 37.4939C39.8252 37.8902 39.4305 38.2863 39.0355 38.6821C38.5826 39.136 38.1302 39.5905 37.6782 40.0455C37.3264 40.3996 36.9741 40.7533 36.6214 41.1065C36.4118 41.3165 36.2024 41.5267 35.9934 41.7375C35.7607 41.9722 35.5269 42.2059 35.2931 42.4395C35.2252 42.5082 35.1574 42.5769 35.0875 42.6477C34.2211 43.5089 33.4328 43.9817 32.2047 44C31.2609 43.9956 30.5526 43.7225 29.8431 43.0831C29.1342 42.3023 28.8151 41.6275 28.8287 40.5608C28.8286 40.482 28.8286 40.4033 28.8285 40.3221C28.8287 40.0645 28.8307 39.8069 28.8327 39.5493C28.8332 39.3696 28.8336 39.1899 28.8338 39.0102C28.8348 38.5392 28.8373 38.0683 28.8402 37.5974C28.8428 37.116 28.844 36.6347 28.8453 36.1533C28.848 35.2103 28.8524 34.2674 28.8578 33.3244C28.7723 33.3245 28.7723 33.3245 28.6851 33.3246C25.3067 33.3284 21.9282 33.3314 18.5498 33.3332C18.1441 33.3334 17.7384 33.3336 17.3327 33.3338C17.2519 33.3339 17.1712 33.3339 17.0879 33.334C15.7804 33.3347 14.4728 33.3361 13.1652 33.3376C11.8234 33.3392 10.4816 33.3402 9.13977 33.3405C8.31188 33.3408 7.48399 33.3415 6.6561 33.3429C6.08829 33.3438 5.52049 33.3441 4.95269 33.3439C4.62515 33.3438 4.29763 33.3439 3.97009 33.3448C3.61467 33.3458 3.25927 33.3455 2.90385 33.345C2.80075 33.3455 2.69765 33.346 2.59143 33.3465C1.77705 33.3436 1.02532 33.3153 0.4124 32.7239C-0.0549878 32.1599 -0.106231 31.3629 0.164399 30.685Z" fill="#393939"/>
</svg>
