<svg width="91" height="91" viewBox="0 0 91 91" fill="none" xmlns="http://www.w3.org/2000/svg">
  <path
    d="M7.58598 0.0423734C7.77433 0.0411672 7.77433 0.0411672 7.96649 0.0399366C8.38516 0.0376987 8.8038 0.0379798 9.22248 0.0382735C9.52354 0.0372109 9.82461 0.036003 10.1257 0.034661C10.9422 0.031529 11.7588 0.0306936 12.5754 0.030467C13.0862 0.0302144 13.5969 0.0294561 14.1077 0.0285158C15.8915 0.0252329 17.6752 0.0237824 19.459 0.0240618C21.1186 0.0242748 22.7783 0.0205333 24.4379 0.0149242C25.8651 0.0102736 27.2923 0.0083793 28.7195 0.00860581C29.5709 0.00869606 30.4222 0.00769821 31.2736 0.00392831C32.0751 0.000476079 32.8765 0.000474794 33.6781 0.00304685C33.971 0.00341614 34.2639 0.00259095 34.5569 0.000434289C37.2677 -0.018219 39.3654 0.560254 41.376 2.46353C43.2331 4.43754 43.6252 6.92973 43.9372 9.54385C43.9706 9.8102 44.0041 10.0765 44.0378 10.3428C44.1291 11.0682 44.2178 11.7938 44.306 12.5195C44.402 13.3045 44.5003 14.0893 44.5983 14.8742C44.7897 16.409 44.9788 17.9441 45.1672 19.4793C45.3868 21.2685 45.6085 23.0575 45.8304 24.8465C46.2262 28.0391 46.62 31.232 47.0126 34.4249C47.3934 37.5207 47.7756 40.6163 48.1595 43.7116C48.6449 47.6248 49.1289 51.5381 49.6118 55.4516C49.7656 56.6977 49.9199 57.9437 50.0743 59.1898C50.2625 60.7086 50.4499 62.2276 50.6361 63.7467C50.7311 64.5212 50.8264 65.2957 50.9228 66.0701C51.0111 66.7798 51.0983 67.4896 51.1846 68.1995C51.216 68.4554 51.2477 68.7113 51.2798 68.9672C51.7581 72.7775 51.7581 72.7775 51.2094 73.8187C51.0813 73.9688 50.9533 74.1189 50.8213 74.2735C50.761 74.3982 50.7007 74.5228 50.6386 74.6513C50.0506 75.2103 49.3479 75.0809 48.5683 75.0736C48.3003 75.0752 48.3003 75.0752 48.0268 75.0769C47.425 75.0798 46.8234 75.0775 46.2216 75.0753C45.7913 75.0762 45.361 75.0775 44.9307 75.079C43.8812 75.0819 42.8317 75.0815 41.7822 75.0795C40.9285 75.0779 40.0749 75.0776 39.2213 75.0784C39.0391 75.0786 39.0391 75.0786 38.8532 75.0787C38.6065 75.079 38.3598 75.0792 38.113 75.0794C35.7972 75.0815 33.4814 75.0791 31.1656 75.0753C29.181 75.0721 27.1964 75.0727 25.2119 75.076C22.9066 75.0798 20.6013 75.0813 18.2961 75.0791C18.0498 75.0788 17.8035 75.0786 17.5573 75.0784C17.4361 75.0783 17.3149 75.0782 17.1901 75.0781C16.3388 75.0775 15.4875 75.0785 14.6362 75.0802C13.4878 75.0824 12.3394 75.0808 11.191 75.0767C10.7702 75.0758 10.3494 75.076 9.92857 75.0776C9.35249 75.0795 8.77657 75.0771 8.2005 75.0736C7.95282 75.0759 7.95282 75.0759 7.70015 75.0784C5.62334 75.0538 3.93987 74.2101 2.3971 72.8537C1.06106 71.4327 0.0481821 69.6559 0.0455475 67.6707C0.0444036 67.4521 0.0432596 67.2336 0.0420811 67.0085C0.0426029 66.7674 0.0431588 66.5264 0.0437456 66.2853C0.0430826 66.0281 0.0422666 65.7709 0.0413104 65.5137C0.0391411 64.8076 0.0391869 64.1015 0.0396052 63.3954C0.0396776 62.6336 0.0377195 61.8718 0.0360373 61.11C0.0330908 59.6176 0.0321157 58.1252 0.0319179 56.6329C0.0317493 55.4195 0.03102 54.2062 0.0298954 52.9929C0.0267711 49.5521 0.0251351 46.1114 0.0254011 42.6706C0.0254153 42.4851 0.0254291 42.2996 0.0254437 42.1085C0.0254582 41.9228 0.0254728 41.7371 0.0254877 41.5457C0.0256319 38.5369 0.0222382 35.528 0.0172354 32.5192C0.0121378 29.4289 0.00968957 26.3386 0.00999595 23.2484C0.0101137 21.5138 0.00914171 19.7791 0.00532101 18.0445C0.00208836 16.5674 0.00132162 15.0903 0.00372819 13.6132C0.00488532 12.8599 0.00491097 12.1067 0.00182885 11.3534C-0.000967276 10.663 -0.000447283 9.97254 0.00263947 9.28205C0.00318273 9.03316 0.00254416 8.78426 0.000560146 8.53537C-0.0177752 6.07071 0.583465 4.26012 2.21972 2.39698C3.72155 0.983513 5.50256 0.0479039 7.58598 0.0423734ZM19.6471 19.8226C18.6666 21.0489 18.4812 22.5322 18.1833 24.0364C18.1326 24.2869 18.0819 24.5375 18.031 24.788C17.8938 25.4658 17.7583 26.1439 17.6232 26.8221C17.51 27.3897 17.396 27.9572 17.2819 28.5247C17.0127 29.8646 16.7449 31.2048 16.478 32.5451C16.2034 33.9241 15.9264 35.3026 15.6482 36.6809C15.4089 37.8674 15.1709 39.0542 14.9342 40.2413C14.793 40.9488 14.6514 41.6563 14.5083 42.3634C14.3737 43.0291 14.2409 43.6951 14.1095 44.3615C14.0613 44.6046 14.0124 44.8476 13.9628 45.0905C13.3544 47.593 13.3544 47.593 13.971 49.9708C14.4159 50.5327 14.8758 50.8056 15.5882 50.9067C16.6041 50.9225 17.2196 50.8476 18.0064 50.1372C18.6623 49.2896 18.779 48.2879 18.9785 47.2609C19.0171 47.0691 19.0557 46.8774 19.0955 46.6798C19.2182 46.0689 19.3384 45.4576 19.4587 44.8463C19.5415 44.4313 19.6246 44.0164 19.7078 43.6016C19.9113 42.586 20.1117 41.5699 20.3123 40.5537C22.8293 40.5537 25.3463 40.5537 27.9396 40.5537C28.0594 41.1691 28.1792 41.7845 28.3026 42.4185C28.4207 43.016 28.5395 43.6133 28.6584 44.2106C28.7405 44.6249 28.8217 45.0394 28.902 45.4541C29.0177 46.0511 29.1366 46.6473 29.256 47.2436C29.2912 47.4283 29.3263 47.613 29.3625 47.8033C29.6045 48.9908 29.8692 49.8259 30.7998 50.6474C31.5658 50.9473 32.2723 50.9642 33.0835 50.8471C33.8654 50.4631 34.3662 50.0694 34.6799 49.2498C34.8222 47.7089 34.523 46.236 34.2162 44.7335C34.1662 44.4817 34.1164 44.2299 34.0667 43.9781C33.9325 43.2998 33.7959 42.622 33.6587 41.9442C33.515 41.2324 33.3733 40.5201 33.2312 39.8079C32.9926 38.613 32.7525 37.4184 32.5114 36.224C32.2332 34.8454 31.9573 33.4663 31.6826 32.087C31.4176 30.7562 31.151 29.4258 30.8837 28.0955C30.7702 27.5309 30.6573 26.9662 30.5449 26.4015C30.4123 25.7364 30.2784 25.0716 30.1435 24.4069C30.0943 24.1637 30.0456 23.9204 29.9974 23.677C29.5757 21.287 29.5757 21.287 28.1169 19.4344C27.2572 19.1352 26.5022 19.034 25.5948 19.0323C25.4775 19.032 25.3601 19.0316 25.2392 19.0313C24.993 19.031 24.7468 19.0317 24.5005 19.0332C24.1269 19.0351 23.7534 19.0332 23.3797 19.0309C23.1388 19.0311 22.8979 19.0316 22.657 19.0323C22.4411 19.0327 22.2251 19.0331 22.0026 19.0335C21.0894 19.1005 20.3695 19.2477 19.6471 19.8226Z"
    fill="#94B071" />
  <path
    d="M49.7571 16.2399C54.2563 16.2233 58.7555 16.2108 63.2548 16.2031C65.344 16.1994 67.4332 16.1944 69.5223 16.1863C71.3437 16.1792 73.165 16.1747 74.9864 16.1731C75.9504 16.1722 76.9144 16.17 77.8784 16.1648C78.7867 16.16 79.695 16.1585 80.6034 16.1596C80.9358 16.1594 81.2682 16.158 81.6006 16.1552C84.4223 16.1332 86.5831 16.5897 88.7138 18.5581C90.0283 19.9165 90.9519 21.8189 90.9545 23.7246C90.9556 23.9418 90.9567 24.1591 90.9579 24.383C90.9574 24.6227 90.9568 24.8623 90.9563 25.102C90.9569 25.3577 90.9577 25.6134 90.9587 25.8692C90.9609 26.5712 90.9608 27.2733 90.9604 27.9753C90.9603 28.7328 90.9623 29.4902 90.964 30.2477C90.9669 31.7315 90.9679 33.2154 90.9681 34.6992C90.9683 35.9056 90.969 37.1119 90.9701 38.3183C90.9732 41.7395 90.9749 45.1606 90.9746 48.5817C90.9746 48.7662 90.9746 48.9506 90.9746 49.1406C90.9745 49.3253 90.9745 49.5099 90.9745 49.7001C90.9744 52.6918 90.9778 55.6834 90.9828 58.6751C90.9879 61.7477 90.9903 64.8203 90.99 67.8929C90.9899 69.6176 90.9909 71.3423 90.9947 73.067C90.9979 74.5357 90.9987 76.0043 90.9963 77.473C90.9951 78.222 90.9951 78.9709 90.9982 79.7198C91.001 80.4064 91.0005 81.0928 90.9974 81.7794C90.9968 82.0269 90.9975 82.2743 90.9994 82.5218C91.0178 84.9811 90.4127 86.7901 88.7803 88.6488C87.8898 89.4869 86.8972 90.1386 85.7649 90.601C85.6171 90.6617 85.4694 90.7224 85.3172 90.785C84.527 91.0041 83.8061 91.004 82.9901 90.9987C82.7334 90.9991 82.7334 90.9991 82.4715 90.9996C81.8988 91.0002 81.3261 90.9982 80.7533 90.9963C80.3425 90.9962 79.9317 90.9962 79.5208 90.9964C78.4057 90.9965 77.2906 90.9944 76.1755 90.992C75.01 90.9897 73.8446 90.9895 72.6792 90.9891C70.7231 90.9882 68.7671 90.9859 66.811 90.9827C64.7965 90.9795 62.782 90.977 60.7675 90.9755C60.6433 90.9754 60.5191 90.9753 60.3911 90.9752C59.7678 90.9747 59.1446 90.9743 58.5213 90.9738C53.3531 90.9702 48.1849 90.9639 43.0167 90.956C43.1831 90.7311 43.3498 90.5065 43.5168 90.282C43.6096 90.1569 43.7024 90.0318 43.798 89.9029C44.2046 89.376 44.6531 88.8969 45.112 88.4159C45.7711 87.7141 46.4053 87.005 47.0077 86.2529C47.6853 85.408 48.4071 84.6179 49.1467 83.8279C49.8385 83.0847 50.4792 82.3097 51.1144 81.5173C51.5927 80.9433 52.0958 80.3982 52.6062 79.8528C55.086 77.1892 56.6522 74.918 56.5248 71.1904C56.4203 69.4072 56.1541 67.6327 55.9276 65.8616C55.8437 65.2027 55.7617 64.5436 55.6795 63.8845C55.5371 62.7453 55.3935 61.6062 55.2492 60.4672C55.0404 58.8199 54.8334 57.1724 54.627 55.5248C54.2918 52.8503 53.9552 50.176 53.6177 47.5018C53.2901 44.9069 52.9631 42.312 52.6369 39.7169C52.6167 39.5568 52.5966 39.3966 52.5759 39.2316C52.3562 37.4839 52.1366 35.7362 51.9171 33.9885C51.8589 33.5254 51.8007 33.0623 51.7426 32.5991C51.7042 32.2939 51.6659 31.9887 51.6276 31.6835C51.3836 29.7411 51.1391 27.7987 50.894 25.8565C50.7706 24.8784 50.6474 23.9002 50.5243 22.9221C50.4269 22.1479 50.3291 21.3737 50.2312 20.5995C50.1582 20.0219 50.0856 19.4443 50.013 18.8666C49.9736 18.5568 49.9736 18.5568 49.9335 18.2407C49.91 18.0533 49.8865 17.866 49.8623 17.6729C49.8419 17.5107 49.8214 17.3485 49.8003 17.1813C49.7571 16.7723 49.7571 16.7723 49.7571 16.2399ZM70.1556 35.9394C69.4239 36.9238 69.4202 37.9107 69.435 39.1006C69.4358 39.2236 69.4366 39.3465 69.4374 39.4732C69.4395 39.7742 69.4426 40.0752 69.4461 40.3762C69.3488 40.3754 69.2516 40.3746 69.1514 40.3738C68.1356 40.3659 67.1198 40.3606 66.104 40.3567C65.7253 40.3549 65.3467 40.3525 64.968 40.3494C64.4224 40.3451 63.8769 40.3431 63.3314 40.3415C63.1632 40.3397 62.995 40.3379 62.8217 40.336C61.641 40.3358 60.6515 40.3591 59.7235 41.1637C59.025 41.9825 58.9017 42.4331 58.9246 43.4806C59.0297 44.3137 59.4476 44.7834 60.0672 45.3122C60.8102 45.6192 61.5536 45.6555 62.3509 45.7004C62.3692 45.7982 62.3875 45.896 62.4063 45.9967C62.6085 46.9964 62.9121 47.8813 63.3376 48.8062C63.3996 48.9428 63.4615 49.0794 63.5254 49.2201C64.852 52.1049 66.3819 54.7599 68.3818 57.2361C67.9127 57.8562 67.4375 58.3499 66.8297 58.8334C66.6601 58.9695 66.4904 59.1056 66.3156 59.2459C66.1751 59.3579 66.1751 59.3579 66.0317 59.4721C65.4297 59.954 64.8333 60.4427 64.2356 60.9298C63.9977 61.1233 63.7599 61.3167 63.5219 61.51C63.4122 61.5996 63.3025 61.6892 63.1895 61.7815C62.9232 61.9957 62.6507 62.2021 62.3773 62.4071C61.8595 62.8563 61.6776 63.1928 61.5818 63.8678C61.566 64.8843 61.6409 65.5001 62.3509 66.2872C63.0287 66.8856 63.685 66.8871 64.5508 66.9077C65.6646 66.6949 66.5807 65.7189 67.4395 65.0117C67.5637 64.91 67.688 64.8083 67.816 64.7035C68.0657 64.499 68.3154 64.2943 68.5648 64.0894C68.8745 63.835 69.1847 63.5812 69.4953 63.3277C70.3103 62.6622 71.1229 61.994 71.9294 61.318C72.6225 61.5544 73.0464 61.8416 73.5701 62.3496C74.7239 63.4208 75.9776 64.3551 77.2356 65.2996C77.4915 65.4917 77.7467 65.6846 78.0016 65.878C78.1283 65.9739 78.2551 66.0698 78.3856 66.1687C78.4998 66.2553 78.614 66.342 78.7317 66.4313C79.4781 66.9688 80.2629 66.9182 81.153 66.8197C81.9346 66.4358 82.4299 66.0393 82.7494 65.2224C82.8684 64.3448 82.8883 63.7008 82.455 62.9111C82.0126 62.3481 81.5739 61.9742 80.9978 61.5509C80.7924 61.3976 80.5871 61.2442 80.3818 61.0906C80.2757 61.0119 80.1696 60.9332 80.0603 60.8521C79.5127 60.4426 78.9745 60.0212 78.4369 59.5987C78.333 59.5172 78.2291 59.4356 78.122 59.3516C77.3357 58.731 76.5725 58.0881 75.8317 57.4136C76.2564 56.7584 76.7046 56.1305 77.1731 55.5058C80.5178 50.9533 80.5178 50.9533 82.0399 45.7004C82.1556 45.6958 82.2713 45.6912 82.3905 45.6865C83.6138 45.6071 84.3722 45.3865 85.2105 44.4359C85.5103 43.6695 85.5271 42.9626 85.4101 42.1509C85.021 41.3579 84.6142 40.9248 83.8137 40.5537C83.2255 40.4123 82.6811 40.3544 82.0771 40.356C81.9138 40.3561 81.7505 40.3561 81.5823 40.3561C81.4084 40.357 81.2345 40.3579 81.0553 40.3589C80.8755 40.3591 80.6956 40.3594 80.5103 40.3596C79.9374 40.3606 79.3646 40.3628 78.7917 40.3651C78.4026 40.366 78.0136 40.3668 77.6245 40.3675C76.6721 40.3695 75.7198 40.3724 74.7674 40.3762C74.7715 40.1984 74.7756 40.0207 74.7799 39.8375C74.7832 39.5993 74.7864 39.361 74.7896 39.1228C74.7937 38.8901 74.7978 38.6575 74.802 38.4177C74.7539 37.4389 74.6284 36.7209 73.9803 35.9726C73.162 35.2737 72.7116 35.1504 71.6647 35.1733C71.0084 35.2562 70.6419 35.5002 70.1556 35.9394Z"
    fill="#94B071" />
  <path
    d="M31.1324 80.3076C35.8152 80.3076 40.4979 80.3076 45.3226 80.3076C44.6353 81.1099 43.9465 81.8983 43.2273 82.6702C42.4566 83.5014 41.6937 84.3389 40.9374 85.1833C40.4805 85.6905 40.0195 86.1938 39.5578 86.6966C38.9352 87.3753 38.3135 88.0548 37.6954 88.7376C37.5088 88.9435 37.5088 88.9435 37.3184 89.1535C37.0116 89.5066 36.7287 89.8678 36.4537 90.2461C34.5454 89.8055 33.2921 88.2277 32.2964 86.6467C31.3025 84.7762 31.1324 82.3962 31.1324 80.3076Z"
    fill="#94B071" />
  <path
    d="M68.0667 45.6105C71.052 45.6105 74.0373 45.6105 77.113 45.6105C76.7487 46.7042 76.3967 47.6606 75.8603 48.6609C75.7577 48.8538 75.7577 48.8538 75.6531 49.0506C74.9451 50.3493 74.1024 51.5323 73.2107 52.7095C73.106 52.8492 73.0013 52.989 72.8934 53.133C72.8225 53.2275 72.7516 53.322 72.6786 53.4193C71.9483 53.1758 71.7144 52.6753 71.315 52.055C71.2371 51.9356 71.1592 51.8163 71.0789 51.6933C68.0668 47.031 68.0667 47.031 68.0667 45.6105Z"
    fill="#94B071" />
  <path
    d="M24.5315 24.3027C24.7327 24.3064 24.9339 24.31 25.1412 24.3138C25.515 25.3194 25.7105 26.3496 25.9186 27.3988C25.9769 27.6894 25.9769 27.6894 26.0364 27.986C26.1181 28.3943 26.1995 28.8027 26.2806 29.2112C26.4049 29.8369 26.5307 30.4622 26.6566 31.0876C26.7359 31.4848 26.8151 31.882 26.8942 32.2793C26.9319 32.4664 26.9696 32.6535 27.0084 32.8462C27.06 33.1075 27.06 33.1075 27.1126 33.374C27.143 33.5269 27.1734 33.6797 27.2048 33.8372C27.2698 34.2523 27.2698 34.2523 27.2698 34.9622C25.4552 34.9622 23.6406 34.9622 21.771 34.9622C21.9706 33.1648 21.9706 33.1648 22.1286 32.3718C22.1635 32.1949 22.1984 32.0179 22.2344 31.8356C22.2717 31.6503 22.3091 31.465 22.3475 31.2741C22.3862 31.0798 22.4249 30.8855 22.4648 30.6853C22.5462 30.2778 22.6279 29.8703 22.7099 29.4629C22.8359 28.8365 22.9604 28.2099 23.0847 27.5832C23.1641 27.1866 23.2436 26.7901 23.3231 26.3936C23.3604 26.2054 23.3978 26.0172 23.4362 25.8233C23.4711 25.6508 23.5061 25.4784 23.5421 25.3006C23.5726 25.1482 23.6032 24.9958 23.6347 24.8387C23.7881 24.2296 23.8554 24.3146 24.5315 24.3027Z"
    fill="#94B071" />
</svg>